<svg width="99" height="99" viewBox="0 0 99 99" fill="none" xmlns="http://www.w3.org/2000/svg">
<path d="M48.2133 71.9573V49.372C48.2133 46.4929 50.5166 44.1896 53.3957 44.1896H69.0071C71.8863 44.1896 74.1896 46.4929 74.1896 49.372V71.9573H48.2133Z" fill="#FF0040"/>
<path d="M74.2536 83.538H48.2133V87.8887H74.2536V83.538Z" fill="#FF0040"/>
<path d="M74.2536 73.365H48.2133V82.0664H74.2536V73.365Z" fill="#FF0040"/>
<path d="M40.9834 61.7843C37.7843 61.7843 35.2251 64.4075 35.2251 67.5426C35.2251 70.6777 37.8483 73.3009 40.9834 73.3009V84.8815C40.9834 86.481 42.263 87.7606 43.8625 87.7606V89.936H46.7417V87.7606V85.5853V67.6066C46.7417 64.4075 44.1184 61.7843 40.9834 61.7843Z" fill="#FF0040"/>
<path d="M81.4834 61.7843C78.2844 61.7843 75.7251 64.4075 75.7251 67.5426V85.6492V87.8246V89.9999H78.6043V87.8246C80.2038 87.8246 81.4834 86.545 81.4834 84.9454V73.3649C84.6825 73.3649 87.2417 70.7417 87.2417 67.6066C87.2417 64.4715 84.6825 61.7843 81.4834 61.7843Z" fill="#FF0040"/>
<path d="M31.5782 84.2417V32.1611H46.7417L43.8626 9H14.9431L12 32.1611H27.2275V84.2417H25.0521L23.5806 90H35.1611L33.7536 84.2417H31.5782Z" fill="#FF0040"/>
</svg>
