<svg width="57" height="57" viewBox="0 0 57 57" fill="none" xmlns="http://www.w3.org/2000/svg">
<path d="M47.75 16.875C46.7412 16.8783 45.7596 17.2027 44.9475 17.8013L40.7912 15.9013L45.375 13.8113C46.092 14.2465 46.9114 14.4841 47.75 14.5C48.6895 14.5 49.6078 14.2214 50.389 13.6995C51.1701 13.1775 51.7789 12.4357 52.1384 11.5677C52.4979 10.6998 52.592 9.74473 52.4087 8.82332C52.2255 7.90191 51.7731 7.05554 51.1088 6.39124C50.4445 5.72695 49.5981 5.27455 48.6767 5.09127C47.7553 4.90799 46.8002 5.00206 45.9323 5.36157C45.0643 5.72109 44.3225 6.32991 43.8005 7.11104C43.2786 7.89218 43 8.81054 43 9.75L38.5113 11.8163C37.8979 11.3806 37.1899 11.0969 36.4455 10.9885C35.7011 10.88 34.9416 10.95 34.2295 11.1925C33.5174 11.435 32.873 11.8432 32.3495 12.3834C31.826 12.9236 31.4383 13.5805 31.2184 14.2999C30.9984 15.0193 30.9524 15.7806 31.0842 16.5213C31.2161 17.2619 31.5219 17.9606 31.9766 18.5599C32.4313 19.1592 33.0218 19.642 33.6996 19.9684C34.3774 20.2948 35.1229 20.4556 35.875 20.4375C36.6401 20.4379 37.3925 20.2416 38.06 19.8675L43.0475 22.2425C43.1662 23.1482 43.5436 24.0004 44.1343 24.697C44.7251 25.3937 45.5042 25.9053 46.3783 26.1704C47.2523 26.4356 48.1843 26.4431 49.0626 26.1921C49.9408 25.9411 50.7281 25.4422 51.33 24.7551C51.9319 24.0681 52.3229 23.2221 52.4563 22.3185C52.5896 21.4148 52.4596 20.4919 52.0818 19.6603C51.704 18.8287 51.0944 18.1236 50.3261 17.6296C49.5578 17.1356 48.6634 16.8736 47.75 16.875ZM45.375 31.125C44.7451 31.125 44.141 31.3752 43.6956 31.8206C43.2502 32.266 43 32.8701 43 33.5V34.4263L39.485 30.9113C38.8736 30.2959 38.1465 29.8075 37.3455 29.4742C36.5446 29.1409 35.6856 28.9693 34.8181 28.9693C33.9506 28.9693 33.0917 29.1409 32.2907 29.4742C31.4898 29.8075 30.7627 30.2959 30.1513 30.9113L28.4888 32.5738L22.5987 26.66C21.3576 25.4287 19.6802 24.7377 17.9319 24.7377C16.1836 24.7377 14.5061 25.4287 13.265 26.66L9.75 30.175V16.875C9.75 16.2451 10.0002 15.641 10.4456 15.1956C10.891 14.7502 11.4951 14.5 12.125 14.5H24C24.6299 14.5 25.234 14.2498 25.6794 13.8044C26.1248 13.359 26.375 12.7549 26.375 12.125C26.375 11.4951 26.1248 10.891 25.6794 10.4456C25.234 10.0002 24.6299 9.75 24 9.75H12.125C10.2353 9.75 8.42306 10.5007 7.08686 11.8369C5.75067 13.1731 5 14.9853 5 16.875V45.375C5 47.2647 5.75067 49.0769 7.08686 50.4131C8.42306 51.7493 10.2353 52.5 12.125 52.5H40.625C42.5147 52.5 44.3269 51.7493 45.6631 50.4131C46.9993 49.0769 47.75 47.2647 47.75 45.375V33.5C47.75 32.8701 47.4998 32.266 47.0544 31.8206C46.609 31.3752 46.0049 31.125 45.375 31.125ZM12.125 47.75C11.4951 47.75 10.891 47.4998 10.4456 47.0544C10.0002 46.609 9.75 46.0049 9.75 45.375V36.8963L16.6375 30.0088C16.9864 29.6763 17.4499 29.4908 17.9319 29.4908C18.4138 29.4908 18.8773 29.6763 19.2262 30.0088L26.755 37.5375L36.9438 47.75H12.125ZM43 45.375C42.9966 45.8296 42.8467 46.2711 42.5725 46.6338L31.8613 35.875L33.5238 34.2125C33.8709 33.8673 34.3405 33.6736 34.83 33.6736C35.3195 33.6736 35.7891 33.8673 36.1362 34.2125L43 41.1475V45.375Z" fill="#FF004D"/>
</svg>
