<svg width="57" height="57" viewBox="0 0 57 57" fill="none" xmlns="http://www.w3.org/2000/svg">
<path fill-rule="evenodd" clip-rule="evenodd" d="M27.1391 2.80256C27.5381 2.52362 28.0132 2.37402 28.5 2.37402C28.9868 2.37402 29.4619 2.52362 29.8609 2.80256L53.6109 19.4268C53.9242 19.6458 54.18 19.9372 54.3565 20.2762C54.5331 20.6153 54.6252 20.9919 54.625 21.3742V37.9984C54.6252 38.3806 54.5331 38.7573 54.3565 39.0963C54.18 39.4353 53.9242 39.7268 53.6109 39.9458L29.8609 56.57C29.4619 56.8489 28.9868 56.9985 28.5 56.9985C28.0132 56.9985 27.5381 56.8489 27.1391 56.57L3.38913 39.9458C3.07584 39.7268 2.82005 39.4353 2.64349 39.0963C2.46694 38.7573 2.37483 38.3806 2.375 37.9984V21.3742C2.37483 20.9919 2.46694 20.6153 2.64349 20.2762C2.82005 19.9372 3.07584 19.6458 3.38913 19.4268L27.1391 2.80256V2.80256ZM7.125 25.934V33.4386L12.483 29.6863L7.125 25.934ZM16.625 32.5836L8.892 37.9984L26.125 50.0628V39.2333L16.625 32.5836ZM30.875 39.2333V50.0628L48.108 37.9984L40.375 32.5836L30.875 39.2333ZM44.517 29.6863L49.875 33.4386V25.934L44.517 29.6863ZM48.108 21.3742L40.375 26.7889L30.875 20.1392V9.30975L48.108 21.3742ZM26.125 9.30975V20.1392L16.625 26.7889L8.892 21.3742L26.125 9.30975ZM28.5 24.2715L20.767 29.6863L28.5 35.101L36.233 29.6863L28.5 24.2715V24.2715Z" fill="#FF004C"/>
</svg>
