<svg width="47" height="47" viewBox="0 0 47 47" fill="none" xmlns="http://www.w3.org/2000/svg">
<path d="M23.5 0C10.5213 0 0 10.5213 0 23.5C0 36.4787 10.5213 47 23.5 47C36.4787 47 47 36.4787 47 23.5C47 10.5213 36.4787 0 23.5 0ZM23.5 44.0625C12.1619 44.0625 2.9375 34.8382 2.9375 23.5C2.9375 12.1619 12.1619 2.9375 23.5 2.9375C34.8381 2.9375 44.0625 12.1619 44.0625 23.5C44.0625 34.8382 34.8381 44.0625 23.5 44.0625Z" fill="#FF004D"/>
<path d="M9.16817 24.8346L19.5642 29.3542V26.4282L12.3123 23.5524L19.5642 20.7798V17.8323L9.16817 22.3317V24.8346Z" fill="#FF004D"/>
<path d="M20.5252 31.3407H22.6667L26.4633 15.6592H24.2803L20.5252 31.3407Z" fill="#FF004D"/>
<path d="M27.4258 20.7597L34.6877 23.5825L27.4258 26.4383V29.3657L37.8317 24.8346V22.3519L27.4258 17.8523V20.7597Z" fill="#FF004D"/>
</svg>
