<svg width="57" height="57" viewBox="0 0 57 57" fill="none" xmlns="http://www.w3.org/2000/svg">
<path fill-rule="evenodd" clip-rule="evenodd" d="M28.5004 13.376C31.1451 13.376 33.7436 14.0694 36.0366 15.3872C38.3297 16.705 40.2371 18.6009 41.5686 20.886C42.9001 23.171 43.6092 25.7653 43.6251 28.4099C43.6411 31.0546 42.9632 33.6572 41.6593 35.9581C40.3554 38.259 38.4709 40.1778 36.1939 41.5231C33.9169 42.8684 31.327 43.593 28.6825 43.6249C26.038 43.6567 23.4313 42.9946 21.1226 41.7045C18.8139 40.4145 16.8838 38.5416 15.5248 36.2727L12.9512 37.8142C14.5797 40.5331 16.8926 42.7775 19.6592 44.3234C22.4259 45.8693 25.5495 46.6628 28.7186 46.6247C31.8876 46.5865 34.9913 45.7181 37.7199 44.106C40.4486 42.4939 42.7068 40.1945 44.2693 37.4372C45.8319 34.6799 46.6442 31.5611 46.6251 28.3919C46.606 25.2227 45.7563 22.1139 44.1606 19.3756C42.565 16.6373 40.2793 14.3652 37.5314 12.7861C34.7836 11.207 31.6697 10.376 28.5004 10.376V13.376Z" fill="#FF004D"/>
<path d="M14.0419 9.65786C16.2516 7.96232 18.7402 6.67027 21.3928 5.83834C21.8333 5.70021 22.0535 5.63114 22.2404 5.73388C22.4274 5.83662 22.4889 6.06614 22.6119 6.52519L28.2412 27.5341C28.3632 27.9894 28.4242 28.2171 28.3206 28.3964C28.2171 28.5758 27.9894 28.6368 27.5341 28.7588L6.52519 34.3881C6.06614 34.5111 5.83662 34.5726 5.65418 34.4621C5.47174 34.3516 5.42144 34.1264 5.32085 33.6758C4.71498 30.9626 4.58964 28.1614 4.95318 25.4C5.36028 22.3078 6.37245 19.326 7.9319 16.625C9.49134 13.924 11.5675 11.5565 14.0419 9.65786Z" stroke="#FF004D" stroke-width="3"/>
</svg>
