<svg width="57" height="57" viewBox="0 0 57 57" fill="none" xmlns="http://www.w3.org/2000/svg">
<path d="M47.6662 14.5113C45.0816 10.9425 41.5415 8.17637 37.4538 6.53126C33.8499 5.06437 29.9409 4.50537 26.0704 4.90342C22.1998 5.30146 18.4864 6.64434 15.2566 8.814C12.0267 10.9837 9.37937 13.9136 7.54735 17.3463C5.71532 20.7789 4.75472 24.6091 4.75 28.5C4.75 28.9513 4.75 29.4025 4.75 29.83C4.95725 33.5448 6.03959 37.158 7.90875 40.375C10.9612 45.7326 15.9778 49.693 21.8975 51.4188C24.0491 52.001 26.2713 52.2807 28.5 52.25C29.9989 52.257 31.4947 52.1137 32.965 51.8225C37.8163 50.8835 42.2538 48.4546 45.6595 44.8744C49.0652 41.2942 51.2694 36.7409 51.965 31.8488C52.1435 30.7412 52.2387 29.6218 52.25 28.5C52.2706 23.4648 50.6627 18.5579 47.6662 14.5113V14.5113ZM42.9162 16.34L40.375 23.1325L36.5275 24.1775L30.875 20.1638V15.77L36.7887 11.4713C39.1885 12.6285 41.3108 14.289 43.0113 16.34H42.9162ZM33.25 27.7163L31.3975 33.25H25.5788L23.75 27.7163L28.5 24.32L33.25 27.7163ZM28.5 9.50001C29.3826 9.50993 30.2635 9.58136 31.1362 9.71376L28.5 11.6138L25.8638 9.71376C26.7365 9.58136 27.6174 9.50993 28.5 9.50001V9.50001ZM11.59 19.8788L12.54 23.0138L9.85625 24.89C10.1934 23.1458 10.7772 21.4584 11.59 19.8788V19.8788ZM14.8438 41.6575L18.1213 41.7763L19 44.935C17.4739 44.0338 16.0759 42.9315 14.8438 41.6575V41.6575ZM19 37.05L11.5187 36.7888C10.5748 34.935 9.94864 32.936 9.66625 30.875L15.58 26.7425L19 28.215L21.1138 34.77L19 37.05ZM21.0425 23.9163L17.3375 22.2538L15.1762 15.1288C16.633 13.641 18.3264 12.405 20.1875 11.4713L26.125 15.77V20.1638L21.0425 23.9163ZM30.875 47.3338C28.7913 47.5809 26.6812 47.4846 24.6287 47.0488L22.6575 40.1138L24.6287 38H31.92L33.5112 40.375L30.875 47.3338ZM36.5987 45.6713L37.6912 42.75L40.9212 42.9163C39.5925 44.0353 38.1136 44.9627 36.5275 45.6713H36.5987ZM44.8163 38.2613L37.43 38L35.7438 35.3875L37.8575 28.8325L41.4438 27.8588L47.0487 32.6088C46.597 34.6068 45.8186 36.5166 44.745 38.2613H44.8163ZM44.935 24.415L46.075 21.375C46.7437 22.9893 47.168 24.6943 47.3338 26.4338L44.935 24.415Z" fill="#FF004C"/>
</svg>
