<svg width="57" height="57" viewBox="0 0 57 57" fill="none" xmlns="http://www.w3.org/2000/svg">
<path d="M34.4375 49.875V36.625C34.4375 36.0727 33.9898 35.625 33.4375 35.625H23.5625C23.0102 35.625 22.5625 36.0727 22.5625 36.625V49.875" stroke="#FF004D" stroke-width="3" stroke-linecap="round" stroke-linejoin="round"/>
<path d="M11.875 26.125V45.875C11.875 47.7606 11.875 48.7034 12.4608 49.2892C13.0466 49.875 13.9894 49.875 15.875 49.875H41.125C43.0106 49.875 43.9534 49.875 44.5392 49.2892C45.125 48.7034 45.125 47.7606 45.125 45.875V26.125" stroke="#FF004D" stroke-width="3"/>
<path d="M11.4963 8.63993C11.6782 7.91237 11.7691 7.54859 12.0404 7.33679C12.3116 7.125 12.6866 7.125 13.4366 7.125H43.5634C44.3134 7.125 44.6884 7.125 44.9596 7.33679C45.2309 7.54859 45.3218 7.91237 45.5037 8.63993L49.2537 23.6399C49.5397 24.7839 49.6827 25.3558 49.3824 25.7404C49.0822 26.125 48.4926 26.125 47.3134 26.125H43.7635C42.1452 26.125 41.336 26.125 40.7765 25.651C40.217 25.1771 40.084 24.3789 39.8179 22.7826L39.3848 20.1837C39.3097 19.7334 39.2722 19.5083 39.1875 19.5083C39.1028 19.5083 39.0653 19.7334 38.9902 20.1837L38.5571 22.7826C38.291 24.3789 38.158 25.1771 37.5985 25.651C37.039 26.125 36.2298 26.125 34.6115 26.125H33.076C31.4577 26.125 30.6485 26.125 30.089 25.651C29.5295 25.1771 29.3965 24.3789 29.1304 22.7826L28.6973 20.1837C28.6222 19.7334 28.5847 19.5083 28.5 19.5083C28.4153 19.5083 28.3778 19.7334 28.3027 20.1837L27.8696 22.7826C27.6035 24.3789 27.4705 25.1771 26.911 25.651C26.3515 26.125 25.5423 26.125 23.924 26.125H22.3885C20.7702 26.125 19.961 26.125 19.4015 25.651C18.842 25.1771 18.709 24.3789 18.4429 22.7826L18.0098 20.1837C17.9347 19.7334 17.8972 19.5083 17.8125 19.5083C17.7278 19.5083 17.6903 19.7334 17.6152 20.1837L17.1821 22.7826C16.916 24.3789 16.783 25.1771 16.2235 25.651C15.664 26.125 14.8548 26.125 13.2365 26.125H9.68655C8.50742 26.125 7.91785 26.125 7.61757 25.7404C7.31729 25.3558 7.46029 24.7839 7.74627 23.6399L11.4963 8.63993Z" stroke="#FF004D" stroke-width="3"/>
</svg>
