<svg width="58" height="58" viewBox="0 0 58 58" fill="none" xmlns="http://www.w3.org/2000/svg">
<path d="M19.3047 14.8184C19.7744 14.8184 20.2336 14.6791 20.6242 14.4181C21.0147 14.1571 21.3191 13.7862 21.4989 13.3522C21.6787 12.9183 21.7257 12.4407 21.6341 11.98C21.5424 11.5193 21.3162 11.0961 20.9841 10.764C20.6519 10.4318 20.2287 10.2056 19.768 10.114C19.3073 10.0224 18.8298 10.0694 18.3958 10.2491C17.9618 10.4289 17.5909 10.7333 17.3299 11.1239C17.069 11.5144 16.9297 11.9736 16.9297 12.4434C16.9297 13.0732 17.1799 13.6773 17.6253 14.1227C18.0707 14.5681 18.6748 14.8184 19.3047 14.8184ZM50.1797 45.6934H35.5022C35.1476 44.6973 34.5757 43.7926 33.8281 43.045C33.0804 42.2974 32.1758 41.7255 31.1797 41.3709V36.1934H40.6797C42.5694 36.1934 44.3816 35.4427 45.7178 34.1065C47.054 32.7703 47.8047 30.958 47.8047 29.0684V24.3184C47.7942 22.5607 47.1344 20.869 45.9522 19.5684C47.1344 18.2677 47.7942 16.576 47.8047 14.8184V10.0684C47.8047 8.17869 47.054 6.36642 45.7178 5.03022C44.3816 3.69403 42.5694 2.94336 40.6797 2.94336H16.9297C15.04 2.94336 13.2277 3.69403 11.8916 5.03022C10.5554 6.36642 9.80469 8.17869 9.80469 10.0684V14.8184C9.81516 16.576 10.4749 18.2677 11.6572 19.5684C10.4749 20.869 9.81516 22.5607 9.80469 24.3184V29.0684C9.80469 30.958 10.5554 32.7703 11.8916 34.1065C13.2277 35.4427 15.04 36.1934 16.9297 36.1934H26.4297V41.3709C25.4336 41.7255 24.529 42.2974 23.7813 43.045C23.0337 43.7926 22.4618 44.6973 22.1072 45.6934H7.42969C6.7998 45.6934 6.19571 45.9436 5.75031 46.389C5.30491 46.8344 5.05469 47.4385 5.05469 48.0684C5.05469 48.6982 5.30491 49.3023 5.75031 49.7477C6.19571 50.1931 6.7998 50.4434 7.42969 50.4434H22.1072C22.6064 51.8188 23.5171 53.0073 24.7153 53.8471C25.9136 54.687 27.3414 55.1375 28.8047 55.1375C30.268 55.1375 31.6958 54.687 32.894 53.8471C34.0923 53.0073 35.003 51.8188 35.5022 50.4434H50.1797C50.8096 50.4434 51.4137 50.1931 51.8591 49.7477C52.3045 49.3023 52.5547 48.6982 52.5547 48.0684C52.5547 47.4385 52.3045 46.8344 51.8591 46.389C51.4137 45.9436 50.8096 45.6934 50.1797 45.6934ZM14.5547 10.0684C14.5547 9.43847 14.8049 8.83438 15.2503 8.38898C15.6957 7.94358 16.2998 7.69336 16.9297 7.69336H40.6797C41.3096 7.69336 41.9137 7.94358 42.3591 8.38898C42.8045 8.83438 43.0547 9.43847 43.0547 10.0684V14.8184C43.0547 15.4482 42.8045 16.0523 42.3591 16.4977C41.9137 16.9431 41.3096 17.1934 40.6797 17.1934H16.9297C16.2998 17.1934 15.6957 16.9431 15.2503 16.4977C14.8049 16.0523 14.5547 15.4482 14.5547 14.8184V10.0684ZM16.9297 31.4434C16.2998 31.4434 15.6957 31.1931 15.2503 30.7477C14.8049 30.3023 14.5547 29.6982 14.5547 29.0684V24.3184C14.5547 23.6885 14.8049 23.0844 15.2503 22.639C15.6957 22.1936 16.2998 21.9434 16.9297 21.9434H40.6797C41.3096 21.9434 41.9137 22.1936 42.3591 22.639C42.8045 23.0844 43.0547 23.6885 43.0547 24.3184V29.0684C43.0547 29.6982 42.8045 30.3023 42.3591 30.7477C41.9137 31.1931 41.3096 31.4434 40.6797 31.4434H16.9297ZM28.8047 50.4434C28.335 50.4434 27.8758 50.3041 27.4852 50.0431C27.0946 49.7821 26.7902 49.4112 26.6105 48.9772C26.4307 48.5433 26.3837 48.0657 26.4753 47.605C26.567 47.1443 26.7932 46.7211 27.1253 46.389C27.4575 46.0568 27.8806 45.8306 28.3413 45.739C28.8021 45.6474 29.2796 45.6944 29.7136 45.8741C30.1475 46.0539 30.5185 46.3583 30.7794 46.7489C31.0404 47.1394 31.1797 47.5986 31.1797 48.0684C31.1797 48.6982 30.9295 49.3023 30.4841 49.7477C30.0387 50.1931 29.4346 50.4434 28.8047 50.4434ZM19.3047 24.3184C18.835 24.3184 18.3758 24.4577 17.9852 24.7186C17.5946 24.9796 17.2902 25.3505 17.1105 25.7845C16.9307 26.2185 16.8837 26.696 16.9753 27.1567C17.067 27.6174 17.2932 28.0406 17.6253 28.3727C17.9575 28.7049 18.3806 28.9311 18.8413 29.0227C19.3021 29.1144 19.7796 29.0673 20.2136 28.8876C20.6475 28.7078 21.0185 28.4034 21.2794 28.0128C21.5404 27.6223 21.6797 27.1631 21.6797 26.6934C21.6797 26.0635 21.4295 25.4594 20.9841 25.014C20.5387 24.5686 19.9346 24.3184 19.3047 24.3184Z" fill="#FF004C"/>
</svg>
