<svg width="57" height="57" viewBox="0 0 57 57" fill="none" xmlns="http://www.w3.org/2000/svg">
<path d="M39.7109 57H16.2864C13.9229 57 12 55.0473 12 52.6482V4.3518C12 1.95268 13.9229 0 16.2864 0H39.7109C42.076 0 44 1.95268 44 4.3518V52.6482C44 55.0473 42.076 57 39.7109 57ZM16.2864 2.27999C15.1617 2.27999 14.2472 3.20959 14.2472 4.3518V52.6482C14.2472 53.7904 15.1617 54.72 16.2864 54.72H39.7109C40.8367 54.72 41.7529 53.7904 41.7529 52.6482V4.3518C41.7529 3.20959 40.8367 2.27999 39.7109 2.27999H16.2864V2.27999Z" fill="#FF004D"/>
<path d="M42.8765 45.677H13.1236C12.5031 45.677 12 45.1671 12 44.537C12 43.9069 12.5031 43.397 13.1236 43.397H42.8765C43.497 43.397 44 43.9069 44 44.537C44 45.1671 43.497 45.677 42.8765 45.677Z" fill="#FF004D"/>
<path d="M42.8765 7.94015H13.1236C12.5031 7.94015 12 7.43027 12 6.80016C12 6.17003 12.5031 5.66016 13.1236 5.66016H42.8765C43.497 5.66016 44 6.17003 44 6.80016C44 7.43027 43.497 7.94015 42.8765 7.94015Z" fill="#FF004D"/>
<path d="M29.9261 50.2002C29.9261 51.28 29.0642 52.1551 27.9999 52.1551C26.9372 52.1551 26.0742 51.28 26.0742 50.2002C26.0742 49.1203 26.9372 48.2441 27.9999 48.2441C29.0642 48.2441 29.9261 49.1203 29.9261 50.2002Z" fill="#FF004D"/>
<path d="M21.2183 11.146C19.3529 11.146 17.8354 12.6779 17.8354 14.5749C17.8354 16.4675 19.3529 18.0049 21.2183 18.0049C23.0836 18.0049 24.5978 16.4675 24.5978 14.5749C24.5978 12.6779 23.0836 11.146 21.2183 11.146Z" fill="#FF004D"/>
<path d="M36.2645 15.1494H28.1812V17.4294H36.2645V15.1494Z" fill="#FF004D"/>
<path d="M39.1361 11.7207H28.1812V14.0007H39.1361V11.7207Z" fill="#FF004D"/>
<path d="M21.2183 22.5464C19.3529 22.5464 17.8354 24.0783 17.8354 25.9753C17.8354 27.8679 19.3529 29.4053 21.2183 29.4053C23.0836 29.4053 24.5978 27.8679 24.5978 25.9753C24.5978 24.0783 23.0836 22.5464 21.2183 22.5464Z" fill="#FF004D"/>
<path d="M36.2645 26.5493H28.1812V28.8293H36.2645V26.5493Z" fill="#FF004D"/>
<path d="M39.1361 23.1206H28.1812V25.4006H39.1361V23.1206Z" fill="#FF004D"/>
<path d="M21.2183 33.9463C19.3529 33.9463 17.8354 35.4782 17.8354 37.3752C17.8354 39.2678 19.3529 40.8052 21.2183 40.8052C23.0836 40.8052 24.5978 39.2678 24.5978 37.3752C24.5978 35.4782 23.0836 33.9463 21.2183 33.9463Z" fill="#FF004D"/>
<path d="M36.2645 37.9497H28.1812V40.2297H36.2645V37.9497Z" fill="#FF004D"/>
<path d="M39.1361 34.5205H28.1812V36.8005H39.1361V34.5205Z" fill="#FF004D"/>
</svg>
