<svg width="57" height="57" viewBox="0 0 57 57" fill="none" xmlns="http://www.w3.org/2000/svg">
<path d="M45.125 16.625H38V14.25C38 12.3603 37.2493 10.5481 35.9131 9.21186C34.5769 7.87567 32.7647 7.125 30.875 7.125H26.125C24.2353 7.125 22.4231 7.87567 21.0869 9.21186C19.7507 10.5481 19 12.3603 19 14.25V16.625H11.875C9.98533 16.625 8.17306 17.3757 6.83686 18.7119C5.50067 20.0481 4.75 21.8603 4.75 23.75V42.75C4.75 44.6397 5.50067 46.4519 6.83686 47.7881C8.17306 49.1243 9.98533 49.875 11.875 49.875H45.125C47.0147 49.875 48.8269 49.1243 50.1631 47.7881C51.4993 46.4519 52.25 44.6397 52.25 42.75V23.75C52.25 21.8603 51.4993 20.0481 50.1631 18.7119C48.8269 17.3757 47.0147 16.625 45.125 16.625ZM23.75 14.25C23.75 13.6201 24.0002 13.016 24.4456 12.5706C24.891 12.1252 25.4951 11.875 26.125 11.875H30.875C31.5049 11.875 32.109 12.1252 32.5544 12.5706C32.9998 13.016 33.25 13.6201 33.25 14.25V16.625H23.75V14.25ZM9.5 23.75C9.5 23.1201 9.75022 22.516 10.1956 22.0706C10.641 21.6252 11.2451 21.375 11.875 21.375H14.25C14.25 22.6348 13.7496 23.843 12.8588 24.7338C11.968 25.6246 10.7598 26.125 9.5 26.125V23.75ZM11.875 45.125C11.2451 45.125 10.641 44.8748 10.1956 44.4294C9.75022 43.984 9.5 43.3799 9.5 42.75V40.375C10.7598 40.375 11.968 40.8754 12.8588 41.7662C13.7496 42.657 14.25 43.8652 14.25 45.125H11.875ZM47.5 42.75C47.5 43.3799 47.2498 43.984 46.8044 44.4294C46.359 44.8748 45.7549 45.125 45.125 45.125H42.75C42.75 43.8652 43.2504 42.657 44.1412 41.7662C45.032 40.8754 46.2402 40.375 47.5 40.375V42.75ZM47.5 35.625C44.9804 35.625 42.5641 36.6259 40.7825 38.4075C39.0009 40.1891 38 42.6054 38 45.125H19C19 42.6054 17.9991 40.1891 16.2175 38.4075C14.4359 36.6259 12.0196 35.625 9.5 35.625V30.875C12.0196 30.875 14.4359 29.8741 16.2175 28.0925C17.9991 26.3109 19 23.8946 19 21.375H38C38 23.8946 39.0009 26.3109 40.7825 28.0925C42.5641 29.8741 44.9804 30.875 47.5 30.875V35.625ZM47.5 26.125C46.2402 26.125 45.032 25.6246 44.1412 24.7338C43.2504 23.843 42.75 22.6348 42.75 21.375H45.125C45.7549 21.375 46.359 21.6252 46.8044 22.0706C47.2498 22.516 47.5 23.1201 47.5 23.75V26.125ZM28.5 26.125C27.0908 26.125 25.7133 26.5429 24.5416 27.3258C23.3699 28.1087 22.4566 29.2215 21.9174 30.5234C21.3781 31.8253 21.237 33.2579 21.5119 34.64C21.7868 36.0221 22.4654 37.2917 23.4619 38.2881C24.4583 39.2846 25.7279 39.9632 27.11 40.2381C28.4921 40.513 29.9247 40.3719 31.2266 39.8326C32.5285 39.2934 33.6413 38.3801 34.4242 37.2084C35.2071 36.0367 35.625 34.6592 35.625 33.25C35.625 31.3603 34.8743 29.5481 33.5381 28.2119C32.2019 26.8757 30.3897 26.125 28.5 26.125V26.125ZM28.5 35.625C28.0303 35.625 27.5711 35.4857 27.1805 35.2247C26.79 34.9638 26.4855 34.5928 26.3058 34.1589C26.126 33.7249 26.079 33.2474 26.1706 32.7867C26.2623 32.326 26.4885 31.9028 26.8206 31.5706C27.1528 31.2385 27.576 31.0123 28.0367 30.9206C28.4974 30.829 28.9749 30.876 29.4089 31.0558C29.8428 31.2355 30.2138 31.54 30.4747 31.9305C30.7357 32.3211 30.875 32.7803 30.875 33.25C30.875 33.8799 30.6248 34.484 30.1794 34.9294C29.734 35.3748 29.1299 35.625 28.5 35.625Z" fill="#FF004C"/>
</svg>
