<svg width="57" height="58" viewBox="0 0 57 58" fill="none" xmlns="http://www.w3.org/2000/svg">
<path d="M51.3233 29.0461L43.6046 23.0373L51.3471 16.9573C51.6534 16.7169 51.8959 16.4049 52.0533 16.0487C52.2107 15.6926 52.2781 15.3032 52.2496 14.9148C52.2117 14.5279 52.0849 14.1551 51.8788 13.8254C51.6728 13.4958 51.3932 13.2183 51.0621 13.0148L38.8546 6.05606C38.4258 5.81487 37.9328 5.71275 37.4436 5.7638C36.9543 5.81486 36.493 6.01656 36.1233 6.34106L28.4996 12.9911L20.8758 6.34106C20.5061 6.01656 20.0448 5.81486 19.5555 5.7638C19.0663 5.71275 18.5733 5.81487 18.1446 6.05606L5.93705 13.0148C5.60586 13.2183 5.3263 13.4958 5.12028 13.8254C4.91425 14.1551 4.78736 14.5279 4.74955 14.9148C4.72101 15.3032 4.7884 15.6926 4.94578 16.0487C5.10316 16.4049 5.34571 16.7169 5.65205 16.9573L13.3946 23.0373L5.6758 28.9511C5.36511 29.1889 5.11799 29.4998 4.9564 29.8561C4.79481 30.2124 4.72376 30.6032 4.74955 30.9936C4.77587 31.3835 4.89802 31.761 5.10516 32.0924C5.31231 32.4238 5.59806 32.699 5.93705 32.8936L14.0358 37.6436V43.5098C14.0375 43.9157 14.1432 44.3143 14.3427 44.6677C14.5423 45.0211 14.8291 45.3175 15.1758 45.5286L27.2646 52.9623C27.6256 53.1708 28.0352 53.2805 28.4521 53.2805C28.869 53.2805 29.2785 53.1708 29.6396 52.9623L41.7283 45.5286C42.075 45.3175 42.3618 45.0211 42.5614 44.6677C42.7609 44.3143 42.8666 43.9157 42.8683 43.5098V37.6198L50.9671 32.9886C51.306 32.794 51.5918 32.5188 51.7989 32.1874C52.0061 31.856 52.1282 31.4785 52.1546 31.0886C52.1915 30.7063 52.1351 30.3207 51.9904 29.965C51.8456 29.6092 51.6167 29.2939 51.3233 29.0461V29.0461ZM37.9996 11.0198L45.6708 15.3898L39.6146 20.1398L32.4896 15.7698L37.9996 11.0198ZM35.4108 23.1798L28.4996 27.9298L21.5883 23.1798L28.4996 18.9286L35.4108 23.1798ZM11.3758 15.3898L18.9996 11.0198L24.4858 15.7698L17.3608 20.1398L11.3758 15.3898ZM11.3758 30.5661L17.3133 26.0061L24.4383 30.9461L19.1658 35.0548L11.3758 30.5661ZM38.1896 42.1086L28.4996 48.0936L18.7858 42.1086V40.2086C19.1328 40.2937 19.4945 40.2995 19.844 40.2255C20.1936 40.1515 20.5219 39.9996 20.8046 39.7811L28.4996 33.8436L36.1946 39.7811C36.6091 40.1028 37.1186 40.2782 37.6433 40.2798C37.8326 40.3027 38.024 40.3027 38.2133 40.2798L38.1896 42.1086ZM37.8333 34.9836L32.5371 30.9461L39.6621 26.0061L45.6233 30.6136L37.8333 34.9836Z" fill="#FF004C"/>
</svg>
