<svg width="57" height="58" viewBox="0 0 57 58" fill="none" xmlns="http://www.w3.org/2000/svg">
<path d="M49.875 48.4971H9.5V47.2146L21.375 35.3396L30.4 44.3646C30.845 44.8069 31.4469 45.0552 32.0744 45.0552C32.7018 45.0552 33.3038 44.8069 33.7488 44.3646L51.5612 26.5521C51.7839 26.3313 51.9605 26.0686 52.0811 25.7792C52.2017 25.4898 52.2638 25.1793 52.2638 24.8658C52.2638 24.5523 52.2017 24.2419 52.0811 23.9525C51.9605 23.663 51.7839 23.4004 51.5612 23.1796C51.1163 22.7372 50.5143 22.4889 49.8869 22.4889C49.2594 22.4889 48.6575 22.7372 48.2125 23.1796L32.0625 39.3296L23.0613 30.3046C22.6163 29.8622 22.0143 29.6139 21.3869 29.6139C20.7594 29.6139 20.1575 29.8622 19.7125 30.3046L9.5 40.4933V28.2146L21.375 16.3396L28.025 22.9896C28.47 23.4319 29.0719 23.6802 29.6994 23.6802C30.3268 23.6802 30.9288 23.4319 31.3738 22.9896L42.75 11.6133L47.9513 16.8146C48.3985 17.2586 49.0038 17.5069 49.634 17.5046C50.2643 17.5024 50.8678 17.2499 51.3119 16.8027C51.7559 16.3555 52.0042 15.7502 52.0019 15.1199C51.9997 14.4897 51.7472 13.8861 51.3 13.4421L44.3888 6.57832C43.9438 6.13597 43.3418 5.88769 42.7144 5.88769C42.0869 5.88769 41.485 6.13597 41.04 6.57832L29.64 17.9783L23.0137 11.3283C22.5688 10.886 21.9668 10.6377 21.3394 10.6377C20.7119 10.6377 20.11 10.886 19.665 11.3283L9.5 21.4933V8.12207C9.5 7.49218 9.24978 6.88809 8.80438 6.44269C8.35898 5.99729 7.75489 5.74707 7.125 5.74707C6.49511 5.74707 5.89102 5.99729 5.44562 6.44269C5.00022 6.88809 4.75 7.49218 4.75 8.12207V50.8721C4.75 51.502 5.00022 52.1061 5.44562 52.5515C5.89102 52.9968 6.49511 53.2471 7.125 53.2471H49.875C50.5049 53.2471 51.109 52.9968 51.5544 52.5515C51.9998 52.1061 52.25 51.502 52.25 50.8721C52.25 50.2422 51.9998 49.6381 51.5544 49.1927C51.109 48.7473 50.5049 48.4971 49.875 48.4971Z" fill="#FF004C"/>
</svg>
