<svg width="57" height="57" viewBox="0 0 57 57" fill="none" xmlns="http://www.w3.org/2000/svg">
<path d="M16.625 38C17.5698 38 18.476 37.6247 19.1441 36.9566C19.8122 36.2885 20.1875 35.3823 20.1875 34.4375C20.1991 34.319 20.1991 34.1997 20.1875 34.0813L26.8137 27.455H27.36H27.9062L31.73 31.2787C31.73 31.2787 31.73 31.3975 31.73 31.4688C31.73 32.4136 32.1053 33.3197 32.7734 33.9878C33.4415 34.6559 34.3477 35.0312 35.2925 35.0312C36.2373 35.0312 37.1435 34.6559 37.8116 33.9878C38.4797 33.3197 38.855 32.4136 38.855 31.4688V31.2787L47.5 22.5625C48.2046 22.5625 48.8934 22.3536 49.4792 21.9621C50.0651 21.5707 50.5217 21.0143 50.7913 20.3633C51.061 19.7123 51.1315 18.996 50.994 18.305C50.8566 17.6139 50.5173 16.9792 50.0191 16.4809C49.5208 15.9827 48.8861 15.6434 48.195 15.506C47.504 15.3685 46.7877 15.439 46.1367 15.7087C45.4857 15.9783 44.9293 16.4349 44.5379 17.0208C44.1464 17.6066 43.9375 18.2954 43.9375 19C43.9259 19.1185 43.9259 19.2378 43.9375 19.3562L35.3638 27.93H34.9837L30.875 23.75C30.875 22.8052 30.4997 21.899 29.8316 21.2309C29.1635 20.5628 28.2573 20.1875 27.3125 20.1875C26.3677 20.1875 25.4615 20.5628 24.7934 21.2309C24.1253 21.899 23.75 22.8052 23.75 23.75L16.625 30.875C15.6802 30.875 14.774 31.2503 14.1059 31.9184C13.4378 32.5865 13.0625 33.4927 13.0625 34.4375C13.0625 35.3823 13.4378 36.2885 14.1059 36.9566C14.774 37.6247 15.6802 38 16.625 38ZM48.6875 47.5H8.3125V7.125C8.3125 6.49511 8.06228 5.89102 7.61688 5.44562C7.17148 5.00022 6.56739 4.75 5.9375 4.75C5.30761 4.75 4.70352 5.00022 4.25812 5.44562C3.81272 5.89102 3.5625 6.49511 3.5625 7.125V49.875C3.5625 50.5049 3.81272 51.109 4.25812 51.5544C4.70352 51.9998 5.30761 52.25 5.9375 52.25H48.6875C49.3174 52.25 49.9215 51.9998 50.3669 51.5544C50.8123 51.109 51.0625 50.5049 51.0625 49.875C51.0625 49.2451 50.8123 48.641 50.3669 48.1956C49.9215 47.7502 49.3174 47.5 48.6875 47.5Z" fill="#FF004D"/>
</svg>
