<svg width="58" height="58" viewBox="0 0 58 58" fill="none" xmlns="http://www.w3.org/2000/svg">
<path d="M50.1797 38.5684H16.9297C16.2998 38.5684 15.6957 38.3181 15.2503 37.8727C14.8049 37.4273 14.5547 36.8232 14.5547 36.1934C14.5547 35.5635 14.8049 34.9594 15.2503 34.514C15.6957 34.0686 16.2998 33.8184 16.9297 33.8184H41.7247C43.3127 33.8185 44.8553 33.288 46.1074 32.3113C47.3596 31.3345 48.2495 29.9674 48.6359 28.4271L52.5547 13.0134C52.6436 12.6628 52.6514 12.2966 52.5773 11.9426C52.5032 11.5887 52.3492 11.2563 52.1272 10.9709C51.8962 10.6781 51.5995 10.4438 51.2612 10.287C50.9229 10.1303 50.5524 10.0553 50.1797 10.0684H16.3597C15.8697 8.68243 14.963 7.48198 13.764 6.63159C12.5649 5.7812 11.1322 5.32249 9.66219 5.31836H7.42969C6.7998 5.31836 6.19571 5.56858 5.75031 6.01398C5.30491 6.45938 5.05469 7.06347 5.05469 7.69336C5.05469 8.32325 5.30491 8.92734 5.75031 9.37274C6.19571 9.81814 6.7998 10.0684 7.42969 10.0684H9.66219C10.2047 10.0526 10.7363 10.2231 11.1684 10.5515C11.6006 10.8799 11.9072 11.3464 12.0372 11.8734L12.1797 13.0134L16.2884 29.0684C14.3988 29.1534 12.6203 29.9856 11.3442 31.3819C10.0681 32.7783 9.39903 34.6243 9.48406 36.514C9.5691 38.4037 10.4013 40.1821 11.7976 41.4582C13.194 42.7343 15.04 43.4034 16.9297 43.3184H17.3572C16.9666 44.3945 16.8411 45.549 16.9913 46.684C17.1415 47.819 17.563 48.9011 18.2201 49.8386C18.8772 50.7761 19.7505 51.5415 20.7661 52.0699C21.7818 52.5983 22.9098 52.8742 24.0547 52.8742C25.1996 52.8742 26.3276 52.5983 27.3432 52.0699C28.3589 51.5415 29.2322 50.7761 29.8893 49.8386C30.5464 48.9011 30.9679 47.819 31.1181 46.684C31.2683 45.549 31.1428 44.3945 30.7522 43.3184H36.3572C35.9666 44.3945 35.8411 45.549 35.9913 46.684C36.1415 47.819 36.563 48.9011 37.2201 49.8386C37.8772 50.7761 38.7505 51.5415 39.7662 52.0699C40.7818 52.5983 41.9098 52.8742 43.0547 52.8742C44.1996 52.8742 45.3276 52.5983 46.3432 52.0699C47.3589 51.5415 48.2322 50.7761 48.8893 49.8386C49.5464 48.9011 49.9679 47.819 50.1181 46.684C50.2683 45.549 50.1428 44.3945 49.7522 43.3184H50.1797C50.8096 43.3184 51.4137 43.0681 51.8591 42.6227C52.3045 42.1773 52.5547 41.5732 52.5547 40.9434C52.5547 40.3135 52.3045 39.7094 51.8591 39.264C51.4137 38.8186 50.8096 38.5684 50.1797 38.5684ZM47.1397 14.8184L44.0284 27.2634C43.8984 27.7903 43.5918 28.2568 43.1597 28.5853C42.7275 28.9137 42.196 29.0842 41.6534 29.0684H21.1572L17.5947 14.8184H47.1397ZM24.0547 48.0684C23.585 48.0684 23.1258 47.9291 22.7352 47.6681C22.3446 47.4071 22.0402 47.0362 21.8605 46.6022C21.6807 46.1683 21.6337 45.6907 21.7253 45.23C21.817 44.7693 22.0432 44.3461 22.3753 44.014C22.7075 43.6818 23.1306 43.4556 23.5913 43.364C24.0521 43.2724 24.5296 43.3194 24.9636 43.4991C25.3975 43.6789 25.7685 43.9833 26.0294 44.3739C26.2904 44.7644 26.4297 45.2236 26.4297 45.6934C26.4297 46.3232 26.1795 46.9273 25.7341 47.3727C25.2887 47.8181 24.6846 48.0684 24.0547 48.0684ZM43.0547 48.0684C42.585 48.0684 42.1258 47.9291 41.7352 47.6681C41.3446 47.4071 41.0402 47.0362 40.8605 46.6022C40.6807 46.1683 40.6337 45.6907 40.7253 45.23C40.817 44.7693 41.0432 44.3461 41.3753 44.014C41.7075 43.6818 42.1306 43.4556 42.5913 43.364C43.0521 43.2724 43.5296 43.3194 43.9636 43.4991C44.3975 43.6789 44.7685 43.9833 45.0294 44.3739C45.2904 44.7644 45.4297 45.2236 45.4297 45.6934C45.4297 46.3232 45.1795 46.9273 44.7341 47.3727C44.2887 47.8181 43.6846 48.0684 43.0547 48.0684Z" fill="#FF004C"/>
</svg>
