<svg width="57" height="57" viewBox="0 0 57 57" fill="none" xmlns="http://www.w3.org/2000/svg">
<path fill-rule="evenodd" clip-rule="evenodd" d="M8.84438 20.0717L17.3136 17.0841C15.565 19.4379 14.0632 21.9654 12.832 24.6267L8.84438 20.0717ZM2.96151 20.5633L10.8061 29.5261L9.67088 32.3664C9.49811 32.7975 9.45552 33.2698 9.54838 33.7248C9.64125 34.1798 9.8655 34.5976 10.1934 34.9266L10.9415 35.6723C6.89451 40.232 4.66201 45.0032 2.49601 51.4961C2.35645 51.9146 2.3362 52.3636 2.43752 52.7929C2.53884 53.2222 2.75772 53.6148 3.06965 53.9267C3.38157 54.2386 3.77419 54.4575 4.20352 54.5588C4.63285 54.6601 5.08192 54.6399 5.50038 54.5003C11.9936 52.3344 16.765 50.1021 21.325 46.0553L22.0708 46.801C22.3994 47.1292 22.8171 47.3539 23.2722 47.4472C23.7273 47.5405 24.1997 47.4983 24.631 47.3258L27.4715 46.1906L36.4348 54.0349C36.7267 54.2906 37.0769 54.4708 37.4547 54.5598C37.8325 54.6488 38.2263 54.6439 38.6018 54.5455C38.9772 54.4471 39.3228 54.2581 39.6083 53.9952C39.8938 53.7323 40.1105 53.4035 40.2395 53.0374L47.3313 32.9459C52.0416 27.3724 54.6256 20.3107 54.6249 13.0135V4.74891C54.6249 4.11905 54.3747 3.51499 53.9293 3.06961C53.4839 2.62423 52.8798 2.37402 52.2499 2.37402H43.9849C36.6884 2.373 29.6273 4.956 24.0539 9.66492L3.96138 16.7587C3.59573 16.8878 3.26726 17.1045 3.00465 17.3898C2.74205 17.6751 2.55331 18.0204 2.45491 18.3954C2.35651 18.7705 2.35145 19.164 2.44017 19.5414C2.5289 19.9189 2.7087 20.2689 2.96388 20.5609L2.96151 20.5633ZM8.75176 48.2449C10.2433 44.6446 11.9153 41.7805 14.3069 39.0375L17.9596 42.69C15.2165 45.0816 12.3523 46.7535 8.75176 48.2449V48.2449ZM24.3223 42.3362L23.054 41.068L15.929 33.9434L14.6608 32.6752L16.347 28.4597C17.8945 24.5926 20.0673 21.0062 22.7785 17.844L24.1465 16.2457C26.5995 13.3843 29.6426 11.0874 33.0669 9.51287C36.4913 7.93831 40.2158 7.1233 43.9849 7.12379H49.8749V13.0135C49.8754 16.7824 49.0603 20.5067 47.4857 23.9309C45.911 27.3551 43.6141 30.3981 40.7525 32.8509L39.1541 34.2188C35.9918 36.9298 32.4052 39.1025 28.5379 40.65L24.3223 42.3362V42.3362ZM36.9264 48.1523L32.3711 44.1672C35.0325 42.9361 37.5602 41.4344 39.9141 39.6858L36.9264 48.1523V48.1523ZM35.6249 18.9982C35.6249 18.3684 35.8751 17.7643 36.3205 17.3189C36.7659 16.8735 37.37 16.6233 37.9999 16.6233C38.6298 16.6233 39.2339 16.8735 39.6793 17.3189C40.1247 17.7643 40.3749 18.3684 40.3749 18.9982C40.3749 19.6281 40.1247 20.2321 39.6793 20.6775C39.2339 21.1229 38.6298 21.3731 37.9999 21.3731C37.37 21.3731 36.7659 21.1229 36.3205 20.6775C35.8751 20.2321 35.6249 19.6281 35.6249 18.9982V18.9982ZM37.9999 11.8736C36.1102 11.8736 34.2979 12.6242 32.9617 13.9603C31.6255 15.2965 30.8749 17.1086 30.8749 18.9982C30.8749 20.8878 31.6255 22.7 32.9617 24.0361C34.2979 25.3722 36.1102 26.1229 37.9999 26.1229C39.8895 26.1229 41.7018 25.3722 43.038 24.0361C44.3742 22.7 45.1249 20.8878 45.1249 18.9982C45.1249 17.1086 44.3742 15.2965 43.038 13.9603C41.7018 12.6242 39.8895 11.8736 37.9999 11.8736Z" fill="#FF004C"/>
</svg>
