<svg width="49" height="49" viewBox="0 0 49 49" fill="none" xmlns="http://www.w3.org/2000/svg">
<path d="M47.5612 1.46248C47.1163 1.02014 46.5143 0.771851 45.8869 0.771851C45.2594 0.771851 44.6575 1.02014 44.2125 1.46248L36.185 9.29998L33.2875 6.44998C32.8371 6.00906 32.23 5.76511 31.5998 5.77179C30.9696 5.77847 30.3678 6.03524 29.9269 6.48561C29.486 6.93598 29.242 7.54306 29.2487 8.1733C29.2554 8.80354 29.5121 9.40531 29.9625 9.84623L34.5225 14.3112C34.9665 14.7464 35.5633 14.9901 36.185 14.9901C36.8067 14.9901 37.4035 14.7464 37.8475 14.3112L47.5375 4.81123C47.983 4.36939 48.2356 3.7692 48.24 3.14176C48.2445 2.51431 48.0005 1.9106 47.5612 1.46248V1.46248ZM41.125 17.375C40.4951 17.375 39.891 17.6252 39.4456 18.0706C39.0002 18.516 38.75 19.1201 38.75 19.75V30.1762L35.235 26.6612C34.6236 26.0458 33.8964 25.5574 33.0955 25.2242C32.2946 24.8909 31.4356 24.7193 30.5681 24.7193C29.7006 24.7193 28.8417 24.8909 28.0407 25.2242C27.2398 25.5574 26.5127 26.0458 25.9013 26.6612L24.2388 28.3237L18.3487 22.41C17.1076 21.1787 15.4302 20.4877 13.6819 20.4877C11.9336 20.4877 10.2561 21.1787 9.015 22.41L5.5 25.925V12.625C5.5 11.9951 5.75022 11.391 6.19562 10.9456C6.64102 10.5002 7.24511 10.25 7.875 10.25H22.125C22.7549 10.25 23.359 9.99976 23.8044 9.55436C24.2498 9.10896 24.5 8.50487 24.5 7.87498C24.5 7.24509 24.2498 6.641 23.8044 6.19561C23.359 5.75021 22.7549 5.49998 22.125 5.49998H7.875C5.98533 5.49998 4.17306 6.25065 2.83686 7.58685C1.50067 8.92304 0.75 10.7353 0.75 12.625V41.125C0.75 43.0147 1.50067 44.8269 2.83686 46.1631C4.17306 47.4993 5.98533 48.25 7.875 48.25H36.375C38.2647 48.25 40.0769 47.4993 41.4131 46.1631C42.7493 44.8269 43.5 43.0147 43.5 41.125V19.75C43.5 19.1201 43.2498 18.516 42.8044 18.0706C42.359 17.6252 41.7549 17.375 41.125 17.375ZM7.875 43.5C7.24511 43.5 6.64102 43.2498 6.19562 42.8044C5.75022 42.359 5.5 41.7549 5.5 41.125V32.6462L12.3875 25.7587C12.7364 25.4262 13.1999 25.2408 13.6819 25.2408C14.1638 25.2408 14.6273 25.4262 14.9762 25.7587L22.505 33.2875L32.6937 43.5H7.875ZM38.75 41.125C38.7466 41.5796 38.5967 42.021 38.3225 42.3837L27.6113 31.625L29.2738 29.9625C29.6209 29.6173 30.0905 29.4236 30.58 29.4236C31.0695 29.4236 31.5391 29.6173 31.8862 29.9625L38.75 36.8975V41.125Z" fill="#FF004D"/>
</svg>
