<svg width="67" height="57" viewBox="0 0 67 57" fill="none" xmlns="http://www.w3.org/2000/svg">
<path d="M14.8659 25.6209H19.7549C19.6842 21.1126 16.15 18 10.778 18C5.48845 18 1.6126 21.0632 1.63616 25.658C1.62438 29.3881 4.13367 31.525 8.20979 32.5501L10.8369 33.2418C13.464 33.9088 14.9248 34.6993 14.9366 36.4038C14.9248 38.2565 13.2519 39.5164 10.6602 39.5164C8.00951 39.5164 6.10105 38.2318 5.93611 35.6998H1C1.12959 41.1715 4.86407 44 10.7191 44C16.6094 44 20.073 41.048 20.0848 36.4162C20.073 32.2043 17.0453 29.9686 12.8514 28.9805L10.6837 28.4371C8.58678 27.9306 6.83145 27.1154 6.86678 25.2998C6.86678 23.6694 8.24515 22.4713 10.7427 22.4713C13.1812 22.4713 14.6774 23.6323 14.8659 25.6209ZM23.5159 43.6418H39.8204V39.2323H28.6169V33.1924H38.9369V28.7829H28.6169V22.7554H39.7733V18.3458H23.5159V43.6418ZM66 30.9938C66 22.7183 61.0991 18 54.7024 18C48.2702 18 43.4045 22.7183 43.4045 30.9938C43.4045 39.2323 48.2702 43.9877 54.7024 43.9877C61.0991 43.9877 66 39.2694 66 30.9938ZM60.8284 30.9938C60.8284 36.3544 58.4014 39.257 54.7024 39.257C50.9915 39.257 48.5764 36.3544 48.5764 30.9938C48.5764 25.6332 50.9915 22.7307 54.7024 22.7307C58.4014 22.7307 60.8284 25.6332 60.8284 30.9938Z" fill="#FF004D"/>
</svg>
