<svg width="46" height="58" viewBox="0 0 46 58" fill="none" xmlns="http://www.w3.org/2000/svg">
<path d="M22.7692 56C34.2397 56 43.5384 46.7013 43.5384 35.2308C43.5384 23.7603 34.2397 14.4616 22.7692 14.4616C11.2987 14.4616 2 23.7603 2 35.2308C2 46.7013 11.2987 56 22.7692 56Z" stroke="#FF004D" stroke-width="3" stroke-linecap="round" stroke-linejoin="round"/>
<path d="M15.7337 15.6818L7.94519 6.2058C7.64207 5.82222 7.45341 5.36083 7.40095 4.87475C7.34848 4.38867 7.43434 3.89766 7.64863 3.45822C7.86292 3.01879 8.19695 2.64879 8.61225 2.39082C9.02755 2.13285 9.50726 1.99739 9.99615 2.00004H35.5423C36.029 2.00227 36.5052 2.14127 36.9167 2.40117C37.3282 2.66107 37.6584 3.0314 37.8695 3.46991C38.0806 3.90842 38.1643 4.39745 38.1108 4.88121C38.0574 5.36496 37.869 5.82395 37.5673 6.2058L29.7788 15.6818" stroke="#FF004D" stroke-width="3" stroke-linecap="round" stroke-linejoin="round"/>
<path d="M17.5509 31.3625L23.4961 24.5866V45.3558" stroke="#FF004D" stroke-width="3" stroke-linecap="round" stroke-linejoin="round"/>
</svg>
