<svg width="36" height="55" viewBox="0 0 36 55" fill="none" xmlns="http://www.w3.org/2000/svg">
<path fill-rule="evenodd" clip-rule="evenodd" d="M6.97867 1.89655H28.9846C31.7767 1.89655 34.0484 4.14646 34.0484 6.91182V48.0882C34.0484 50.8534 31.7767 53.1034 28.9846 53.1034H6.97867C4.18656 53.1034 1.91489 50.8534 1.91489 48.0882V6.91182C1.91489 4.14646 4.18656 1.89655 6.97867 1.89655ZM28.9846 51.0635C30.641 51.0635 31.9886 49.7287 31.9886 48.0882V44.9805L3.9747 44.9505V48.0882C3.9747 49.7287 5.32229 51.0635 6.97867 51.0635H28.9846ZM3.9747 42.8643V6.91182C3.9747 5.27131 5.32229 3.93663 6.97867 3.93663H28.9846C30.641 3.93663 31.9886 5.27131 31.9886 6.91182V42.801V42.8943L18.0017 42.8791L7.36877 42.8678L3.9747 42.8643ZM19.5319 7.20689C19.5319 8.04482 18.846 8.72413 18 8.72413C17.154 8.72413 16.4681 8.04482 16.4681 7.20689C16.4681 6.36896 17.154 5.68965 18 5.68965C18.846 5.68965 19.5319 6.36896 19.5319 7.20689ZM17.8085 18.5862C17.0368 18.5862 16.4134 19.205 16.4134 19.968V22.7315C16.4134 23.4958 17.0368 24.1133 17.8085 24.1133H20.5988C21.3705 24.1133 21.9939 23.4958 21.9939 22.7315V19.968C21.9939 19.205 21.3705 18.5862 20.5988 18.5862H17.8085ZM15.9687 25.2662C15.5457 24.6056 14.7305 24.3767 14.0634 24.7222L11.6468 26.1039C10.9798 26.5228 10.7509 27.3691 11.1362 28.0298L12.4939 30.4219C12.9168 31.0826 13.7713 31.3071 14.4384 30.9272L16.8537 29.5454C17.5208 29.1266 17.7475 28.3191 17.3638 27.6584L15.9687 25.2662ZM24.7842 26.8768C24.7842 26.1126 24.1607 25.4951 23.389 25.4951H20.5988C19.8271 25.4951 19.2037 26.1126 19.2037 26.8768V29.6404C19.2037 30.4047 19.8271 31.0222 20.5988 31.0222H23.389C24.1607 31.0222 24.7842 30.4047 24.7842 29.6404V26.8768ZM27.5745 33.7857C27.5745 33.0214 26.951 32.4039 26.1793 32.4039H23.389C22.6174 32.4039 21.9939 33.0214 21.9939 33.7857V36.5492C21.9939 37.3135 22.6174 37.931 23.389 37.931H26.1793C26.951 37.931 27.5745 37.3135 27.5745 36.5492V33.7857ZM16.4134 32.4039C15.6417 32.4039 15.0182 33.0214 15.0182 33.7857V36.5492C15.0182 37.3135 15.6417 37.931 16.4134 37.931H19.2037C19.9753 37.931 20.5988 37.3135 20.5988 36.5492V33.7857C20.5988 33.0214 19.9753 32.4039 19.2037 32.4039H16.4134ZM13.6231 33.7857C13.6231 33.0214 12.9996 32.4039 12.228 32.4039H9.4377C8.6673 32.4039 8.04255 33.0214 8.04255 33.7857V36.5492C8.04255 37.3135 8.6673 37.931 9.4377 37.931H12.228C12.9996 37.931 13.6231 37.3135 13.6231 36.5492V33.7857Z" fill="#FF0040"/>
</svg>
