<svg width="99" height="99" viewBox="0 0 99 99" fill="none" xmlns="http://www.w3.org/2000/svg">
<path fill-rule="evenodd" clip-rule="evenodd" d="M92.8062 20.3818C94.2959 21.258 95.533 22.5054 96.3969 24.0023C97.246 25.4179 97.7315 27.0217 97.8101 28.6705C97.8886 30.3194 97.5577 31.9621 96.8469 33.452L80.4474 66.2509C80.0319 67.0754 79.3962 67.7688 78.6108 68.2542C77.8254 68.7396 76.9209 68.998 75.9976 69.0008H30.999C29.8702 69.0395 28.7616 68.6948 27.8537 68.023C26.9458 67.3511 26.2922 66.3917 25.9992 65.3009L12.1996 14.0026H5.99984C4.6738 14.0026 3.40207 13.4758 2.46442 12.5382C1.52677 11.6005 1 10.3288 1 9.00277C1 7.67673 1.52677 6.405 2.46442 5.46735C3.40207 4.5297 4.6738 4.00293 5.99984 4.00293H15.9995C17.1283 3.96427 18.2369 4.30892 19.1448 4.98076C20.0527 5.6526 20.7064 6.61204 20.9993 7.70281L23.8993 19.0024H87.8972C89.6252 19.0303 91.3165 19.5055 92.8062 20.3818ZM35.9988 86.5002C35.9988 90.6422 32.6411 94 28.4991 94C24.3571 94 20.9993 90.6422 20.9993 86.5002C20.9993 82.3582 24.3571 79.0005 28.4991 79.0005C32.6411 79.0005 35.9988 82.3582 35.9988 86.5002ZM78.4975 94C82.6395 94 85.9972 90.6422 85.9972 86.5002C85.9972 82.3582 82.6395 79.0005 78.4975 79.0005C74.3555 79.0005 70.9977 82.3582 70.9977 86.5002C70.9977 90.6422 74.3555 94 78.4975 94ZM77.9141 28.9992C79.7359 28.9992 80.1163 29.8606 79.7359 31.0305H79.7336C78.9705 34.2512 71.6376 43.7351 71.6376 43.7351C71.0005 44.6715 70.7461 45.1408 71.6376 46.1929C71.9527 46.5974 72.6236 47.2008 73.3908 47.8909C74.1803 48.6009 75.0718 49.4027 75.783 50.1742C78.3655 52.8463 80.3133 55.0983 80.8587 56.6497C81.3537 58.2097 80.4921 58.9982 78.7734 58.9982H72.7581C71.1451 58.9982 70.3339 58.1691 68.5799 56.3766C67.837 55.6174 66.9251 54.6855 65.7116 53.5705C62.1414 50.4099 60.6129 49.9985 59.7192 49.9985C58.507 49.9985 58.1449 50.3135 58.1449 51.8927V56.849C58.1449 58.2097 57.6729 58.9982 53.8483 58.9982C47.4709 58.9982 40.4703 55.4433 35.4976 48.8864C28.0386 39.2846 25.9992 32.0248 25.9992 30.5634C25.9992 29.7427 26.3429 28.9992 28.0616 28.9992H34.0814C35.6191 28.9992 36.1965 29.6163 36.7671 31.1484C39.7118 39.021 44.673 45.9015 46.7124 45.9015C47.4778 45.9015 47.8284 45.5779 47.8284 43.793V35.6547C47.691 33.3386 46.8097 32.3367 46.157 31.5947C45.7541 31.1367 45.4383 30.7777 45.4383 30.2699C45.4383 29.6506 46.0135 28.9992 46.9691 28.9992H56.4286C57.7027 28.9992 58.1243 29.6249 58.1243 31.0305V41.978C58.1243 43.1502 58.6995 43.5594 59.0822 43.5594C59.8476 43.5594 60.4846 43.1502 61.887 41.8602C66.2203 37.4118 69.2796 30.5634 69.2796 30.5634C69.6622 29.7427 70.368 28.9992 71.8988 28.9992H77.9141Z" fill="#FF0040"/>
</svg>
