<svg width="57" height="57" viewBox="0 0 57 57" fill="none" xmlns="http://www.w3.org/2000/svg">
<path d="M16.625 42.4H16.275V42.75V45.125C16.275 45.8477 16.5621 46.5408 17.0731 47.0519C17.5842 47.5629 18.2773 47.85 19 47.85H38C38.7227 47.85 39.4158 47.5629 39.9269 47.0519C40.4379 46.5408 40.725 45.8477 40.725 45.125V42.75V42.4H40.375H16.625ZM35.1975 38.35H35.6925L35.5275 37.8833C35.0134 36.4293 34.0622 35.1699 32.8043 34.2777C31.5463 33.3856 30.0432 32.9043 28.501 32.9L28.5 33.25L28.499 32.9C26.9568 32.9043 25.4537 33.3856 24.1957 34.2777C22.9378 35.1699 21.9866 36.4293 21.4725 37.8833L21.3075 38.35H21.8025H35.1975ZM40.375 38.35H40.725V38V11.875C40.725 11.1523 40.4379 10.4592 39.9269 9.94813C39.4158 9.4371 38.7227 9.15 38 9.15H19C18.2773 9.15 17.5842 9.4371 17.0731 9.94813C16.5621 10.4592 16.275 11.1523 16.275 11.875V38V38.35H16.625H16.8625H17.1468L17.2051 38.0718C17.5398 36.4739 18.2102 34.9654 19.1718 33.6461C20.1335 32.3268 21.3644 31.2269 22.7832 30.4192L23.1127 30.2315L22.8993 29.9181C22.1378 28.7993 21.7288 27.4781 21.725 26.1248C21.7251 24.328 22.4389 22.6049 23.7094 21.3344C24.9799 20.0638 26.7032 19.35 28.5 19.35C30.2968 19.35 32.0201 20.0638 33.2906 21.3344C34.5611 22.6049 35.2749 24.328 35.275 26.1248C35.2712 27.4781 34.8622 28.7993 34.1007 29.9181L33.8873 30.2315L34.2168 30.4192C35.6356 31.2269 36.8665 32.3268 37.8282 33.6461C38.7898 34.9654 39.4602 36.4739 39.7949 38.0718L39.8532 38.35H40.1375H40.375ZM19 5.1H38C39.7968 5.1 41.5201 5.81379 42.7906 7.08435C44.0612 8.35491 44.775 10.0782 44.775 11.875V45.125C44.775 46.9218 44.0612 48.6451 42.7906 49.9156C41.5201 51.1862 39.7968 51.9 38 51.9H19C17.2032 51.9 15.4799 51.1862 14.2094 49.9156C12.9388 48.6451 12.225 46.9218 12.225 45.125V11.875C12.225 10.0782 12.9388 8.35491 14.2094 7.08435C15.4799 5.81379 17.2032 5.1 19 5.1ZM26.2342 24.6111C25.9348 25.0592 25.775 25.586 25.775 26.125C25.775 26.8477 26.0621 27.5408 26.5731 28.0519C27.0842 28.5629 27.7773 28.85 28.5 28.85C29.039 28.85 29.5658 28.6902 30.0139 28.3908C30.4621 28.0913 30.8113 27.6657 31.0176 27.1678C31.2238 26.6699 31.2778 26.122 31.1726 25.5934C31.0675 25.0648 30.808 24.5792 30.4269 24.1981C30.0458 23.817 29.5602 23.5575 29.0316 23.4524C28.503 23.3472 27.9551 23.4012 27.4572 23.6074C26.9593 23.8137 26.5337 24.1629 26.2342 24.6111ZM27.375 12.5663C27.708 12.3438 28.0995 12.225 28.5 12.225C29.0371 12.225 29.5521 12.4383 29.9319 12.8181C30.3117 13.1979 30.525 13.7129 30.525 14.25C30.525 14.6505 30.4062 15.042 30.1837 15.375C29.9612 15.708 29.645 15.9676 29.2749 16.1209C28.9049 16.2741 28.4978 16.3142 28.1049 16.2361C27.7121 16.158 27.3513 15.9651 27.0681 15.6819C26.7849 15.3987 26.592 15.0379 26.5139 14.6451C26.4358 14.2522 26.4759 13.8451 26.6291 13.4751C26.7824 13.105 27.042 12.7888 27.375 12.5663Z" fill="#FF004D" stroke="white" stroke-width="0.7"/>
</svg>
