<svg width="57" height="57" viewBox="0 0 57 57" fill="none" xmlns="http://www.w3.org/2000/svg">
<path d="M49.875 33.25H47.5V7.125C47.5 6.49511 47.2498 5.89102 46.8044 5.44562C46.359 5.00022 45.7549 4.75 45.125 4.75H11.875C11.2451 4.75 10.641 5.00022 10.1956 5.44562C9.75022 5.89102 9.5 6.49511 9.5 7.125V33.25H7.125C6.49511 33.25 5.89102 33.5002 5.44562 33.9456C5.00022 34.391 4.75 34.9951 4.75 35.625C4.75 36.2549 5.00022 36.859 5.44562 37.3044C5.89102 37.7498 6.49511 38 7.125 38H26.125V40.7313L15.3187 47.8563C14.8754 48.1307 14.5347 48.5434 14.3492 49.0306C14.1637 49.5179 14.1437 50.0527 14.2923 50.5525C14.4408 51.0522 14.7498 51.4892 15.1713 51.796C15.5929 52.1028 16.1038 52.2623 16.625 52.25C17.0919 52.2553 17.5488 52.1141 17.9313 51.8462L26.125 46.4312V49.875C26.125 50.5049 26.3752 51.109 26.8206 51.5544C27.266 51.9998 27.8701 52.25 28.5 52.25C29.1299 52.25 29.734 51.9998 30.1794 51.5544C30.6248 51.109 30.875 50.5049 30.875 49.875V46.4312L39.0688 51.8462C39.4512 52.1141 39.9081 52.2553 40.375 52.25C40.8824 52.2461 41.3752 52.0798 41.7812 51.7754C42.1873 51.471 42.4851 51.0446 42.6312 50.5587C42.7772 50.0727 42.7638 49.5527 42.5928 49.075C42.4219 48.5972 42.1024 48.1868 41.6812 47.9038L30.875 40.7788V38H49.875C50.5049 38 51.109 37.7498 51.5544 37.3044C51.9998 36.859 52.25 36.2549 52.25 35.625C52.25 34.9951 51.9998 34.391 51.5544 33.9456C51.109 33.5002 50.5049 33.25 49.875 33.25ZM42.75 33.25H14.25V9.5H42.75V33.25ZM21.375 28.5C21.7662 28.498 22.1508 28.3994 22.4947 28.2129C22.8386 28.0265 23.1311 27.758 23.3463 27.4312L26.505 22.6812L29.1887 25.3887C29.4379 25.6395 29.74 25.8314 30.0728 25.9506C30.4056 26.0697 30.7608 26.1131 31.1125 26.0775C31.4627 26.0391 31.7999 25.9233 32.0998 25.7384C32.3996 25.5536 32.6546 25.3043 32.8463 25.0087L37.5962 17.8838C37.876 17.3623 37.9509 16.7552 37.8065 16.1813C37.662 15.6074 37.3085 15.1082 36.8152 14.7813C36.322 14.4544 35.7244 14.3235 35.1396 14.4141C34.5548 14.5047 34.025 14.8104 33.6537 15.2712L30.495 20.0213L27.8113 17.3138C27.5621 17.063 27.26 16.8711 26.9272 16.7519C26.5944 16.6328 26.2392 16.5894 25.8875 16.625C25.5373 16.6634 25.2001 16.7792 24.9002 16.9641C24.6004 17.1489 24.3454 17.3982 24.1537 17.6937L19.4038 24.8188C19.06 25.3424 18.937 25.9805 19.0616 26.5944C19.1861 27.2082 19.5481 27.748 20.0687 28.0963C20.4512 28.3641 20.9081 28.5053 21.375 28.5Z" fill="#FF004D"/>
</svg>
