<svg width="57" height="57" viewBox="0 0 57 57" fill="none" xmlns="http://www.w3.org/2000/svg">
<path d="M29.2125 29.0225C30.4797 27.9256 31.4962 26.5688 32.1928 25.0444C32.8895 23.52 33.25 21.8636 33.25 20.1875C33.25 17.0381 31.9989 14.0176 29.7719 11.7906C27.5449 9.56361 24.5244 8.3125 21.375 8.3125C18.2256 8.3125 15.2051 9.56361 12.9781 11.7906C10.7511 14.0176 9.5 17.0381 9.5 20.1875C9.49998 21.8636 9.86053 23.52 10.5572 25.0444C11.2538 26.5688 12.2703 27.9256 13.5375 29.0225C10.2128 30.528 7.39211 32.9591 5.41258 36.0253C3.43305 39.0915 2.3785 42.6629 2.375 46.3125C2.375 46.9424 2.62522 47.5465 3.07062 47.9919C3.51602 48.4373 4.12011 48.6875 4.75 48.6875C5.37989 48.6875 5.98398 48.4373 6.42938 47.9919C6.87478 47.5465 7.125 46.9424 7.125 46.3125C7.125 42.5332 8.62634 38.9086 11.2987 36.2362C13.9711 33.5638 17.5957 32.0625 21.375 32.0625C25.1543 32.0625 28.7789 33.5638 31.4513 36.2362C34.1237 38.9086 35.625 42.5332 35.625 46.3125C35.625 46.9424 35.8752 47.5465 36.3206 47.9919C36.766 48.4373 37.3701 48.6875 38 48.6875C38.6299 48.6875 39.234 48.4373 39.6794 47.9919C40.1248 47.5465 40.375 46.9424 40.375 46.3125C40.3715 42.6629 39.3169 39.0915 37.3374 36.0253C35.3579 32.9591 32.5372 30.528 29.2125 29.0225ZM21.375 27.3125C19.9658 27.3125 18.5883 26.8946 17.4166 26.1117C16.2449 25.3288 15.3316 24.216 14.7924 22.9141C14.2531 21.6122 14.112 20.1796 14.3869 18.7975C14.6618 17.4154 15.3404 16.1458 16.3369 15.1494C17.3333 14.1529 18.6029 13.4743 19.985 13.1994C21.3671 12.9245 22.7997 13.0656 24.1016 13.6049C25.4035 14.1441 26.5163 15.0574 27.2992 16.2291C28.0821 17.4008 28.5 18.7783 28.5 20.1875C28.5 22.0772 27.7493 23.8894 26.4131 25.2256C25.0769 26.5618 23.2647 27.3125 21.375 27.3125ZM44.5075 28.0725C46.0274 26.3609 47.0203 24.2465 47.3665 21.9838C47.7128 19.7211 47.3977 17.4066 46.4592 15.3187C45.5207 13.2309 43.9988 11.4589 42.0766 10.2159C40.1545 8.97287 37.914 8.31189 35.625 8.3125C34.9951 8.3125 34.391 8.56272 33.9456 9.00812C33.5002 9.45352 33.25 10.0576 33.25 10.6875C33.25 11.3174 33.5002 11.9215 33.9456 12.3669C34.391 12.8123 34.9951 13.0625 35.625 13.0625C37.5147 13.0625 39.3269 13.8132 40.6631 15.1494C41.9993 16.4856 42.75 18.2978 42.75 20.1875C42.7466 21.4349 42.4158 22.6596 41.7906 23.7391C41.1655 24.8186 40.2678 25.715 39.1875 26.3387C38.8354 26.5419 38.5413 26.832 38.3334 27.1813C38.1254 27.5306 38.0107 27.9274 38 28.3337C37.9901 28.7369 38.083 29.136 38.27 29.4934C38.4569 29.8507 38.7318 30.1545 39.0688 30.3762L39.995 30.9937L40.3037 31.16C43.1666 32.5178 45.5817 34.6655 47.2648 37.35C48.9479 40.0345 49.8288 43.1441 49.8037 46.3125C49.8037 46.9424 50.054 47.5465 50.4994 47.9919C50.9448 48.4373 51.5489 48.6875 52.1787 48.6875C52.8086 48.6875 53.4127 48.4373 53.8581 47.9919C54.3035 47.5465 54.5537 46.9424 54.5537 46.3125C54.5732 42.6679 53.6603 39.0788 51.902 35.8864C50.1436 32.6939 47.5982 30.0041 44.5075 28.0725Z" fill="#FF004D"/>
</svg>
