<svg width="57" height="57" viewBox="0 0 57 57" fill="none" xmlns="http://www.w3.org/2000/svg">
<path d="M16.625 11H40.375C42.6566 11 44.2169 11.0032 45.3872 11.1605C46.5143 11.3121 47.0526 11.5814 47.4231 11.9519C47.7936 12.3224 48.0629 12.8607 48.2145 13.9878C48.3718 15.1581 48.375 16.7184 48.375 19V38.875H8.625V19C8.625 16.7184 8.62819 15.1581 8.78553 13.9878C8.93707 12.8607 9.20643 12.3224 9.5769 11.9519C9.94737 11.5814 10.4857 11.3121 11.6128 11.1605C12.7831 11.0032 14.3434 11 16.625 11Z" stroke="#FF004D" stroke-width="3"/>
<path d="M48.2917 38.875H8.70833C7.00546 38.875 5.625 40.2555 5.625 41.9583C5.625 44.5357 7.71434 46.625 10.2917 46.625H46.7083C49.2857 46.625 51.375 44.5357 51.375 41.9583C51.375 40.2555 49.9945 38.875 48.2917 38.875Z" stroke="#FF004D" stroke-width="3"/>
<path d="M36.8823 19.2793L31.1323 27.9043C30.7064 28.5432 29.7492 28.4836 29.4058 27.7969L27.5941 24.1735C27.2507 23.4867 26.2936 23.4271 25.8677 24.066L20.1176 32.6911" stroke="#FF004D" stroke-width="3" stroke-linecap="round" stroke-linejoin="round"/>
</svg>
