<svg width="47" height="48" viewBox="0 0 47 48" fill="none" xmlns="http://www.w3.org/2000/svg">
<path d="M37.1791 0.0757017C35.582 0.344863 34.3138 1.01216 33.0516 2.24021C32.2021 3.06452 31.7655 3.75424 31.3467 4.9094C30.7545 6.58044 30.928 8.58794 31.8133 10.2253C32.5371 11.5655 33.7575 12.6814 35.2529 13.3656C36.3058 13.8478 36.5092 13.8983 37.6218 13.9656C39.877 14.1058 41.1751 13.831 42.6766 12.9001C43.2389 12.5525 44.3575 11.5095 44.7284 10.9824C45.3625 10.0908 45.8052 9.07019 45.9428 8.1842C46.0564 7.47765 45.9906 5.79539 45.8351 5.25706C45.4343 3.90004 44.531 2.57105 43.4064 1.68506C42.1621 0.703745 41.1452 0.266357 39.6617 0.0757017C38.902 -0.0252342 37.7474 -0.0252342 37.1791 0.0757017ZM40.0146 1.8645C41.0854 2.14488 42.4074 2.92433 42.9458 3.59163C43.4303 4.19163 43.9029 5.1337 44.1242 5.93557C44.2917 6.52437 44.2618 7.61783 44.0704 8.31317C43.5619 10.0964 42.1921 11.5095 40.3975 12.0814C37.3825 13.0403 34.1523 11.5599 33.0875 8.72813L32.8721 8.15055V7.02904C32.8781 5.76174 32.92 5.56548 33.3327 4.79164C33.6857 4.13556 33.9967 3.7206 34.5112 3.23835C35.3487 2.4589 36.2699 1.98226 37.3885 1.75796C38.0226 1.62899 39.3147 1.68506 40.0146 1.8645Z" fill="#FF004D"/>
<path d="M38.3968 3.06725C38.3693 3.10815 38.3496 3.24252 38.3457 3.37105C38.3457 3.50542 38.3339 3.71574 38.3181 3.84427C38.2906 4.06627 38.2788 4.0838 38.1017 4.14806C37.6886 4.29996 37.2597 4.86081 37.1731 5.3574C37.1102 5.72546 37.118 6.30968 37.1889 6.66022C37.2754 7.0867 37.4958 7.3496 38.2276 7.89292C38.5936 8.16751 38.8651 8.40704 38.9123 8.50051C39.0775 8.82768 38.9674 9.41774 38.7037 9.61053C38.5424 9.73322 37.9365 9.75659 37.543 9.65727C37.1417 9.55211 37.1574 9.54627 37.1023 9.7858C37.0748 9.90265 37.0433 10.1363 37.0275 10.2999L37 10.592L37.1535 10.6855C37.2912 10.7731 37.5194 10.8374 38.1332 10.9835L38.3299 11.0302L38.3496 11.4976L38.3693 11.9649L38.6172 11.9825L38.8611 12V11.5443C38.8611 10.9776 38.9005 10.89 39.231 10.6504C39.5655 10.4168 39.8448 9.96691 39.9432 9.51122C40.0376 9.06721 40.0101 8.27267 39.892 7.92798C39.7779 7.59497 39.53 7.28533 39.1995 7.05749C39.0461 6.95233 38.7667 6.75953 38.5778 6.631C38.3181 6.4499 38.2158 6.35058 38.1529 6.19868C38.027 5.88904 38.0466 5.66704 38.2355 5.38661L38.4008 5.14124L38.7785 5.17629C38.987 5.19966 39.2585 5.2464 39.3845 5.28145C39.6717 5.36909 39.7189 5.31651 39.7897 4.79655C39.8527 4.35838 39.837 4.32333 39.4946 4.22401C39.3727 4.18312 39.1917 4.13054 39.0933 4.10133L38.9123 4.0429L38.869 3.59305C38.8415 3.28926 38.806 3.12568 38.7588 3.0731C38.6723 2.97962 38.4598 2.97378 38.3968 3.06725Z" fill="#FF004D"/>
<path d="M0.889448 5.05451C0.783421 5.09591 0.536025 5.26149 0.347533 5.42116L0 5.71685V26.474V47.2371L0.382875 47.6156L0.76575 47.9941L23.373 48H45.9744L46.3161 47.8344C46.8168 47.586 46.964 47.3377 46.9935 46.6812C47.0112 46.2259 46.9994 46.1372 46.8757 45.9006C46.6695 45.5103 46.3809 45.3861 45.4973 45.2974C44.9966 45.2501 38.8117 45.2265 23.7265 45.2087L2.65656 45.1851L2.633 25.9536C2.61533 11.9203 2.59177 6.58025 2.54465 6.20768C2.44451 5.46847 2.36793 5.3088 2.0204 5.15504C1.67287 4.99537 1.16041 4.95398 0.889448 5.05451Z" fill="#FF004D"/>
<path d="M23.5499 12.0529C23.1842 12.1109 22.9011 12.3311 22.6651 12.7427C22.5058 13.0151 22.4823 13.1195 22.4823 13.4672C22.4823 13.815 22.5117 13.9194 22.6651 14.1918C22.7831 14.3947 22.9423 14.5744 23.1193 14.6961C23.3788 14.87 23.5617 14.9221 24.3108 15.0439L24.6058 15.0902L21.214 17.8725C16.1707 22.0054 13.2745 24.3935 11.0389 26.2773C7.85359 28.9611 8.00106 28.8104 8.00106 29.419C8.00106 30.016 8.36088 30.5899 8.89765 30.8507C9.26927 31.0362 9.70577 31.0478 10.0184 30.8913C10.3664 30.7232 11.2689 30.0044 15.3095 26.6889C20.6242 22.33 25.2664 18.5333 25.9625 17.9711L26.5523 17.5016L26.5818 18.0928C26.6054 18.4348 26.6585 18.771 26.7116 18.8927C27.0655 19.6868 28.0388 20.0404 28.8115 19.6636C29.1713 19.4897 29.307 19.3332 29.4604 18.9275C29.6609 18.4 29.9263 16.2205 29.9853 14.6207C30.0148 13.7918 30.003 13.589 29.9205 13.3455C29.8202 13.0383 29.5193 12.7079 29.2008 12.5514C28.8292 12.3659 27.3958 12.1862 25.2546 12.0471C24.1988 11.9834 23.9628 11.9834 23.5499 12.0529Z" fill="#FF004D"/>
<path d="M34.0391 30.4557C34.0614 37.3072 34.0837 42.9172 34.0893 42.9231C34.0949 42.9291 35.8758 42.9468 38.053 42.9645L42 43V30.503V18H37.9972H34L34.0391 30.4557Z" fill="#FF004D"/>
<path d="M20.0377 34.4551C20.0628 39.1018 20.0879 42.9102 20.0942 42.9162C20.1068 42.9222 22.1103 42.9461 24.5597 42.9641L29 43V34.497V26H24.4969H20L20.0377 34.4551Z" fill="#FF004D"/>
<path d="M7.01037 35.086C6.98088 35.1792 7.0202 42.9068 7.05461 42.9418C7.06444 42.9476 8.62752 42.9651 10.5347 42.9767L14 43V39.011V35.022L10.5199 35.0045C7.3397 34.9928 7.03986 34.9987 7.01037 35.086Z" fill="#FF004D"/>
</svg>
