<svg width="99" height="99" viewBox="0 0 99 99" fill="none" xmlns="http://www.w3.org/2000/svg">
<path d="M52.9472 81.0955H11.2379C8.78788 81.0955 6.43817 80.1197 4.70573 78.3828C2.97328 76.6458 2 74.29 2 71.8336V16.2619C2 11.1216 6.11088 7 11.2379 7H38.9517L48.1897 16.2619H85.1414C87.5914 16.2619 89.9411 17.2377 91.6736 18.9747C93.406 20.7116 94.3793 23.0675 94.3793 25.5239V69.5181L89.5756 64.6093C89.6218 63.9609 89.7603 63.2663 89.7603 62.5716C89.7603 49.7902 79.4139 39.4168 66.6655 39.4168C53.9172 39.4168 43.5707 49.7902 43.5707 62.5716C43.5707 70.1664 47.2659 76.8813 52.9472 81.0955ZM98.3978 86.6064L79.4139 67.5731C81.3076 62.7569 80.2453 57.1071 76.273 53.1708C72.1159 48.9566 65.8803 48.123 60.8456 50.4385L69.8064 59.4226L63.5708 65.7207L54.3791 56.6903C51.8848 61.7381 53.0396 67.9899 57.1043 72.204C58.9387 74.0803 61.2801 75.3779 63.8405 75.9374C66.4009 76.4969 69.0686 76.2938 71.5154 75.3531L90.4994 94.3401C91.3308 95.22 92.5779 95.22 93.4093 94.3401L98.213 89.5702C99.2292 88.7366 99.2292 87.2547 98.3978 86.6064Z" fill="#FF0040"/>
</svg>
