<svg width="57" height="57" viewBox="0 0 57 57" fill="none" xmlns="http://www.w3.org/2000/svg">
<path d="M46.6213 8.66777C46.3453 8.44457 46.0229 8.28605 45.6777 8.20385C45.3324 8.12165 44.9732 8.11786 44.6263 8.19277C42.0884 8.72464 39.4686 8.73142 36.928 8.21268C34.3875 7.69395 31.98 6.66069 29.8538 5.17652C29.4562 4.90072 28.9839 4.75293 28.5 4.75293C28.0162 4.75293 27.5438 4.90072 27.1463 5.17652C25.0201 6.66069 22.6126 7.69395 20.072 8.21268C17.5315 8.73142 14.9116 8.72464 12.3738 8.19277C12.0269 8.11786 11.6676 8.12165 11.3224 8.20385C10.9771 8.28605 10.6547 8.44457 10.3788 8.66777C10.1032 8.8913 9.88125 9.17373 9.72918 9.49431C9.57711 9.81489 9.49881 10.1655 9.50001 10.5203V28.214C9.4979 31.6192 10.3093 34.9756 11.8668 38.0037C13.4242 41.0318 15.6826 43.644 18.4538 45.6228L27.1225 51.7978C27.5247 52.0842 28.0062 52.2381 28.5 52.2381C28.9938 52.2381 29.4753 52.0842 29.8775 51.7978L38.5463 45.6228C41.3175 43.644 43.5758 41.0318 45.1332 38.0037C46.6907 34.9756 47.5021 31.6192 47.5 28.214V10.5203C47.5012 10.1655 47.4229 9.81489 47.2708 9.49431C47.1188 9.17373 46.8968 8.8913 46.6213 8.66777ZM42.75 28.214C42.7518 30.8616 42.1213 33.4713 40.9109 35.8259C39.7006 38.1806 37.9453 40.2122 35.7913 41.7515L28.5 46.9528L21.2088 41.7515C19.0547 40.2122 17.2995 38.1806 16.0891 35.8259C14.8787 33.4713 14.2482 30.8616 14.25 28.214V13.2515C19.229 13.6777 24.2156 12.5225 28.5 9.95027C32.7844 12.5225 37.771 13.6777 42.75 13.2515V28.214ZM32.1575 22.7753L25.7688 29.1878L23.655 27.0503C23.2078 26.603 22.6012 26.3518 21.9688 26.3518C21.3363 26.3518 20.7297 26.603 20.2825 27.0503C19.8353 27.4975 19.584 28.1041 19.584 28.7365C19.584 29.369 19.8353 29.9755 20.2825 30.4228L24.0825 34.2228C24.3033 34.4454 24.566 34.6221 24.8554 34.7426C25.1448 34.8632 25.4552 34.9253 25.7688 34.9253C26.0823 34.9253 26.3927 34.8632 26.6821 34.7426C26.9715 34.6221 27.2342 34.4454 27.455 34.2228L35.625 26.124C36.0722 25.6768 36.3235 25.0702 36.3235 24.4378C36.3235 23.8053 36.0722 23.1987 35.625 22.7515C35.1778 22.3043 34.5712 22.0531 33.9388 22.0531C33.3063 22.0531 32.6997 22.3043 32.2525 22.7515L32.1575 22.7753Z" fill="#FF004C"/>
</svg>
