<svg width="99" height="99" viewBox="0 0 99 99" fill="none" xmlns="http://www.w3.org/2000/svg">
<path d="M44.4875 36.5C44.4875 29.0412 38.5973 23 31.325 23C24.0527 23 18.1625 29.0412 18.1625 36.5C18.1625 43.9587 24.0527 50 31.325 50C38.5973 50 44.4875 43.9587 44.4875 36.5ZM5 70.25V73.625C5 75.4813 6.48078 77 8.29063 77H54.3594C56.1692 77 57.65 75.4813 57.65 73.625V70.25C57.65 61.2725 40.111 56.75 31.325 56.75C22.539 56.75 5 61.2725 5 70.25Z" fill="#FF0040"/>
<path d="M54.7282 34.6709C54.7947 33.2489 55.9326 32.111 57.3546 32.0445L71.5744 31.3794C72.3494 31.3419 73.1048 31.6352 73.6537 32.1842L93.9364 52.4671C94.4536 52.9844 94.7443 53.6858 94.7443 54.4174C94.7443 55.1491 94.4537 55.8506 93.9364 56.3679L79.0517 71.2525C78.5133 71.791 77.8073 72.0603 77.1013 72.0603C76.3955 72.0603 75.6895 71.7909 75.1508 71.2525L54.8682 50.9699C54.3193 50.421 54.027 49.6661 54.0632 48.8906L54.7282 34.6709ZM59.9241 41.8695C61.2024 43.1478 63.2751 43.1478 64.5534 41.8695C65.8317 40.5912 65.8317 38.5185 64.5534 37.2402C63.2751 35.9619 61.2024 35.9619 59.9241 37.2402C58.6458 38.5185 58.6456 40.5911 59.9241 41.8695Z" fill="#FF0040"/>
</svg>
