<svg width="99" height="99" viewBox="0 0 99 99" fill="none" xmlns="http://www.w3.org/2000/svg">
<path fill-rule="evenodd" clip-rule="evenodd" d="M49.5 90C27.1313 90 9 71.8687 9 49.5C9 27.1313 27.1313 9 49.5 9C71.8687 9 90 27.1313 90 49.5C90 71.8687 71.8687 90 49.5 90ZM67.6972 44.4881C68.492 39.1826 64.4496 36.3299 58.9264 34.4264L60.7185 27.2377L56.3445 26.1492L54.5979 33.1481C53.4488 32.8596 52.2692 32.5912 51.0922 32.3229L52.8514 25.2785L48.4774 24.1875L46.6852 31.3737C45.7335 31.156 44.7969 30.9434 43.8908 30.7156L43.8958 30.6928L37.8613 29.1867L36.6969 33.8594C36.6969 33.8594 39.9445 34.6036 39.8762 34.6492C41.6481 35.0921 41.967 36.2641 41.9138 37.1956L39.8737 45.3842C39.9952 45.4146 40.1521 45.4601 40.3293 45.5285L39.8661 45.4146L37.0058 56.8862C36.7881 57.4228 36.2388 58.2303 34.9985 57.924C35.044 57.9873 31.8192 57.1317 31.8192 57.1317L29.6474 62.1385L35.3427 63.5586C36.4008 63.8243 37.4386 64.1028 38.4587 64.3635L36.6488 71.6332L41.0203 72.7217L42.8124 65.5329C44.0072 65.8544 45.1665 66.1531 46.3005 66.4366L44.5134 73.595L48.8874 74.6834L50.6973 67.4288C58.1594 68.8413 63.7687 68.2718 66.1303 61.5234C68.0338 56.0914 66.0367 52.9552 62.1107 50.9124C64.971 50.2543 67.1226 48.3736 67.6972 44.4881ZM57.6987 58.5062C56.3496 63.9408 47.1991 61.002 44.2325 60.2654L46.6372 50.634C49.6038 51.3757 59.1137 52.8413 57.6987 58.5062ZM59.0529 44.4097C57.8202 49.3532 50.2062 46.8397 47.7382 46.2246L49.9151 37.4918C52.3831 38.1068 60.3388 39.2535 59.0529 44.4097Z" fill="#FF0040"/>
</svg>
