<svg width="49" height="49" viewBox="0 0 49 49" fill="none" xmlns="http://www.w3.org/2000/svg">
<path d="M22.7069 0.037674C16.1024 0.520561 9.96843 3.67139 5.70083 8.76585C1.18385 14.1621 -0.787052 21.2605 0.286887 28.2423C0.656933 30.6527 1.38496 32.9826 2.45488 35.1918C5.00096 40.4512 9.41738 44.6765 14.8032 47.0064C22.8316 50.4711 32.1994 49.3645 39.178 44.1172C40.1232 43.4089 40.8512 42.7651 41.8125 41.8033C43.1117 40.5076 44.0047 39.4251 44.9298 38.0207C48.5418 32.552 49.8128 25.9284 48.4895 19.4859C46.9811 12.1581 42.0981 5.84438 35.3568 2.51247C32.5413 1.12014 29.6131 0.31131 26.4234 0.0537682C25.615 -0.0106163 23.5154 -0.0186615 22.7069 0.037674ZM26.2746 3.87662C30.1883 4.19854 34.0094 5.68745 37.1467 8.11797C43.1721 12.7819 46.1445 20.3591 44.9057 27.8801C44.0449 33.1033 41.165 37.8396 36.9054 41.0428C35.8315 41.8476 34.8782 42.4311 33.6273 43.0508C31.2863 44.2017 29.0258 44.8375 26.3068 45.1111C25.5104 45.1876 23.3344 45.1755 22.4857 45.087C18.6122 44.6846 15.1491 43.3325 12.068 41.0186C11.2193 40.3828 10.6482 39.8798 9.85581 39.0871C5.1176 34.3387 3.0019 27.691 4.10802 21.0392C4.647 17.7998 5.95825 14.7456 7.96133 12.0656C9.0594 10.5928 10.6039 9.05558 12.1002 7.93287C16.1989 4.86251 21.1181 3.45409 26.2746 3.87662Z" fill="#FF004D"/>
<path d="M23.5229 7.01978C20.4546 7.20926 17.5087 8.17636 14.9735 9.82636C11.9408 11.8 9.56753 14.6816 8.26835 17.9698C7.15081 20.7961 6.76382 23.7842 7.13897 26.7092C7.32456 28.1698 7.67206 29.504 8.22491 30.9132C8.70667 32.1369 9.20818 33.0961 9.97821 34.2487C12.154 37.5132 15.321 39.9053 19.0962 41.1408C22.2276 42.1671 25.671 42.2776 28.8538 41.4526C35.7051 39.6803 40.7992 34.0277 41.8259 27.0645C41.976 26.0619 42.0036 25.6513 41.9996 24.4592C41.9996 23.5908 41.9799 23.1171 41.9286 22.6829C41.6758 20.4961 41.1427 18.6685 40.2029 16.7619C37.4426 11.1448 31.8945 7.4461 25.6158 7.03163C25.0708 6.9961 23.9967 6.9882 23.5229 7.01978ZM24.8141 13.6671C25.3196 13.8014 25.75 13.9198 25.7658 13.9356C25.7816 13.9553 25.6158 14.654 25.3946 15.4948C25.1735 16.3356 24.9997 17.0264 25.0076 17.0343C25.0313 17.05 26.524 17.4093 26.5319 17.3974C26.5358 17.3935 26.7175 16.7066 26.9386 15.8737C27.1598 15.0369 27.3454 14.35 27.3493 14.3461C27.3651 14.3303 29.2092 14.8198 29.2408 14.8474C29.2566 14.8632 29.0947 15.5461 28.8775 16.3711C28.6603 17.1921 28.4787 17.8987 28.4708 17.9382C28.4629 17.9935 28.5458 18.0408 28.8933 18.179C30.923 18.9764 32.0445 20.0264 32.2736 21.3448C32.3446 21.7474 32.2973 22.4856 32.1748 22.9553C31.8589 24.1711 31.1363 24.9211 29.9516 25.2724L29.7858 25.3198L30.0069 25.454C30.7296 25.8882 31.2271 26.3816 31.4996 26.9382C31.7523 27.4553 31.8115 27.7158 31.8115 28.3079C31.8115 29.8671 30.9388 31.5724 29.7897 32.2553C29.1145 32.654 28.5182 32.804 27.4836 32.8356C26.6701 32.8592 26.1883 32.8237 25.2485 32.6658C24.9129 32.6106 24.6364 32.5711 24.6285 32.579C24.6206 32.5869 24.4311 33.2856 24.21 34.1303C23.9888 34.979 23.7914 35.6855 23.7756 35.7053C23.7519 35.729 21.9038 35.2829 21.8564 35.2395C21.8525 35.2355 22.0341 34.5329 22.2592 33.6763C22.4843 32.8198 22.6581 32.1053 22.6423 32.0895C22.6265 32.0737 22.4369 32.0184 22.2197 31.9632C22.0025 31.9079 21.6748 31.8171 21.4892 31.7658C21.3075 31.7106 21.1535 31.6711 21.1456 31.675C21.1417 31.6829 20.9561 32.3777 20.7349 33.2224C20.5138 34.0711 20.3203 34.7777 20.3045 34.7934C20.2729 34.829 18.4485 34.3671 18.4051 34.3158C18.3933 34.3 18.567 33.5934 18.7921 32.7487C19.0132 31.9 19.1988 31.1895 19.1988 31.1658C19.1988 31.1145 19.187 31.1106 16.948 30.5184C15.9923 30.2658 15.3526 30.0763 15.3566 30.0487C15.3645 30.025 15.5817 29.5277 15.8423 28.9474L16.3201 27.8856L17.0191 28.079C17.8286 28.304 18.0892 28.3277 18.3024 28.1934C18.3814 28.1461 18.4801 28.0474 18.5275 27.9724C18.6262 27.8106 20.8969 19.2092 20.8969 18.9921C20.8969 18.5974 20.6007 18.2106 20.1821 18.0566C20.0636 18.0092 19.6609 17.8987 19.2857 17.804C18.9106 17.7092 18.6105 17.6106 18.6184 17.5908C18.6262 17.5671 18.7447 17.1132 18.8829 16.5724C19.0685 15.8619 19.1514 15.5974 19.1949 15.5974C19.2265 15.5974 19.7951 15.7395 20.4585 15.9171C22.5159 16.4619 23.0056 16.5843 23.0332 16.5527C23.049 16.5369 23.2425 15.8264 23.4636 14.9737C23.6887 14.125 23.8783 13.4264 23.8822 13.4264C23.8901 13.4264 24.3087 13.5329 24.8141 13.6671Z" fill="#FF004D"/>
<path d="M24.1647 19.0123C24.1554 19.0395 23.8936 19.9975 23.585 21.1408C23.2765 22.2841 23.01 23.2512 23.0007 23.2873C22.9586 23.4184 24.8847 23.8703 25.8758 23.9697C27.6242 24.1369 28.648 23.6127 28.9425 22.3971C29.251 21.1272 28.3161 20.1376 26.1843 19.4688C25.3054 19.1976 24.1928 18.94 24.1647 19.0123Z" fill="#FF004D"/>
<path d="M23.077 25.0024C23.077 25.0105 22.8277 25.9729 22.5231 27.1487C22.2223 28.3205 21.9849 29.295 22.0007 29.3071C22.0403 29.3474 23.1483 29.6494 23.6785 29.7662C24.462 29.9353 24.9328 29.9957 25.5501 29.9997C26.8757 30.0118 27.5879 29.6252 27.9084 28.7152C28.0271 28.385 28.0311 27.7971 27.9164 27.5071C27.6117 26.7219 26.7926 26.1138 25.372 25.6186C24.826 25.4293 23.077 24.9622 23.077 25.0024Z" fill="#FF004D"/>
</svg>
