<svg width="58" height="58" viewBox="0 0 58 58" fill="none" xmlns="http://www.w3.org/2000/svg">
<path d="M48.3337 8.4585H9.66699C7.74417 8.4585 5.90011 9.22233 4.54047 10.582C3.18083 11.9416 2.41699 13.7857 2.41699 15.7085V47.1252C2.41699 47.7661 2.6716 48.3808 3.12482 48.834C3.57803 49.2872 4.19272 49.5418 4.83366 49.5418H14.5003C14.8984 49.5398 15.2897 49.4394 15.6397 49.2497C15.9896 49.06 16.2872 48.7868 16.5062 48.4543L20.6387 42.2918H37.362L41.4945 48.4543C41.7134 48.7868 42.0111 49.06 42.361 49.2497C42.7109 49.4394 43.1023 49.5398 43.5003 49.5418H53.167C53.8079 49.5418 54.4226 49.2872 54.8758 48.834C55.329 48.3808 55.5837 47.7661 55.5837 47.1252V15.7085C55.5837 13.7857 54.8198 11.9416 53.4602 10.582C52.1005 9.22233 50.2565 8.4585 48.3337 8.4585ZM50.7503 44.7085H44.8053L40.6728 38.6668C40.4683 38.3119 40.1769 38.0149 39.826 37.8035C39.4752 37.5921 39.0763 37.4734 38.667 37.4585H19.3337C18.9356 37.4606 18.5442 37.5609 18.1943 37.7506C17.8444 37.9403 17.5467 38.2136 17.3278 38.546L13.1953 44.7085H7.25033V32.6252H50.7503V44.7085ZM16.917 27.7918V25.3752C16.917 24.7342 17.1716 24.1195 17.6248 23.6663C18.078 23.2131 18.6927 22.9585 19.3337 22.9585H24.167C24.8079 22.9585 25.4226 23.2131 25.8758 23.6663C26.329 24.1195 26.5837 24.7342 26.5837 25.3752V27.7918H16.917ZM31.417 27.7918V25.3752C31.417 24.7342 31.6716 24.1195 32.1248 23.6663C32.578 23.2131 33.1927 22.9585 33.8337 22.9585H38.667C39.3079 22.9585 39.9226 23.2131 40.3758 23.6663C40.829 24.1195 41.0837 24.7342 41.0837 25.3752V27.7918H31.417ZM50.7503 27.7918H45.917V25.3752C45.917 23.4523 45.1532 21.6083 43.7935 20.2486C42.4339 18.889 40.5898 18.1252 38.667 18.1252H33.8337C32.0452 18.1358 30.3238 18.8072 29.0003 20.0102C27.6769 18.8072 25.9555 18.1358 24.167 18.1252H19.3337C17.4108 18.1252 15.5668 18.889 14.2071 20.2486C12.8475 21.6083 12.0837 23.4523 12.0837 25.3752V27.7918H7.25033V15.7085C7.25033 15.0676 7.50494 14.4529 7.95815 13.9997C8.41136 13.5464 9.02605 13.2918 9.66699 13.2918H48.3337C48.9746 13.2918 49.5893 13.5464 50.0425 13.9997C50.4957 14.4529 50.7503 15.0676 50.7503 15.7085V27.7918Z" fill="#FF004C"/>
</svg>
