<svg width="57" height="57" viewBox="0 0 57 57" fill="none" xmlns="http://www.w3.org/2000/svg">
<path d="M48.7821 8.21653C47.1202 6.55878 45.0042 5.43078 42.7015 4.97501C40.3988 4.51925 38.0127 4.75616 35.8445 5.65583C33.6764 6.55551 31.8236 8.07757 30.52 10.0298C29.2165 11.9819 28.5208 14.2767 28.5208 16.624C28.5208 18.9714 29.2165 21.2661 30.52 23.2183C31.8236 25.1705 33.6764 26.6926 35.8445 27.5922C38.0127 28.4919 40.3988 28.7288 42.7015 28.273C45.0042 27.8173 47.1202 26.6893 48.7821 25.0315C49.888 23.9284 50.7654 22.618 51.364 21.1753C51.9627 19.7326 52.2708 18.186 52.2708 16.624C52.2708 15.0621 51.9627 13.5154 51.364 12.0727C50.7654 10.63 49.888 9.31961 48.7821 8.21653V8.21653ZM35.3396 11.589C36.6745 10.2524 38.4856 9.50069 40.3746 9.49903C41.4282 9.50884 42.4664 9.75218 43.4146 10.2115L33.9146 19.7115C33.2807 18.377 33.0773 16.8784 33.3326 15.4232C33.5879 13.9679 34.2893 12.6281 35.3396 11.589V11.589ZM45.4096 21.659C44.3689 22.6915 43.035 23.3777 41.5899 23.6243C40.1448 23.8708 38.6588 23.6655 37.3346 23.0365L46.8346 13.5365C47.4685 14.8711 47.6719 16.3697 47.4166 17.8249C47.1613 19.2801 46.46 20.62 45.4096 21.659V21.659ZM18.9996 23.749C17.1445 23.7416 15.3062 24.1008 13.5903 24.8059C11.8744 25.511 10.3148 26.5481 9.00086 27.8578V27.8578C6.99025 29.8425 5.61499 32.3801 5.0498 35.1482C4.4846 37.9163 4.75497 40.79 5.82657 43.404C6.89817 46.0181 8.72262 48.2547 11.0681 49.8296C13.4137 51.4045 16.1744 52.2466 18.9996 52.249C22.662 52.2472 26.183 50.8354 28.8321 48.3065L29.1171 48.1165C29.1671 48.0261 29.2226 47.9388 29.2834 47.8553C31.2141 45.8392 32.5103 43.3004 33.0108 40.5542C33.5114 37.8079 33.1943 34.9751 32.0989 32.4075C31.0036 29.8399 29.1782 27.6505 26.8494 26.1112C24.5207 24.572 21.7911 23.7506 18.9996 23.749V23.749ZM12.2784 44.7203C10.8084 43.234 9.86979 41.3044 9.60787 39.2304C9.34595 37.1565 9.77538 35.0541 10.8296 33.249L23.7496 46.169C21.9445 47.2233 19.8421 47.6527 17.7682 47.3908C15.6943 47.1288 13.7647 46.1902 12.2784 44.7203V44.7203ZM27.1696 42.749L14.2496 29.829C15.6882 28.9752 17.3268 28.5164 18.9996 28.499C20.6623 28.509 22.2933 28.9553 23.7296 29.7931C25.1658 30.631 26.357 31.8312 27.184 33.2737C28.011 34.7162 28.445 36.3505 28.4425 38.0133C28.4399 39.6761 28.001 41.309 27.1696 42.749Z" fill="#FF004C"/>
</svg>
