<svg width="99" height="99" viewBox="0 0 99 99" fill="none" xmlns="http://www.w3.org/2000/svg">
<path d="M23 36.4473H28.2894L35.3244 69.2946C35.5824 70.4975 36.2518 71.5729 37.2172 72.3356C38.1826 73.0983 39.3837 73.5006 40.6138 73.4732H66.479C67.6828 73.4713 68.85 73.0588 69.7876 72.3038C70.7253 71.5489 71.3774 70.4967 71.6362 69.321L76 49.6708H31.1193" stroke="#FF0040" stroke-width="4" stroke-linecap="round" stroke-linejoin="round"/>
<circle cx="39.9306" cy="82.8751" r="5.15278" fill="#FF0040"/>
<circle cx="66.4306" cy="82.8751" r="5.15278" fill="#FF0040"/>
<path d="M53.4142 10C56.6314 10 59.7168 11.2678 61.9918 13.5245C64.2667 15.7812 65.5447 18.842 65.5447 22.0334H67.4059C67.8424 22.0334 68.2628 22.1969 68.5831 22.491C68.9034 22.7852 69.1 23.1884 69.1336 23.6201L70.5996 42.5298C70.635 42.9844 70.4869 43.4342 70.1879 43.7805C69.889 44.1267 69.4636 44.341 69.0053 44.3761L68.8719 44.3812H37.9565C37.4969 44.3812 37.0561 44.2001 36.7311 43.8777C36.4061 43.5553 36.2236 43.1181 36.2236 42.6622L36.2288 42.5298L37.6948 23.6201C37.7284 23.1884 37.925 22.7852 38.2453 22.491C38.5656 22.1969 38.986 22.0334 39.4225 22.0334H41.2837C41.2837 18.842 42.5617 15.7812 44.8366 13.5245C47.1116 11.2678 50.197 10 53.4142 10ZM56.8801 28.9097H49.9483V32.3478H56.8801V28.9097ZM53.4142 13.4381C51.1814 13.4383 49.0348 14.2934 47.4221 15.8253C45.8094 17.3572 44.8551 19.4475 44.7582 21.6604L44.7496 22.0334H62.0788C62.0787 19.8185 61.2166 17.6891 59.6724 16.0893C58.1281 14.4895 56.021 13.5428 53.7902 13.4467L53.4142 13.4381Z" fill="#FF0040"/>
</svg>
