<svg width="57" height="57" viewBox="0 0 57 57" fill="none" xmlns="http://www.w3.org/2000/svg">
<path d="M42.7309 4H14.2693C11.9923 4 10 5.93105 10 8.13795V12.8276C10 13.9309 10.5692 14.7586 11.1384 15.5862L22.5231 28.5517C22.8077 28.8275 22.8077 29.1034 22.8077 29.3792V47.862C22.8077 50.0689 24.8 52 27.0769 52C27.6461 52 28.5001 51.7242 29.0693 51.1725L31.9154 49.7931C33.3386 49.2414 34.1923 47.862 34.1923 46.207V29.1035C34.1923 28.8277 34.1923 28.5518 34.4769 28.276L45.8616 15.3105C46.7154 14.4829 47 13.6553 47 12.5519V8.13795C47.0002 5.93105 45.0077 4 42.7309 4V4ZM14.2693 6.75858H42.7309C43.5847 6.75858 44.154 7.31026 44.154 8.13795V12.2759H12.8461V8.13795C12.8461 7.31026 13.4153 6.75858 14.2693 6.75858ZM32.4846 26.3448C31.6308 27.1723 31.3462 28 31.3462 29.1034V46.2068C31.3462 46.4827 31.0616 47.0344 30.4924 47.3102L27.6463 48.6896C26.7925 49.2413 25.654 48.6896 25.654 47.5862V29.1034C25.654 28 25.0848 27.1723 24.5156 26.3448L14.5851 15.0345H42.4177L32.4846 26.3448V26.3448Z" fill="#FF004D"/>
</svg>
