<svg width="57" height="57" viewBox="0 0 57 57" fill="none" xmlns="http://www.w3.org/2000/svg">
<path d="M16.625 11H40.375C42.6566 11 44.2169 11.0032 45.3872 11.1605C46.5143 11.3121 47.0526 11.5814 47.4231 11.9519C47.7936 12.3224 48.0629 12.8607 48.2145 13.9878C48.3718 15.1581 48.375 16.7184 48.375 19V38.875H8.625V19C8.625 16.7184 8.62819 15.1581 8.78553 13.9878C8.93707 12.8607 9.20643 12.3224 9.5769 11.9519C9.94737 11.5814 10.4857 11.3121 11.6128 11.1605C12.7831 11.0032 14.3434 11 16.625 11Z" stroke="#FF004D" stroke-width="3"/>
<path d="M48.2917 38.875H8.70833C7.00546 38.875 5.625 40.2555 5.625 41.9583C5.625 44.5357 7.71434 46.625 10.2917 46.625H46.7083C49.2857 46.625 51.375 44.5357 51.375 41.9583C51.375 40.2555 49.9945 38.875 48.2917 38.875Z" stroke="#FF004D" stroke-width="3"/>
<path d="M21.7692 30.5385L16.7071 25.4763C16.3166 25.0858 16.3166 24.4526 16.7071 24.0621L21.7692 19" stroke="#FF004D" stroke-width="3" stroke-linecap="round" stroke-dasharray="0.2 0.2"/>
<path d="M26.7695 29.0996L30.5504 21.3076" stroke="#FF004D" stroke-width="3" stroke-linecap="round"/>
<path d="M35.2308 30.5385L40.2929 25.4763C40.6834 25.0858 40.6834 24.4526 40.2929 24.0621L35.2308 19" stroke="#FF004D" stroke-width="3" stroke-linecap="round" stroke-dasharray="0.2 0.2"/>
</svg>
