<svg width="57" height="57" viewBox="0 0 57 57" fill="none" xmlns="http://www.w3.org/2000/svg">
<path fill-rule="evenodd" clip-rule="evenodd" d="M27.4384 2.62693C27.768 2.46222 28.1315 2.37646 28.5 2.37646C28.8685 2.37646 29.232 2.46222 29.5616 2.62693L53.3116 14.5014C53.7896 14.7409 54.1727 15.1346 54.3991 15.6189C54.6254 16.1032 54.6818 16.6497 54.559 17.17C54.4362 17.6903 54.1414 18.1539 53.7224 18.4859C53.3034 18.8179 52.7846 18.9988 52.25 18.9994H4.75C4.2154 18.9988 3.69662 18.8179 3.2776 18.4859C2.85858 18.1539 2.56383 17.6903 2.44103 17.17C2.31824 16.6497 2.37458 16.1032 2.60094 15.6189C2.8273 15.1346 3.21044 14.7409 3.68837 14.5014L27.4384 2.62693V2.62693ZM14.8105 14.2496H42.1895L28.5 7.4052L14.8105 14.2496ZM14.25 21.3743C14.8799 21.3743 15.484 21.6245 15.9294 22.0699C16.3748 22.5152 16.625 23.1193 16.625 23.7492V35.6236C16.625 36.2534 16.3748 36.8575 15.9294 37.3029C15.484 37.7483 14.8799 37.9985 14.25 37.9985C13.6201 37.9985 13.016 37.7483 12.5706 37.3029C12.1252 36.8575 11.875 36.2534 11.875 35.6236V23.7492C11.875 23.1193 12.1252 22.5152 12.5706 22.0699C13.016 21.6245 13.6201 21.3743 14.25 21.3743ZM23.75 21.3743C24.3799 21.3743 24.984 21.6245 25.4294 22.0699C25.8748 22.5152 26.125 23.1193 26.125 23.7492V35.6236C26.125 36.2534 25.8748 36.8575 25.4294 37.3029C24.984 37.7483 24.3799 37.9985 23.75 37.9985C23.1201 37.9985 22.516 37.7483 22.0706 37.3029C21.6252 36.8575 21.375 36.2534 21.375 35.6236V23.7492C21.375 23.1193 21.6252 22.5152 22.0706 22.0699C22.516 21.6245 23.1201 21.3743 23.75 21.3743V21.3743ZM33.25 21.3743C33.8799 21.3743 34.484 21.6245 34.9294 22.0699C35.3748 22.5152 35.625 23.1193 35.625 23.7492V35.6236C35.625 36.2534 35.3748 36.8575 34.9294 37.3029C34.484 37.7483 33.8799 37.9985 33.25 37.9985C32.6201 37.9985 32.016 37.7483 31.5706 37.3029C31.1252 36.8575 30.875 36.2534 30.875 35.6236V23.7492C30.875 23.1193 31.1252 22.5152 31.5706 22.0699C32.016 21.6245 32.6201 21.3743 33.25 21.3743V21.3743ZM42.75 21.3743C43.3799 21.3743 43.984 21.6245 44.4294 22.0699C44.8748 22.5152 45.125 23.1193 45.125 23.7492V35.6236C45.125 36.2534 44.8748 36.8575 44.4294 37.3029C43.984 37.7483 43.3799 37.9985 42.75 37.9985C42.1201 37.9985 41.516 37.7483 41.0706 37.3029C40.6252 36.8575 40.375 36.2534 40.375 35.6236V23.7492C40.375 23.1193 40.6252 22.5152 41.0706 22.0699C41.516 21.6245 42.1201 21.3743 42.75 21.3743ZM7.125 42.7482C7.125 42.1184 7.37522 41.5143 7.82062 41.0689C8.26602 40.6236 8.87011 40.3734 9.5 40.3734H47.5C48.1299 40.3734 48.734 40.6236 49.1794 41.0689C49.6248 41.5143 49.875 42.1184 49.875 42.7482C49.875 43.3781 49.6248 43.9822 49.1794 44.4275C48.734 44.8729 48.1299 45.1231 47.5 45.1231H9.5C8.87011 45.1231 8.26602 44.8729 7.82062 44.4275C7.37522 43.9822 7.125 43.3781 7.125 42.7482ZM2.375 49.8729C2.375 49.243 2.62522 48.639 3.07062 48.1936C3.51602 47.7482 4.12011 47.498 4.75 47.498H52.25C52.8799 47.498 53.484 47.7482 53.9294 48.1936C54.3748 48.639 54.625 49.243 54.625 49.8729C54.625 50.5028 54.3748 51.1068 53.9294 51.5522C53.484 51.9976 52.8799 52.2478 52.25 52.2478H4.75C4.12011 52.2478 3.51602 51.9976 3.07062 51.5522C2.62522 51.1068 2.375 50.5028 2.375 49.8729Z" fill="#FF004C"/>
</svg>
