<svg width="58" height="58" viewBox="0 0 58 58" fill="none" xmlns="http://www.w3.org/2000/svg">
<path d="M31.8999 4.83325C27.0665 4.59159 22.2332 6.52492 18.6082 9.90825C15.2249 13.2916 13.2915 18.1249 13.2915 22.9583L8.69986 32.6249C8.21653 33.8333 8.69986 35.2833 9.9082 35.7666C10.1499 36.2499 10.6332 36.2499 10.8749 36.2499H13.2915V41.0833C13.2915 43.7416 15.4665 45.9166 18.1249 45.9166H20.5415V50.7499C20.5415 52.1999 21.5082 53.1666 22.9582 53.1666C24.4082 53.1666 43.7415 53.1666 44.7082 53.1666C44.9499 53.1666 45.1915 53.1666 45.4332 53.1666C46.6415 52.6833 47.3665 51.4749 47.1249 50.2666L44.9499 42.5333L49.5415 24.8916C49.5415 24.6499 49.5415 24.4083 49.5415 24.1666V23.6833C49.5415 13.7749 41.8082 5.31659 31.8999 4.83325Z" fill="#FF004C"/>
</svg>
