<svg width="57" height="58" viewBox="0 0 57 58" fill="none" xmlns="http://www.w3.org/2000/svg">
<path d="M45.125 5.74805H11.875C9.98533 5.74805 8.17306 6.49871 6.83686 7.83491C5.50067 9.17111 4.75 10.9834 4.75 12.873V46.123C4.75 48.0127 5.50067 49.825 6.83686 51.1612C8.17306 52.4974 9.98533 53.248 11.875 53.248H45.125C47.0147 53.248 48.8269 52.4974 50.1631 51.1612C51.4993 49.825 52.25 48.0127 52.25 46.123V12.873C52.25 10.9834 51.4993 9.17111 50.1631 7.83491C48.8269 6.49871 47.0147 5.74805 45.125 5.74805ZM47.5 46.123C47.5 46.7529 47.2498 47.357 46.8044 47.8024C46.359 48.2478 45.7549 48.498 45.125 48.498H11.875C11.2451 48.498 10.641 48.2478 10.1956 47.8024C9.75022 47.357 9.5 46.7529 9.5 46.123V12.873C9.5 12.2432 9.75022 11.6391 10.1956 11.1937C10.641 10.7483 11.2451 10.498 11.875 10.498H45.125C45.7549 10.498 46.359 10.7483 46.8044 11.1937C47.2498 11.6391 47.5 12.2432 47.5 12.873V46.123ZM40.375 22.373H35.625V17.623C35.625 16.9932 35.3748 16.3891 34.9294 15.9437C34.484 15.4983 33.8799 15.248 33.25 15.248H23.75C23.1201 15.248 22.516 15.4983 22.0706 15.9437C21.6252 16.3891 21.375 16.9932 21.375 17.623V22.373H16.625C15.9951 22.373 15.391 22.6233 14.9456 23.0687C14.5002 23.5141 14.25 24.1182 14.25 24.748V34.248C14.25 34.8779 14.5002 35.482 14.9456 35.9274C15.391 36.3728 15.9951 36.623 16.625 36.623H21.375V41.373C21.375 42.0029 21.6252 42.607 22.0706 43.0524C22.516 43.4978 23.1201 43.748 23.75 43.748H33.25C33.8799 43.748 34.484 43.4978 34.9294 43.0524C35.3748 42.607 35.625 42.0029 35.625 41.373V36.623H40.375C41.0049 36.623 41.609 36.3728 42.0544 35.9274C42.4998 35.482 42.75 34.8779 42.75 34.248V24.748C42.75 24.1182 42.4998 23.5141 42.0544 23.0687C41.609 22.6233 41.0049 22.373 40.375 22.373ZM38 31.873H33.25C32.6201 31.873 32.016 32.1233 31.5706 32.5687C31.1252 33.0141 30.875 33.6182 30.875 34.248V38.998H26.125V34.248C26.125 33.6182 25.8748 33.0141 25.4294 32.5687C24.984 32.1233 24.3799 31.873 23.75 31.873H19V27.123H23.75C24.3799 27.123 24.984 26.8728 25.4294 26.4274C25.8748 25.982 26.125 25.3779 26.125 24.748V19.998H30.875V24.748C30.875 25.3779 31.1252 25.982 31.5706 26.4274C32.016 26.8728 32.6201 27.123 33.25 27.123H38V31.873Z" fill="#FF004C"/>
</svg>
