<svg width="57" height="58" viewBox="0 0 57 58" fill="none" xmlns="http://www.w3.org/2000/svg">
<path d="M8.59773 42.038C8.83079 42.6238 9.28701 43.0931 9.86602 43.3425C10.445 43.5919 11.0994 43.6011 11.6852 43.368C12.271 43.135 12.7402 42.6788 12.9897 42.0998C13.2391 41.5207 13.2483 40.8663 13.0152 40.2805L10.3552 33.583L26.1252 30.0918V41.373C26.1252 42.0029 26.3755 42.607 26.8209 43.0524C27.2663 43.4978 27.8703 43.748 28.5002 43.748C29.1301 43.748 29.7342 43.4978 30.1796 43.0524C30.625 42.607 30.8752 42.0029 30.8752 41.373V30.0918L46.6452 33.583L43.9852 40.2805C43.8695 40.5706 43.8122 40.8806 43.8164 41.1928C43.8207 41.505 43.8864 41.8133 44.01 42.1001C44.1335 42.3869 44.3124 42.6465 44.5363 42.864C44.7603 43.0816 45.025 43.2529 45.3152 43.368C45.595 43.4786 45.8932 43.535 46.194 43.5343C46.6696 43.5348 47.1345 43.3924 47.5283 43.1256C47.9221 42.8588 48.2267 42.48 48.4027 42.038L52.084 32.7518C52.2103 32.4306 52.2652 32.0857 52.2447 31.7412C52.2242 31.3967 52.1288 31.0607 51.9652 30.7568C51.8065 30.454 51.5843 30.189 51.3138 29.9799C51.0433 29.7709 50.7308 29.6227 50.3977 29.5455L42.7502 27.8593V17.623C42.7502 16.9932 42.5 16.3891 42.0546 15.9437C41.6092 15.4983 41.0051 15.248 40.3752 15.248H35.6252V8.12305C35.6252 7.49316 35.375 6.88907 34.9296 6.44367C34.4842 5.99827 33.8801 5.74805 33.2502 5.74805H23.7502C23.1203 5.74805 22.5162 5.99827 22.0708 6.44367C21.6255 6.88907 21.3752 7.49316 21.3752 8.12305V15.248H16.6252C15.9953 15.248 15.3912 15.4983 14.9458 15.9437C14.5005 16.3891 14.2502 16.9932 14.2502 17.623V27.8593L6.60273 29.498C6.26967 29.5752 5.95719 29.7234 5.68666 29.9324C5.41613 30.1415 5.19393 30.4065 5.03523 30.7093C4.87166 31.0132 4.7763 31.3492 4.75579 31.6937C4.73528 32.0382 4.79012 32.3831 4.91648 32.7043L8.59773 42.038ZM26.1252 10.498H30.8752V15.248H26.1252V10.498ZM19.0002 19.998H38.0002V26.7905L29.0227 24.748H28.7852H28.5002H28.2152H27.9777L19.0002 26.7905V19.998ZM49.1865 46.788C48.3532 47.0434 47.5552 47.4025 46.8115 47.8568C46.0549 48.2992 45.1942 48.5324 44.3177 48.5324C43.4413 48.5324 42.5806 48.2992 41.824 47.8568C40.1787 46.9287 38.3217 46.441 36.4327 46.441C34.5437 46.441 32.6867 46.9287 31.0415 47.8568C30.2745 48.2941 29.4069 48.5241 28.524 48.5241C27.6411 48.5241 26.7734 48.2941 26.0065 47.8568C24.3598 46.9331 22.5033 46.448 20.6152 46.448C18.7271 46.448 16.8707 46.9331 15.224 47.8568C14.4674 48.2992 13.6067 48.5324 12.7302 48.5324C11.8538 48.5324 10.9931 48.2992 10.2365 47.8568C9.49271 47.4025 8.69479 47.0434 7.86148 46.788C7.54546 46.6757 7.20924 46.6315 6.87493 46.6585C6.54063 46.6855 6.21582 46.7829 5.9219 46.9445C5.62797 47.106 5.3716 47.328 5.16965 47.5958C4.9677 47.8635 4.82476 48.171 4.75023 48.498C4.57292 49.0996 4.64072 49.7468 4.93883 50.2985C5.23694 50.8503 5.74116 51.2617 6.34148 51.443C6.81971 51.5726 7.27597 51.7727 7.69523 52.0368C9.13616 52.8823 10.7746 53.3329 12.4452 53.343C14.1804 53.3434 15.8848 52.8845 17.3852 52.013C18.3162 51.4995 19.362 51.2302 20.4252 51.2302C21.4884 51.2302 22.5343 51.4995 23.4652 52.013C24.9551 52.8649 26.6415 53.3131 28.3577 53.3131C30.0739 53.3131 31.7604 52.8649 33.2502 52.013C34.1812 51.4995 35.227 51.2302 36.2902 51.2302C37.3534 51.2302 38.3993 51.4995 39.3302 52.013C40.8023 52.8916 42.4847 53.3555 44.199 53.3555C45.9133 53.3555 47.5957 52.8916 49.0677 52.013C49.487 51.749 49.9432 51.5489 50.4215 51.4193C50.7375 51.3554 51.0373 51.2277 51.3024 51.0442C51.5675 50.8606 51.7925 50.625 51.9636 50.3517C52.1347 50.0783 52.2484 49.773 52.2977 49.4544C52.3469 49.1357 52.3308 48.8103 52.2502 48.498C52.1748 48.1766 52.0331 47.8745 51.8343 47.6109C51.6355 47.3473 51.3839 47.128 51.0956 46.9671C50.8073 46.8062 50.4886 46.7072 50.1599 46.6763C49.8312 46.6455 49.4997 46.6836 49.1865 46.788Z" fill="#FF004C"/>
</svg>
