<svg width="81" height="81" viewBox="0 0 81 81" fill="none" xmlns="http://www.w3.org/2000/svg">
<g clip-path="url(#clip0_1003_208)">
<path d="M46.6863 60.7933L60.7931 46.6865C63.4801 48.03 66.6709 47.5262 68.8541 45.343C71.7091 42.488 71.7091 38.1217 68.8541 35.2667C66.6709 33.0835 63.4801 32.5797 60.7931 33.9232L46.6863 19.8164C48.0298 17.1294 47.526 13.9386 45.3428 11.7554C42.4879 8.90048 38.1215 8.90048 35.2666 11.7554C33.0834 13.9386 32.5795 17.1294 33.923 19.8164L19.8163 33.9232C17.1293 32.5797 13.9384 33.0835 11.7553 35.2667C8.90031 38.1217 8.90031 42.488 11.7553 45.343C13.9384 47.5262 17.1293 48.03 19.8163 46.6865L33.9231 60.7933C32.5795 63.4803 33.0834 66.6711 35.2666 68.8543C38.1215 71.7092 42.4879 71.7092 45.3428 68.8543C47.526 66.6711 48.0298 63.4803 46.6863 60.7933ZM37.2818 57.4345L23.175 43.3277C24.0147 41.4804 24.0147 39.1293 23.175 37.282L37.2818 23.1752C39.1291 24.0149 41.4803 24.0149 43.3276 23.1752L57.4344 37.282C56.5947 39.1293 56.5947 41.4804 57.4343 43.3277L43.3276 57.4345C41.4803 56.5948 39.1291 56.5948 37.2818 57.4345ZM65.4954 38.6255C66.503 39.6331 66.503 40.9766 65.4954 41.9842C64.4877 42.9919 63.1442 42.9919 62.1366 41.9842C61.129 40.9766 61.129 39.6331 62.1366 38.6255C63.1442 37.6179 64.4877 37.6179 65.4954 38.6255ZM41.9841 15.1142C42.9917 16.1218 42.9917 17.4653 41.9841 18.4729C40.9764 19.4806 39.6329 19.4806 38.6253 18.4729C37.6177 17.4653 37.6177 16.1218 38.6253 15.1142C39.6329 14.1066 40.9764 14.1066 41.9841 15.1142ZM15.114 41.9842C14.1064 40.9766 14.1064 39.6331 15.114 38.6255C16.1216 37.6179 17.4651 37.6179 18.4728 38.6255C19.4804 39.6331 19.4804 40.9766 18.4728 41.9842C17.4651 42.9919 16.1216 42.9919 15.114 41.9842ZM38.6253 65.4955C37.6177 64.4879 37.6177 63.1444 38.6253 62.1368C39.6329 61.1292 40.9764 61.1292 41.9841 62.1368C42.9917 63.1444 42.9917 64.4879 41.9841 65.4955C40.9764 66.5032 39.6329 66.5032 38.6253 65.4955Z" fill="#FF004C"/>
</g>
<defs>
<clipPath id="clip0_1003_208">
<rect width="57" height="57" fill="white" transform="translate(40.3047) rotate(45)"/>
</clipPath>
</defs>
</svg>
