<svg width="58" height="58" viewBox="0 0 58 58" fill="none" xmlns="http://www.w3.org/2000/svg">
<path d="M50.1797 10.0684H43.0547V7.69336C43.0547 7.06347 42.8045 6.45938 42.3591 6.01398C41.9137 5.56858 41.3096 5.31836 40.6797 5.31836H16.9297C16.2998 5.31836 15.6957 5.56858 15.2503 6.01398C14.8049 6.45938 14.5547 7.06347 14.5547 7.69336V10.0684H7.42969C6.7998 10.0684 6.19571 10.3186 5.75031 10.764C5.30491 11.2094 5.05469 11.8135 5.05469 12.4434V19.5684C5.05469 22.0879 6.05558 24.5043 7.83717 26.2859C9.61877 28.0675 12.0351 29.0684 14.5547 29.0684H18.2122C20.3605 31.4651 23.2568 33.0639 26.4297 33.6046V38.5684H24.0547C22.165 38.5684 20.3527 39.319 19.0166 40.6552C17.6804 41.9914 16.9297 43.8037 16.9297 45.6934V50.4434C16.9297 51.0732 17.1799 51.6773 17.6253 52.1227C18.0707 52.5681 18.6748 52.8184 19.3047 52.8184H38.3047C38.9346 52.8184 39.5387 52.5681 39.9841 52.1227C40.4295 51.6773 40.6797 51.0732 40.6797 50.4434V45.6934C40.6797 43.8037 39.929 41.9914 38.5928 40.6552C37.2566 39.319 35.4444 38.5684 33.5547 38.5684H31.1797V33.6046C34.3525 33.0639 37.2489 31.4651 39.3972 29.0684H43.0547C45.5742 29.0684 47.9906 28.0675 49.7722 26.2859C51.5538 24.5043 52.5547 22.0879 52.5547 19.5684V12.4434C52.5547 11.8135 52.3045 11.2094 51.8591 10.764C51.4137 10.3186 50.8096 10.0684 50.1797 10.0684ZM14.5547 24.3184C13.2949 24.3184 12.0867 23.8179 11.1959 22.9271C10.3051 22.0363 9.80469 20.8281 9.80469 19.5684V14.8184H14.5547V19.5684C14.5599 21.1874 14.841 22.7937 15.3859 24.3184H14.5547ZM33.5547 43.3184C34.1846 43.3184 34.7887 43.5686 35.2341 44.014C35.6795 44.4594 35.9297 45.0635 35.9297 45.6934V48.0684H21.6797V45.6934C21.6797 45.0635 21.9299 44.4594 22.3753 44.014C22.8207 43.5686 23.4248 43.3184 24.0547 43.3184H33.5547ZM38.3047 19.5684C38.3047 22.0879 37.3038 24.5043 35.5222 26.2859C33.7406 28.0675 31.3242 29.0684 28.8047 29.0684C26.2851 29.0684 23.8688 28.0675 22.0872 26.2859C20.3056 24.5043 19.3047 22.0879 19.3047 19.5684V10.0684H38.3047V19.5684ZM47.8047 19.5684C47.8047 20.8281 47.3042 22.0363 46.4134 22.9271C45.5226 23.8179 44.3145 24.3184 43.0547 24.3184H42.2234C42.7684 22.7937 43.0495 21.1874 43.0547 19.5684V14.8184H47.8047V19.5684Z" fill="#FF004C"/>
</svg>
