<svg width="58" height="58" viewBox="0 0 58 58" fill="none" xmlns="http://www.w3.org/2000/svg">
<path d="M33.5547 19.5684H35.9297C36.5596 19.5684 37.1637 19.3181 37.6091 18.8727C38.0545 18.4273 38.3047 17.8232 38.3047 17.1934C38.3047 16.5635 38.0545 15.9594 37.6091 15.514C37.1637 15.0686 36.5596 14.8184 35.9297 14.8184H33.5547C32.9248 14.8184 32.3207 15.0686 31.8753 15.514C31.4299 15.9594 31.1797 16.5635 31.1797 17.1934C31.1797 17.8232 31.4299 18.4273 31.8753 18.8727C32.3207 19.3181 32.9248 19.5684 33.5547 19.5684V19.5684ZM33.5547 29.0684H35.9297C36.5596 29.0684 37.1637 28.8181 37.6091 28.3727C38.0545 27.9273 38.3047 27.3232 38.3047 26.6934C38.3047 26.0635 38.0545 25.4594 37.6091 25.014C37.1637 24.5686 36.5596 24.3184 35.9297 24.3184H33.5547C32.9248 24.3184 32.3207 24.5686 31.8753 25.014C31.4299 25.4594 31.1797 26.0635 31.1797 26.6934C31.1797 27.3232 31.4299 27.9273 31.8753 28.3727C32.3207 28.8181 32.9248 29.0684 33.5547 29.0684V29.0684ZM21.6797 19.5684H24.0547C24.6846 19.5684 25.2887 19.3181 25.7341 18.8727C26.1795 18.4273 26.4297 17.8232 26.4297 17.1934C26.4297 16.5635 26.1795 15.9594 25.7341 15.514C25.2887 15.0686 24.6846 14.8184 24.0547 14.8184H21.6797C21.0498 14.8184 20.4457 15.0686 20.0003 15.514C19.5549 15.9594 19.3047 16.5635 19.3047 17.1934C19.3047 17.8232 19.5549 18.4273 20.0003 18.8727C20.4457 19.3181 21.0498 19.5684 21.6797 19.5684V19.5684ZM21.6797 29.0684H24.0547C24.6846 29.0684 25.2887 28.8181 25.7341 28.3727C26.1795 27.9273 26.4297 27.3232 26.4297 26.6934C26.4297 26.0635 26.1795 25.4594 25.7341 25.014C25.2887 24.5686 24.6846 24.3184 24.0547 24.3184H21.6797C21.0498 24.3184 20.4457 24.5686 20.0003 25.014C19.5549 25.4594 19.3047 26.0635 19.3047 26.6934C19.3047 27.3232 19.5549 27.9273 20.0003 28.3727C20.4457 28.8181 21.0498 29.0684 21.6797 29.0684V29.0684ZM50.1797 48.0684H47.8047V7.69336C47.8047 7.06347 47.5545 6.45938 47.1091 6.01398C46.6637 5.56858 46.0596 5.31836 45.4297 5.31836H12.1797C11.5498 5.31836 10.9457 5.56858 10.5003 6.01398C10.0549 6.45938 9.80469 7.06347 9.80469 7.69336V48.0684H7.42969C6.7998 48.0684 6.19571 48.3186 5.75031 48.764C5.30491 49.2094 5.05469 49.8135 5.05469 50.4434C5.05469 51.0732 5.30491 51.6773 5.75031 52.1227C6.19571 52.5681 6.7998 52.8184 7.42969 52.8184H50.1797C50.8096 52.8184 51.4137 52.5681 51.8591 52.1227C52.3045 51.6773 52.5547 51.0732 52.5547 50.4434C52.5547 49.8135 52.3045 49.2094 51.8591 48.764C51.4137 48.3186 50.8096 48.0684 50.1797 48.0684ZM31.1797 48.0684H26.4297V38.5684H31.1797V48.0684ZM43.0547 48.0684H35.9297V36.1934C35.9297 35.5635 35.6795 34.9594 35.2341 34.514C34.7887 34.0686 34.1846 33.8184 33.5547 33.8184H24.0547C23.4248 33.8184 22.8207 34.0686 22.3753 34.514C21.9299 34.9594 21.6797 35.5635 21.6797 36.1934V48.0684H14.5547V10.0684H43.0547V48.0684Z" fill="#FF004C"/>
</svg>
