<svg width="58" height="58" viewBox="0 0 58 58" fill="none" xmlns="http://www.w3.org/2000/svg">
<path d="M35.4784 29.7334C36.9818 28.1189 37.8287 26.0017 37.8534 23.7959C37.8534 21.4149 36.9076 19.1314 35.224 17.4478C33.5404 15.7642 31.2569 14.8184 28.8759 14.8184C26.495 14.8184 24.2115 15.7642 22.5279 17.4478C20.8443 19.1314 19.8984 21.4149 19.8984 23.7959C19.9232 26.0017 20.7701 28.1189 22.2734 29.7334C20.1802 30.7757 18.379 32.322 17.0316 34.2331C15.6843 36.1443 14.8331 38.3604 14.5547 40.6821C14.4854 41.312 14.6692 41.9436 15.0656 42.438C15.462 42.9324 16.0385 43.2491 16.6684 43.3184C17.2983 43.3876 17.9299 43.2039 18.4243 42.8075C18.9187 42.4111 19.2354 41.8345 19.3047 41.2046C19.5881 38.9036 20.7032 36.7856 22.4399 35.2497C24.1766 33.7137 26.415 32.8659 28.7334 32.8659C31.0519 32.8659 33.2903 33.7137 35.027 35.2497C36.7637 36.7856 37.8788 38.9036 38.1622 41.2046C38.2282 41.8136 38.527 42.3735 38.9962 42.7674C39.4653 43.1613 40.0685 43.3587 40.6797 43.3184H40.9409C41.5635 43.2467 42.1325 42.9319 42.524 42.4426C42.9155 41.9532 43.0977 41.329 43.0309 40.7059C42.7732 38.3964 41.9488 36.1863 40.6313 34.2721C39.3137 32.3579 37.5437 30.7988 35.4784 29.7334ZM28.8047 28.0234C27.9686 28.0234 27.1512 27.7754 26.456 27.3109C25.7608 26.8464 25.219 26.1861 24.899 25.4137C24.579 24.6412 24.4953 23.7912 24.6584 22.9711C24.8215 22.1511 25.2242 21.3978 25.8154 20.8066C26.4066 20.2153 27.1599 19.8127 27.9799 19.6496C28.8 19.4865 29.65 19.5702 30.4225 19.8902C31.195 20.2101 31.8552 20.752 32.3197 21.4472C32.7842 22.1424 33.0322 22.9597 33.0322 23.7959C33.0322 24.9171 32.5868 25.9923 31.794 26.7852C31.0012 27.578 29.9259 28.0234 28.8047 28.0234ZM45.4297 5.31836H12.1797C10.29 5.31836 8.47775 6.06903 7.14155 7.40522C5.80536 8.74142 5.05469 10.5537 5.05469 12.4434V45.6934C5.05469 47.583 5.80536 49.3953 7.14155 50.7315C8.47775 52.0677 10.29 52.8184 12.1797 52.8184H45.4297C47.3194 52.8184 49.1316 52.0677 50.4678 50.7315C51.804 49.3953 52.5547 47.583 52.5547 45.6934V12.4434C52.5547 10.5537 51.804 8.74142 50.4678 7.40522C49.1316 6.06903 47.3194 5.31836 45.4297 5.31836ZM47.8047 45.6934C47.8047 46.3232 47.5545 46.9273 47.1091 47.3727C46.6637 47.8181 46.0596 48.0684 45.4297 48.0684H12.1797C11.5498 48.0684 10.9457 47.8181 10.5003 47.3727C10.0549 46.9273 9.80469 46.3232 9.80469 45.6934V12.4434C9.80469 11.8135 10.0549 11.2094 10.5003 10.764C10.9457 10.3186 11.5498 10.0684 12.1797 10.0684H45.4297C46.0596 10.0684 46.6637 10.3186 47.1091 10.764C47.5545 11.2094 47.8047 11.8135 47.8047 12.4434V45.6934Z" fill="#FF004C"/>
</svg>
