<svg width="57" height="57" viewBox="0 0 57 57" fill="none" xmlns="http://www.w3.org/2000/svg">
<path d="M51.5612 5.43787C51.3404 5.21527 51.0777 5.03858 50.7883 4.91801C50.4989 4.79743 50.1885 4.73535 49.875 4.73535C49.5614 4.73535 49.251 4.79743 48.9616 4.91801C48.6722 5.03858 48.4095 5.21527 48.1887 5.43787L43.1537 10.4729L41.4674 8.81037C41.0225 8.36803 40.4205 8.11974 39.7931 8.11974C39.1656 8.11974 38.5637 8.36803 38.1187 8.81037L34.77 12.1591L33.0837 10.4729C32.8629 10.2503 32.6002 10.0736 32.3108 9.95301C32.0214 9.83243 31.711 9.77035 31.3975 9.77035C31.0839 9.77035 30.7735 9.83243 30.4841 9.95301C30.1947 10.0736 29.932 10.2503 29.7112 10.4729L11.2575 28.9504L9.49995 27.2879C9.03898 26.9657 8.47864 26.8176 7.91868 26.8699C7.35873 26.9221 6.83549 27.1714 6.44212 27.5734C6.04875 27.9753 5.81077 28.5038 5.77054 29.0647C5.73031 29.6257 5.89045 30.1827 6.22245 30.6366L14.6062 39.0441L10.4975 43.1766L8.8112 41.4666C8.36398 41.0194 7.75742 40.7682 7.12495 40.7682C6.49249 40.7682 5.88592 41.0194 5.4387 41.4666C4.99148 41.9138 4.74023 42.5204 4.74023 43.1529C4.74023 43.7853 4.99148 44.3919 5.4387 44.8391L12.16 51.5604C12.3819 51.7805 12.6451 51.9546 12.9344 52.0728C13.2238 52.191 13.5336 52.2509 13.8462 52.2491C14.1588 52.2509 14.4686 52.191 14.758 52.0728C15.0473 51.9546 15.3105 51.7805 15.5325 51.5604C15.7551 51.3396 15.9317 51.0769 16.0523 50.7875C16.1729 50.4981 16.235 50.1876 16.235 49.8741C16.235 49.5606 16.1729 49.2502 16.0523 48.9607C15.9317 48.6713 15.7551 48.4087 15.5325 48.1879L13.8462 46.5254L17.9787 42.3929L26.3625 50.7766C26.5824 51.001 26.8447 51.1796 27.1342 51.3019C27.4236 51.4242 27.7345 51.4878 28.0487 51.4891C28.5184 51.4871 28.977 51.3459 29.3665 51.0834C29.7559 50.8208 30.0588 50.4486 30.2367 50.0139C30.4147 49.5792 30.4597 49.1015 30.3662 48.6412C30.2726 48.1809 30.0447 47.7586 29.7112 47.4279L28.0487 45.7416L46.5262 27.2879C46.7488 27.0671 46.9255 26.8044 47.0461 26.515C47.1666 26.2256 47.2287 25.9151 47.2287 25.6016C47.2287 25.2881 47.1666 24.9777 47.0461 24.6883C46.9255 24.3988 46.7488 24.1362 46.5262 23.9154L44.8399 22.2291L48.1887 18.9991C48.631 18.5541 48.8793 17.9522 48.8793 17.3247C48.8793 16.6973 48.631 16.0954 48.1887 15.6504L46.5262 13.9641L51.5612 8.92912C51.8023 8.70672 51.9947 8.4368 52.1263 8.13636C52.2579 7.83593 52.3258 7.51149 52.3258 7.1835C52.3258 6.85551 52.2579 6.53107 52.1263 6.23063C51.9947 5.9302 51.8023 5.66027 51.5612 5.43787V5.43787ZM17.9787 35.6241L14.6062 32.3229L17.955 28.9504L21.375 32.3229L17.9787 35.6241ZM24.6762 42.3454L21.375 39.0441L24.6762 35.6241L28.0487 38.9966L24.6762 42.3454ZM31.3975 35.6241L21.375 25.6016L31.445 15.5316L33.1312 17.1941L41.515 25.6016L31.3975 35.6241ZM41.4674 18.9991L38.1187 15.5316L39.805 13.8454L41.4674 15.5079L43.13 17.1704L41.4674 18.9991Z" fill="#FF004C"/>
</svg>
