<svg width="57" height="57" viewBox="0 0 57 57" fill="none" xmlns="http://www.w3.org/2000/svg">
<path d="M51.8701 13.2052C51.5546 11.1827 50.6068 9.312 49.1626 7.86144V7.86144C47.712 6.41717 45.8413 5.46936 43.8188 5.15394C39.6338 4.52199 35.3656 4.71563 31.2551 5.72394C31.0928 5.75718 30.9338 5.80487 30.7801 5.86644C24.7651 7.38247 19.2739 10.5015 14.8913 14.8914C10.4835 19.3056 7.34912 24.8278 5.81881 30.8752C5.81881 31.0177 5.81881 31.1602 5.70006 31.3264C4.69168 35.445 4.49805 39.721 5.13006 43.9139C5.46908 45.8942 6.41523 47.7201 7.83756 49.1389C9.28812 50.5832 11.1588 51.531 13.1813 51.8464C14.8146 52.112 16.4665 52.247 18.1213 52.2502C20.7317 52.2351 23.331 51.9082 25.8638 51.2764H26.1963C32.219 49.7517 37.7188 46.6304 42.1161 42.2415C46.5133 37.8526 49.6451 32.3587 51.1813 26.3389C51.1813 26.1964 51.1813 26.0539 51.3001 25.8877C52.3209 21.7386 52.5146 17.4291 51.8701 13.2052V13.2052ZM38.8788 9.50019C40.279 9.49279 41.6774 9.60402 43.0588 9.83269C43.2527 9.87387 43.4432 9.92944 43.6288 9.99894L40.3751 13.2764L36.7176 9.61894C37.4301 9.50019 38.1663 9.50019 38.8788 9.50019ZM18.2163 18.2164C21.7919 14.6601 26.201 12.0556 31.0413 10.6402L37.0263 16.6252L31.9201 21.7314L30.1863 19.9977C29.9655 19.7751 29.7028 19.5984 29.4134 19.4778C29.124 19.3572 28.8136 19.2952 28.5001 19.2952C28.1865 19.2952 27.8761 19.3572 27.5867 19.4778C27.2973 19.5984 27.0346 19.7751 26.8138 19.9977C26.3715 20.4427 26.1232 21.0446 26.1232 21.6721C26.1232 22.2995 26.3715 22.9014 26.8138 23.3464L28.5476 25.0802L25.0801 28.5002L23.3463 26.7664C22.9013 26.3241 22.2994 26.0758 21.6719 26.0758C21.0445 26.0758 20.4425 26.3241 19.9976 26.7664C19.775 26.9872 19.5983 27.2499 19.4777 27.5393C19.3571 27.8287 19.295 28.1392 19.295 28.4527C19.295 28.7662 19.3571 29.0766 19.4777 29.3661C19.5983 29.6555 19.775 29.9181 19.9976 30.1389L21.7313 31.8727L16.6251 37.0264L10.6638 31.0652C12.064 26.2167 14.6612 21.7983 18.2163 18.2164V18.2164ZM9.99881 43.6289C9.92931 43.4433 9.87374 43.2528 9.83256 43.0589C9.47294 40.9656 9.36134 38.8372 9.50006 36.7177L13.2763 40.3752L9.99881 43.6289ZM13.9413 47.1677C13.7474 47.1265 13.5569 47.0709 13.3713 47.0014L16.6251 43.7239L20.2826 47.5002C18.1631 47.6389 16.0346 47.5273 13.9413 47.1677V47.1677ZM38.7838 38.7839C35.202 42.339 30.7835 44.9362 25.9351 46.3364L19.9738 40.3752L25.0801 35.2689L26.8138 37.0027C27.0337 37.2241 27.295 37.4001 27.5829 37.5205C27.8708 37.641 28.1796 37.7035 28.4917 37.7046C28.8037 37.7057 29.1129 37.6454 29.4017 37.527C29.6904 37.4086 29.953 37.2344 30.1744 37.0146C30.3959 36.7947 30.5718 36.5333 30.6923 36.2454C30.8127 35.9576 30.8753 35.6488 30.8764 35.3367C30.8775 35.0246 30.8171 34.7154 30.6987 34.4267C30.5803 34.138 30.4062 33.8754 30.1863 33.6539L28.5001 31.9202L31.9201 28.5002L33.6538 30.2339C33.8757 30.4541 34.1389 30.6282 34.4283 30.7464C34.7176 30.8646 35.0275 30.9245 35.3401 30.9227C35.8098 30.9207 36.2683 30.7795 36.6578 30.5169C37.0473 30.2543 37.3501 29.8822 37.5281 29.4475C37.706 29.0128 37.7511 28.5351 37.6575 28.0747C37.564 27.6144 37.3361 27.1922 37.0026 26.8614L35.2688 25.1277L40.3751 19.9739L46.3363 25.9352C44.9361 30.7837 42.3389 35.2021 38.7838 38.7839V38.7839ZM47.5001 20.2827L43.7238 16.6252L47.0013 13.3714C47.0708 13.557 47.1264 13.7476 47.1676 13.9414C47.5272 16.0348 47.6388 18.1632 47.5001 20.2827Z" fill="#FF004C"/>
</svg>
