<svg width="58" height="58" viewBox="0 0 58 58" fill="none" xmlns="http://www.w3.org/2000/svg">
<path d="M48.9207 18.072C48.9207 18.072 48.9207 18.072 48.9207 17.882L48.7782 17.5257C48.7286 17.4501 48.673 17.3787 48.6119 17.312C48.5484 17.2114 48.4769 17.1161 48.3982 17.027L48.1844 16.8607L47.8044 16.6707L29.9919 5.67448C29.6145 5.43857 29.1783 5.31348 28.7332 5.31348C28.288 5.31348 27.8519 5.43857 27.4744 5.67448L9.80442 16.6707L9.59067 16.8607L9.37692 17.027C9.29819 17.1161 9.22672 17.2114 9.16317 17.312C9.10211 17.3787 9.04652 17.4501 8.99692 17.5257L8.85442 17.882C8.85442 17.882 8.85442 17.882 8.85442 18.072C8.83108 18.2772 8.83108 18.4843 8.85442 18.6895V39.447C8.85361 39.8506 8.95568 40.2478 9.15099 40.601C9.3463 40.9542 9.6284 41.2518 9.97067 41.4657L27.7832 52.462C27.8928 52.5297 28.0133 52.5779 28.1394 52.6045C28.1394 52.6045 28.2582 52.6045 28.3294 52.6045C28.7312 52.7319 29.1626 52.7319 29.5644 52.6045C29.5644 52.6045 29.6832 52.6045 29.7544 52.6045C29.8805 52.5779 30.001 52.5297 30.1107 52.462L47.8044 41.4657C48.1467 41.2518 48.4288 40.9542 48.6241 40.601C48.8194 40.2478 48.9215 39.8506 48.9207 39.447V18.6895C48.944 18.4843 48.944 18.2772 48.9207 18.072ZM26.4294 46.192L13.3669 38.117V22.9645L26.4294 31.0157V46.192ZM28.8044 26.907L15.5044 18.6895L28.8044 10.4957L42.1044 18.6895L28.8044 26.907ZM44.2419 38.117L31.1794 46.192V31.0157L44.2419 22.9645V38.117Z" fill="#FF004C"/>
</svg>
