<svg width="57" height="57" viewBox="0 0 57 57" fill="none" xmlns="http://www.w3.org/2000/svg">
<path d="M18.9999 26.125H37.9999C38.3507 26.1227 38.6966 26.0427 39.0128 25.8907C39.329 25.7388 39.6076 25.5187 39.8286 25.2462C40.0608 24.9791 40.2303 24.6635 40.3249 24.3224C40.4194 23.9814 40.4365 23.6235 40.3749 23.275L37.9999 11.4C37.8889 10.8555 37.5904 10.3671 37.1564 10.0199C36.7225 9.67278 36.1805 9.48879 35.6249 9.49999H21.3749C20.8193 9.48879 20.2773 9.67278 19.8433 10.0199C19.4094 10.3671 19.1109 10.8555 18.9999 11.4L16.6249 23.275C16.5569 23.62 16.5664 23.9758 16.6526 24.3167C16.7389 24.6576 16.8998 24.9751 17.1236 25.2462C17.3497 25.5249 17.6359 25.7488 17.9609 25.901C18.2859 26.0532 18.6411 26.1298 18.9999 26.125V26.125ZM23.3224 14.25H33.6774L35.1024 21.375H21.8974L23.3224 14.25ZM52.2499 32.775C52.1389 32.2305 51.8404 31.7421 51.4064 31.3949C50.9725 31.0478 50.4305 30.8638 49.8749 30.875H35.6249C35.0693 30.8638 34.5273 31.0478 34.0934 31.3949C33.6594 31.7421 33.3609 32.2305 33.2499 32.775L30.8749 44.65C30.8069 44.995 30.8164 45.3508 30.9026 45.6917C30.9889 46.0326 31.1498 46.3501 31.3736 46.6212C31.5997 46.8999 31.8859 47.1238 32.2109 47.276C32.5359 47.4282 32.8911 47.5048 33.2499 47.5H52.2499C52.6007 47.4977 52.9466 47.4177 53.2628 47.2657C53.579 47.1138 53.8576 46.8937 54.0786 46.6212C54.3108 46.3541 54.4803 46.0385 54.5749 45.6974C54.6694 45.3564 54.6865 44.9985 54.6249 44.65L52.2499 32.775ZM36.1474 42.75L37.5724 35.625H47.9274L49.3524 42.75H36.1474ZM21.3749 30.875H7.12488C6.56926 30.8638 6.0273 31.0478 5.59335 31.3949C5.15939 31.7421 4.86092 32.2305 4.74988 32.775L2.37488 44.65C2.3069 44.995 2.31638 45.3508 2.40263 45.6917C2.48888 46.0326 2.64976 46.3501 2.87363 46.6212C3.09967 46.8999 3.38592 47.1238 3.71089 47.276C4.03585 47.4282 4.39108 47.5048 4.74988 47.5H23.7499C24.1007 47.4977 24.4466 47.4177 24.7628 47.2657C25.079 47.1138 25.3576 46.8937 25.5786 46.6212C25.8108 46.3541 25.9803 46.0385 26.0749 45.6974C26.1694 45.3564 26.1865 44.9985 26.1249 44.65L23.7499 32.775C23.6389 32.2305 23.3404 31.7421 22.9064 31.3949C22.4725 31.0478 21.9305 30.8638 21.3749 30.875V30.875ZM7.64739 42.75L9.07238 35.625H19.4274L20.8524 42.75H7.64739Z" fill="#FF004D"/>
</svg>
