<svg width="54" height="57" viewBox="0 0 54 57" fill="none" xmlns="http://www.w3.org/2000/svg">
<path d="M10.6095 10.72C11.2718 11.215 12.2015 11.063 12.6846 10.395C16.0328 5.76598 21.4164 3 27.0851 3C34.827 3 41.4114 8.01996 43.8656 15H47C44.4358 6.33703 36.4841 0 27.0851 0C20.4719 0 14.1933 3.22605 10.2858 8.625C9.80262 9.29297 9.94625 10.233 10.6095 10.72Z" fill="#FF004D"/>
<path d="M53.8274 18.8857C53.4115 17.7533 52.3202 17 51.0984 17H2.90164C1.67891 17 0.587682 17.7542 0.172661 18.8857C-0.242359 20.0172 0.106911 21.2847 1.04714 22.0533C7.95024 27.7038 16.6091 30.9076 25.562 31.2229C25.5601 31.2458 25.5485 31.2638 25.5485 31.2857V37H24.0975C20.0975 37 16.8423 40.2029 16.8423 44.1429C16.8423 48.0828 20.0975 51.2857 24.0975 51.2857H25.5485V54.1429H18.2933C17.4914 54.1429 16.8423 54.7819 16.8423 55.5714C16.8423 56.3609 17.4914 57 18.2933 57H35.7058C36.5077 57 37.1569 56.3609 37.1569 55.5714C37.1569 54.7819 36.5077 54.1429 35.7058 54.1429H28.4506V51.2857H29.9017C30.7036 51.2857 31.3527 50.6467 31.3527 49.8571C31.3527 49.0676 30.7036 48.4286 29.9017 48.4286H28.4506V39.7647C34.9929 39.3028 40.6897 35.8105 44.0609 30.6733C42.3283 31.3962 40.5425 31.9933 38.7259 32.4933C35.9679 34.9761 32.3868 36.5343 28.4496 36.8637V31.2857C28.4496 31.2638 28.438 31.2458 28.437 31.2238C37.391 30.9085 46.0488 27.7047 52.9528 22.0542C53.8931 21.2847 54.2423 20.0181 53.8274 18.8857ZM25.5485 48.4286H24.0975C21.6975 48.4286 19.7444 46.5057 19.7444 44.1429C19.7444 41.78 21.6975 39.8571 24.0975 39.8571H25.5485V48.4286ZM26.9996 28.4286C17.8348 28.4286 9.43812 25.2067 2.90164 19.8571H51.0984C44.561 25.2067 36.1644 28.4286 26.9996 28.4286Z" fill="#FF004D"/>
</svg>
