<svg width="99" height="99" viewBox="0 0 99 99" fill="none" xmlns="http://www.w3.org/2000/svg">
<path d="M56.8684 37.1315C56.8684 32.9587 53.4886 29.5789 49.3158 29.5789C45.1429 29.5789 41.7631 32.9587 41.7631 37.1315C41.7631 41.3044 45.1429 44.6842 49.3158 44.6842C53.4886 44.6842 56.8684 41.3044 56.8684 37.1315ZM34.2105 56.0131V57.9013C34.2105 58.9398 35.0602 59.7894 36.0987 59.7894H62.5329C63.5714 59.7894 64.421 58.9398 64.421 57.9013V56.0131C64.421 50.9906 54.3572 48.4605 49.3158 48.4605C44.2744 48.4605 34.2105 50.9906 34.2105 56.0131Z" fill="#FF0040"/>
<path d="M36.3683 31.3442L31.7997 26.9124C32.3318 25.9201 32.661 24.7965 32.661 23.5844C32.661 19.7431 29.6296 16.6316 25.8855 16.6316C22.1414 16.6316 19.1052 19.7414 19.1052 23.5844C19.1052 27.4274 22.1414 30.5405 25.8855 30.5405C27.2054 30.5405 28.4263 30.137 29.4682 29.4678L34.0305 33.8947C34.7208 32.9582 35.499 32.1004 36.3683 31.3442Z" fill="#FF0040"/>
<path d="M62.9675 31.7368L68.9064 21.406C69.491 21.5789 70.0976 21.7033 70.7338 21.7033C74.4028 21.7033 77.3683 18.6363 77.3683 14.8501C77.3683 11.0655 74.4028 8 70.7338 8C67.0711 8 64.1071 11.0639 64.1071 14.8501C64.1071 16.7294 64.8403 18.4278 66.0253 19.6672L60.1052 29.969C61.1229 30.4457 62.0827 31.0404 62.9675 31.7368Z" fill="#FF0040"/>
<path d="M86.6159 42.5263C83.166 42.5263 80.2439 44.8866 79.1109 48.1775L69.1283 47.1165C69.1283 47.198 69.1396 47.2754 69.1396 47.3548C69.1396 48.7559 68.9959 50.1244 68.7368 51.446L78.7157 52.507C79.319 56.6289 82.6157 59.7895 86.6159 59.7895C91.0455 59.7895 94.6315 55.9283 94.6315 51.1589C94.6315 46.3915 91.0455 42.5263 86.6159 42.5263Z" fill="#FF0040"/>
<path d="M58.729 73.4633L56.642 64C55.4641 64.4258 54.2384 64.7305 52.9597 64.8828L55.0502 74.348C52.6537 75.6493 51 78.2207 51 81.2234C51 85.5219 54.3534 89 58.5044 89C62.6466 89 66 85.5201 66 81.2234C66.0053 77.0038 62.7651 73.5881 58.729 73.4633Z" fill="#FF0040"/>
<path d="M28.7138 53.3158L17.4044 57.1128C16.0996 55.1151 13.8532 53.7902 11.2969 53.7902C7.26371 53.7902 3.99997 57.0628 3.99997 61.103C3.99997 65.1485 7.26371 68.4211 11.2969 68.4211C15.3267 68.4211 18.599 65.1485 18.599 61.103C18.599 60.934 18.5629 60.7787 18.5491 60.6131L29.8947 56.8057C29.3835 55.6999 28.9772 54.5355 28.7138 53.3158Z" fill="#FF0040"/>
</svg>
