<svg width="58" height="58" viewBox="0 0 58 58" fill="none" xmlns="http://www.w3.org/2000/svg">
<path d="M52.1748 13.7735C51.8594 11.751 50.9116 9.88033 49.4673 8.42976C48.0167 6.9855 46.1461 6.03769 44.1235 5.72226C38.8775 4.99923 33.5353 5.50005 28.515 7.18554C23.4948 8.87102 18.9327 11.6954 15.1858 15.4377C11.4389 19.18 8.60889 23.7386 6.91724 28.7568C5.22559 33.775 4.71821 39.1166 5.43479 44.3635C5.75022 46.386 6.69803 48.2567 8.14229 49.7073C9.59286 51.1515 11.4635 52.0993 13.486 52.4148C15.1194 52.6803 16.7713 52.8153 18.426 52.8185C27.4529 52.7542 36.0865 49.1163 42.4373 42.701C46.2158 38.9811 49.0661 34.4244 50.7577 29.3991C52.4493 24.3739 52.9347 19.0211 52.1748 13.7735ZM10.3035 44.1973C10.234 44.0117 10.1785 43.8211 10.1373 43.6273C9.48536 39.1189 9.90466 34.5205 11.3612 30.2044C12.8178 25.8883 15.2706 21.9761 18.521 18.7848C23.988 13.2659 31.4155 10.1327 39.1835 10.0685C40.5838 10.0611 41.9821 10.1723 43.3635 10.401C43.5574 10.4422 43.7479 10.4978 43.9335 10.5673L32.2248 22.2998L30.491 20.566C30.2703 20.3434 30.0076 20.1667 29.7182 20.0461C29.4287 19.9256 29.1183 19.8635 28.8048 19.8635C28.4913 19.8635 28.1808 19.9256 27.8914 20.0461C27.602 20.1667 27.3393 20.3434 27.1185 20.566C26.6762 21.011 26.4279 21.6129 26.4279 22.2404C26.4279 22.8678 26.6762 23.4698 27.1185 23.9148L28.8523 25.6485L25.3848 29.0685L23.651 27.3348C23.2061 26.8924 22.6041 26.6441 21.9767 26.6441C21.3492 26.6441 20.7473 26.8924 20.3023 27.3348C20.0797 27.5555 19.903 27.8182 19.7824 28.1076C19.6619 28.3971 19.5998 28.7075 19.5998 29.021C19.5998 29.3345 19.6619 29.645 19.7824 29.9344C19.903 30.2238 20.0797 30.4865 20.3023 30.7073L22.036 32.441L10.3035 44.1973ZM39.0885 39.4473C35.8849 42.676 31.9682 45.108 27.6536 46.5476C23.3389 47.9872 18.7466 48.3942 14.246 47.736C14.0522 47.6948 13.8616 47.6393 13.676 47.5698L25.3848 35.8373L27.1185 37.571C27.3384 37.7924 27.5998 37.9684 27.8877 38.0889C28.1755 38.2093 28.4843 38.2719 28.7964 38.273C29.1085 38.2741 29.4177 38.2137 29.7064 38.0953C29.9951 37.9769 30.2577 37.8028 30.4792 37.5829C30.7006 37.363 30.8766 37.1017 30.997 36.8138C31.1175 36.5259 31.18 36.2171 31.1811 35.905C31.1822 35.593 31.1218 35.2837 31.0034 34.995C30.885 34.7063 30.7109 34.4437 30.491 34.2223L28.8048 32.4885L32.2248 29.0685L33.9585 30.8023C34.1805 31.0224 34.4437 31.1965 34.733 31.3147C35.0224 31.4329 35.3322 31.4928 35.6448 31.491C36.1145 31.489 36.5731 31.3478 36.9625 31.0852C37.352 30.8227 37.6549 30.4505 37.8328 30.0158C38.0107 29.5811 38.0558 29.1034 37.9623 28.6431C37.8687 28.1828 37.6408 27.7605 37.3073 27.4298L35.5735 25.696L47.306 13.9873C47.3755 14.1729 47.4311 14.3634 47.4723 14.5573C48.1165 19.0581 47.6933 23.6473 46.237 27.9544C44.7807 32.2616 42.3319 36.1659 39.0885 39.3523V39.4473Z" fill="#FF004C"/>
</svg>
