<svg width="54" height="57" viewBox="0 0 54 57" fill="none" xmlns="http://www.w3.org/2000/svg">
<path fill-rule="evenodd" clip-rule="evenodd" d="M13.5 5.34375C10.0827 5.34375 7.3125 8.26789 7.3125 11.875C7.3125 15.4821 10.0827 18.4062 13.5 18.4062C16.9173 18.4062 19.6875 15.4821 19.6875 11.875C19.6875 8.26789 16.9173 5.34375 13.5 5.34375ZM10.6875 11.875C10.6875 10.2354 11.9467 8.90625 13.5 8.90625C15.0533 8.90625 16.3125 10.2354 16.3125 11.875C16.3125 13.5146 15.0533 14.8438 13.5 14.8438C11.9467 14.8438 10.6875 13.5146 10.6875 11.875Z" fill="#FF004D"/>
<path d="M27 10.0938C26.068 10.0938 25.3125 10.8912 25.3125 11.875C25.3125 12.8588 26.068 13.6562 27 13.6562L45 13.6563C45.932 13.6563 46.6875 12.8588 46.6875 11.875C46.6875 10.8912 45.932 10.0938 45 10.0938L27 10.0938Z" fill="#FF004D"/>
<path fill-rule="evenodd" clip-rule="evenodd" d="M40.5 21.9688C37.0827 21.9688 34.3125 24.8929 34.3125 28.5C34.3125 32.1071 37.0827 35.0312 40.5 35.0312C43.9173 35.0312 46.6875 32.1071 46.6875 28.5C46.6875 24.8929 43.9173 21.9688 40.5 21.9688ZM37.6875 28.5C37.6875 26.8604 38.9467 25.5312 40.5 25.5312C42.0533 25.5312 43.3125 26.8604 43.3125 28.5C43.3125 30.1396 42.0533 31.4688 40.5 31.4688C38.9467 31.4688 37.6875 30.1396 37.6875 28.5Z" fill="#FF004D"/>
<path d="M9 26.7187C8.06802 26.7187 7.3125 27.5162 7.3125 28.5C7.3125 29.4838 8.06802 30.2812 9 30.2812L27 30.2812C27.932 30.2812 28.6875 29.4838 28.6875 28.5C28.6875 27.5162 27.932 26.7188 27 26.7188L9 26.7187Z" fill="#FF004D"/>
<path fill-rule="evenodd" clip-rule="evenodd" d="M13.5 38.5938C10.0827 38.5938 7.3125 41.5179 7.3125 45.125C7.3125 48.7321 10.0827 51.6562 13.5 51.6562C16.9173 51.6562 19.6875 48.7321 19.6875 45.125C19.6875 41.5179 16.9173 38.5938 13.5 38.5938ZM10.6875 45.125C10.6875 43.4854 11.9467 42.1562 13.5 42.1562C15.0533 42.1562 16.3125 43.4854 16.3125 45.125C16.3125 46.7646 15.0533 48.0938 13.5 48.0938C11.9467 48.0938 10.6875 46.7646 10.6875 45.125Z" fill="#FF004D"/>
<path d="M27 43.3438C26.068 43.3438 25.3125 44.1412 25.3125 45.125C25.3125 46.1088 26.068 46.9062 27 46.9062H45C45.932 46.9062 46.6875 46.1088 46.6875 45.125C46.6875 44.1412 45.932 43.3438 45 43.3438H27Z" fill="#FF004D"/>
</svg>
