<svg width="99" height="99" viewBox="0 0 99 99" fill="none" xmlns="http://www.w3.org/2000/svg">
<path d="M14.9553 55.0504C13.1299 51.9309 13.1299 48.0691 14.9553 44.9496L27.8537 22.9066C29.6476 19.8411 32.9329 17.9571 36.4847 17.9571L62.5153 17.9571C66.0671 17.9571 69.3524 19.8411 71.1463 22.9066L84.0447 44.9496C85.8701 48.0691 85.8701 51.9309 84.0447 55.0504L71.1463 77.0934C69.3524 80.1589 66.0671 82.0429 62.5153 82.0429L36.4847 82.0429C32.9329 82.0429 29.6476 80.1589 27.8537 77.0934L14.9553 55.0504Z" stroke="#FF0040" stroke-width="4"/>
<path d="M30.9404 54.4766H38.8574V58H26.7617V42.5957H38.6426V46.1191H30.9404V48.5361H36.8809V51.8447H30.9404V54.4766ZM43.26 58V42.5957H50.5217C52.1474 42.5957 53.4866 43.1042 54.5393 44.1211C55.5992 45.1309 56.1291 46.3841 56.1291 47.8809C56.1291 48.4967 56.036 49.0732 55.8498 49.6104C55.6708 50.1403 55.4524 50.5736 55.1946 50.9102C54.9368 51.2396 54.6789 51.5225 54.4211 51.7588C54.1633 51.988 53.9485 52.1455 53.7766 52.2314L53.4866 52.3926L56.677 58H52.2834L49.6409 53.1553H47.4387V58H43.26ZM51.4885 48.9766C51.7965 48.6829 51.9504 48.3177 51.9504 47.8809C51.9504 47.4368 51.7965 47.0716 51.4885 46.7852C51.1806 46.4915 50.7831 46.3447 50.2961 46.3447H47.4387V49.417H50.2961C50.7831 49.417 51.1806 49.2702 51.4885 48.9766ZM60.854 42.5957H67.7827C69.4728 42.5957 70.8478 43.1077 71.9077 44.1318C72.9676 45.1488 73.4975 46.4342 73.4975 47.9883C73.4975 49.5423 72.964 50.8314 71.897 51.8555C70.8371 52.8724 69.4656 53.3809 67.7827 53.3809H65.0327V58H60.854V42.5957ZM67.5571 46.3447H65.0327V49.6426H67.5571C68.0441 49.6426 68.4595 49.4779 68.8032 49.1484C69.147 48.819 69.3188 48.4359 69.3188 47.999C69.3188 47.555 69.147 47.1683 68.8032 46.8389C68.4595 46.5094 68.0441 46.3447 67.5571 46.3447Z" fill="#FF0040"/>
</svg>
