<svg width="40" height="35" viewBox="0 0 40 35" fill="none" xmlns="http://www.w3.org/2000/svg">
<path d="M0.706518 16.6993L9.92332 20.1393L13.4908 31.6122C13.7191 32.347 14.6176 32.6186 15.214 32.131L20.3516 27.9427C20.8901 27.5039 21.6572 27.4821 22.22 27.8906L31.4864 34.6182C32.1244 35.0819 33.0282 34.7323 33.1882 33.9614L39.9764 1.30926C40.151 0.467128 39.3236 -0.235405 38.5217 0.0747284L0.695718 14.6669C-0.237749 15.0269 -0.229615 16.3485 0.706518 16.6993ZM12.9159 18.3081L30.9289 7.21379C31.2526 7.01499 31.5857 7.45273 31.3077 7.7106L16.4417 21.5293C15.9192 22.0157 15.5821 22.6666 15.4867 23.3731L14.9803 27.1259C14.9132 27.627 14.2093 27.6767 14.0711 27.1918L12.1235 20.3485C11.9004 19.5679 12.2255 18.7342 12.9159 18.3081Z" fill="#FF0044"/>
</svg>
