<svg width="85" height="28" viewBox="0 0 85 28" fill="none" xmlns="http://www.w3.org/2000/svg">
<path d="M10.8661 8.04841C12.8367 8.04841 14.015 5.9971 14.015 4.01818C14.015 2.04328 12.8367 0 10.8661 0C8.89556 0 7.71722 2.04328 7.71722 4.01818C7.71316 5.9971 8.89151 8.04841 10.8661 8.04841ZM8.89556 4.01416C8.89556 2.65063 9.64756 1.17448 10.8661 1.17448C12.0847 1.17448 12.8367 2.64661 12.8367 4.01416C12.8367 5.38573 12.0847 6.86188 10.8661 6.86188C9.64756 6.86188 8.89556 5.38573 8.89556 4.01416Z" fill="#FF004D"/>
<path d="M32.9972 3.44707H34.445V7.91169H35.6273V0.128754H31.9717C30.6245 0.128754 29.788 0.764263 29.788 1.7859C29.788 2.74319 30.4596 3.35054 31.5937 3.435L29.2974 7.08713V7.9077H30.1901L32.9972 3.44707ZM34.441 1.31128V2.26856H32.5066C31.2317 2.26856 30.9703 2.0755 30.9703 1.78992C30.9703 1.50435 31.2317 1.31128 32.5066 1.31128H34.441Z" fill="#FF004D"/>
<path d="M9.65188 23.7151H9.50706V19.2625H8.32878V27.0455H9.50706V24.8936H9.72021L13.03 27.0455H14.2847V26.5226L10.8101 24.1656L14.2566 20.5898L14.2847 20.5617V19.2625H13.8504L9.65188 23.7151Z" fill="#FF004D"/>
<path d="M24.4472 3.29422H26.7072L27.8775 7.91575H28.7261L28.7221 6.32294L27.1738 0.128754H23.9766L22.4203 6.34305V7.91169H23.2648L24.4472 3.29422ZM24.8614 1.31128H26.2931L26.474 2.13583H24.6764L24.8614 1.31128Z" fill="#FF004D"/>
<path d="M1.18234 3.44707H5.11947V7.91169H6.30181V0.128754H5.11947V2.26856H1.18234V0.128754H0V7.91169H1.18234V3.44707Z" fill="#FF004D"/>
<path d="M21.7324 5.08417C21.7324 3.91773 21.1654 3.10122 20.5622 2.76739C20.7632 2.56225 20.9522 2.21634 20.9522 1.78999C20.9522 0.687907 20.2646 0.132843 18.9053 0.132843H15.4306V7.91582H18.9817C20.3048 7.91176 21.7324 7.02692 21.7324 5.08417ZM18.4227 2.26863H16.609V1.31135H18.4227C19.601 1.31135 19.7579 1.55268 19.7579 1.78999C19.7579 2.03937 19.597 2.26863 18.4227 2.26863ZM16.609 3.44714H18.7122C19.8624 3.44714 20.5501 4.05851 20.5501 5.08417C20.5501 6.11386 19.8624 6.73329 18.7122 6.73329H16.609V3.44714Z" fill="#FF004D"/>
<path d="M5.11947 25.8629H3.74006V19.2625H2.56175V25.8629H1.18234V19.2625H0V27.0454H6.28974L6.30181 19.2625H5.11947V25.8629Z" fill="#FF004D"/>
<path d="M0.659408 9.52078L0.0803022 10.112L0.0682373 17.2635H1.24254V10.6953H2.61389V17.2635H3.79222V10.6953H5.16357V17.2635H6.33787V10.112L5.75876 9.52078H0.659408Z" fill="#FF004D"/>
<path d="M58.5137 11.6485H56.6557V9.52078H55.4814L55.4693 17.2635H58.5137C60.5928 17.2635 61.735 16.27 61.735 14.46C61.739 12.646 60.5928 11.6485 58.5137 11.6485ZM56.6557 12.823H58.0713C60.267 12.823 60.5606 13.6515 60.5606 14.46C60.5606 15.3046 60.259 16.085 58.0713 16.085H56.6557V12.823Z" fill="#FF004D"/>
<path d="M68.3625 11.6485H64.4416V9.52078H63.2674V17.2635H64.4416V12.823H68.3625V17.2635H69.5371V9.52078H68.3625V11.6485Z" fill="#FF004D"/>
<path d="M44.37 9.52066H41.1889L39.6407 15.7028V17.2634H40.4852L41.6595 12.666H43.9075L45.0698 17.2634H45.9143L45.9102 15.6787L44.37 9.52066ZM43.6702 11.5157H41.8847L42.0697 10.6992H43.4933L43.6702 11.5157Z" fill="#FF004D"/>
<path d="M48.2828 12.6903C48.2828 15.6787 47.8365 16.089 47.3539 16.089H46.9195V17.2635H47.3539C49.2963 17.2635 49.4572 14.9024 49.4572 12.6903V10.7073H52.0148V17.2635H53.1892V9.52078H48.2828V12.6903Z" fill="#FF004D"/>
<path d="M81.3688 9.52078C80.0294 9.52078 79.1968 10.1522 79.1968 11.1698C79.1968 12.1191 79.8646 12.7264 80.9908 12.8109L78.7068 16.4429V17.2595H79.5954L82.3863 12.819H83.8261V17.2595H85V9.52078H81.3688ZM83.8261 10.6953V11.6445H81.8994C80.6328 11.6445 80.3714 11.4554 80.3714 11.1698C80.3714 10.8843 80.6328 10.6953 81.8994 10.6953H83.8261Z" fill="#FF004D"/>
<path d="M75.9713 9.52078H72.7903L71.2422 15.7029V17.2635H72.0826L73.2571 12.6661H75.5051L76.6674 17.2635H77.5116L77.5078 15.6788L75.9713 9.52078ZM75.2675 11.5158H73.4819L73.6673 10.6993H75.0904L75.2675 11.5158Z" fill="#FF004D"/>
<path d="M33.9864 19.2625H30.7893L29.2329 25.4768V27.0454H30.0775L31.2557 22.4239H33.5159L34.6862 27.0454H35.5347L35.5307 25.4526L33.9864 19.2625ZM33.2827 21.2655H31.485L31.674 20.441H33.1057L33.2827 21.2655Z" fill="#FF004D"/>
<path d="M22.3118 15.7029L20.7715 9.52078H17.5905L16.0422 15.7029V17.2635H16.8867L18.061 12.6661H20.3091L21.4713 17.2635H22.3158V15.7029H22.3118ZM20.0718 11.5158H18.2863L18.4712 10.6993H19.8949L20.0718 11.5158Z" fill="#FF004D"/>
<path d="M35.6148 9.52078H32.5705L32.5826 17.2635H33.7569V15.1357H35.6148C37.694 15.1357 38.8402 14.1382 38.8402 12.3202C38.8361 10.5182 37.694 9.52078 35.6148 9.52078ZM33.7569 10.6953H35.1725C37.3602 10.6953 37.6618 11.4755 37.6618 12.3242C37.6618 13.1327 37.3642 13.9613 35.1725 13.9613H33.7569V10.6953Z" fill="#FF004D"/>
<path d="M23.0557 22.4441C23.0557 25.4487 22.6052 25.863 22.1227 25.863H21.6883V27.0455H22.1186C24.0691 27.0455 24.2339 24.6724 24.2339 22.4481V20.4571H26.8037V27.0495H27.9861V19.2625H23.0557V22.4441Z" fill="#FF004D"/>
<path d="M18.1774 19.1256C16.2068 19.1256 15.0285 21.1689 15.0285 23.1438C15.0285 25.1267 16.2068 27.174 18.1774 27.174C20.148 27.174 21.3263 25.1227 21.3263 23.1438C21.3303 21.1689 20.152 19.1256 18.1774 19.1256ZM20.148 23.1478C20.148 24.5193 19.3959 25.9995 18.1774 25.9995C16.9589 25.9995 16.2068 24.5193 16.2068 23.1478C16.2068 21.7843 16.9589 20.3081 18.1774 20.3081C19.3959 20.3081 20.148 21.7802 20.148 23.1478Z" fill="#FF004D"/>
<path d="M8.62622 17.2634H14.8959V16.0889H9.80051V12.8229H13.3234V11.6484H9.80051V10.6951H14.8959V9.52066H8.62622V17.2634Z" fill="#FF004D"/>
<path d="M30.2825 17.2634V10.1119L29.7034 9.52066H24.604L24.0249 10.1119L24.0128 17.2634H25.1912V10.6951H26.5625V17.2634H27.7368V10.6951H29.1082V17.2634H30.2825Z" fill="#FF004D"/>
</svg>
