<svg width="57" height="57" viewBox="0 0 57 57" fill="none" xmlns="http://www.w3.org/2000/svg">
<path d="M30.8751 26.125H4.75012C4.12023 26.125 3.51614 26.3753 3.07074 26.8207C2.62534 27.2661 2.37512 27.8702 2.37512 28.5V49.875C2.37512 50.5049 2.62534 51.109 3.07074 51.5544C3.51614 51.9998 4.12023 52.25 4.75012 52.25H30.5426C30.6614 52.25 30.7564 52.25 30.8751 52.25C31.505 52.25 32.1091 51.9998 32.5545 51.5544C32.9999 51.109 33.2501 50.5049 33.2501 49.875V28.5C33.2501 27.8702 32.9999 27.2661 32.5545 26.8207C32.1091 26.3753 31.505 26.125 30.8751 26.125ZM17.6701 47.5L22.2539 42.9163C22.3189 42.8183 22.4071 42.7379 22.5107 42.6823C22.6143 42.6267 22.73 42.5976 22.8476 42.5976C22.9652 42.5976 23.0809 42.6267 23.1845 42.6823C23.2881 42.7379 23.3764 42.8183 23.4414 42.9163L28.0014 47.5H17.6701ZM28.5001 41.2775L26.7901 39.5913C25.7251 38.5736 24.3088 38.0057 22.8357 38.0057C21.3627 38.0057 19.9464 38.5736 18.8814 39.5913L10.9489 47.5H7.12512V30.875H28.5001V41.2775ZM4.75012 9.76129C5.16228 9.76122 5.56733 9.65389 5.92545 9.44984C6.28356 9.2458 6.58241 8.95207 6.79262 8.59754C7.09463 8.16661 7.25258 7.65119 7.24387 7.12504C7.24427 6.8029 7.17914 6.48405 7.05242 6.18788C6.92571 5.89171 6.74007 5.62441 6.5068 5.40224C6.27353 5.18008 5.9975 5.00769 5.6955 4.89557C5.3935 4.78345 5.07185 4.73393 4.75012 4.75004C4.12023 4.75004 3.51614 5.00026 3.07074 5.44566C2.62534 5.89106 2.37512 6.49515 2.37512 7.12504V7.36254C2.37198 7.67642 2.43109 7.98781 2.54904 8.27871C2.66699 8.5696 2.84143 8.83423 3.06229 9.05729C3.28314 9.28035 3.54602 9.45742 3.83573 9.57826C4.12543 9.6991 4.43622 9.76131 4.75012 9.76129ZM23.5364 9.50004H23.9876C24.6175 9.50004 25.2216 9.24982 25.667 8.80442C26.1124 8.35902 26.3626 7.75493 26.3626 7.12504C26.3626 6.49515 26.1124 5.89106 25.667 5.44566C25.2216 5.00026 24.6175 4.75004 23.9876 4.75004H23.5364C22.9065 4.75004 22.3024 5.00026 21.857 5.44566C21.4116 5.89106 21.1614 6.49515 21.1614 7.12504C21.1614 7.75493 21.4116 8.35902 21.857 8.80442C22.3024 9.24982 22.9065 9.50004 23.5364 9.50004ZM4.75012 20.8525C5.38001 20.8525 5.9841 20.6023 6.4295 20.1569C6.8749 19.7115 7.12512 19.1074 7.12512 18.4775V17.955C7.12512 17.3252 6.8749 16.7211 6.4295 16.2757C5.9841 15.8303 5.38001 15.58 4.75012 15.58C4.12023 15.58 3.51614 15.8303 3.07074 16.2757C2.62534 16.7211 2.37512 17.3252 2.37512 17.955V18.4775C2.37512 19.1074 2.62534 19.7115 3.07074 20.1569C3.51614 20.6023 4.12023 20.8525 4.75012 20.8525ZM33.4639 4.75004H33.0126C32.3827 4.75004 31.7786 5.00026 31.3332 5.44566C30.8878 5.89106 30.6376 6.49515 30.6376 7.12504C30.6376 7.75493 30.8878 8.35902 31.3332 8.80442C31.7786 9.24982 32.3827 9.50004 33.0126 9.50004H33.4639C34.0938 9.50004 34.6978 9.24982 35.1432 8.80442C35.5886 8.35902 35.8389 7.75493 35.8389 7.12504C35.8389 6.49515 35.5886 5.89106 35.1432 5.44566C34.6978 5.00026 34.0938 4.75004 33.4639 4.75004ZM14.0364 9.50004H14.4876C15.1175 9.50004 15.7216 9.24982 16.167 8.80442C16.6124 8.35902 16.8626 7.75493 16.8626 7.12504C16.8626 6.49515 16.6124 5.89106 16.167 5.44566C15.7216 5.00026 15.1175 4.75004 14.4876 4.75004H14.0364C13.4065 4.75004 12.8024 5.00026 12.357 5.44566C11.9116 5.89106 11.6614 6.49515 11.6614 7.12504C11.6614 7.75493 11.9116 8.35902 12.357 8.80442C12.8024 9.24982 13.4065 9.50004 14.0364 9.50004ZM52.2501 15.2C51.6202 15.2 51.0161 15.4503 50.5707 15.8957C50.1253 16.3411 49.8751 16.9452 49.8751 17.575V18.0738C49.8751 18.7037 50.1253 19.3078 50.5707 19.7532C51.0161 20.1986 51.6202 20.4488 52.2501 20.4488C52.88 20.4488 53.4841 20.1986 53.9295 19.7532C54.3749 19.3078 54.6251 18.7037 54.6251 18.0738V17.575C54.6251 16.9452 54.3749 16.3411 53.9295 15.8957C53.4841 15.4503 52.88 15.2 52.2501 15.2ZM40.6601 47.5H40.0901C39.4602 47.5 38.8561 47.7503 38.4107 48.1957C37.9653 48.6411 37.7151 49.2452 37.7151 49.875C37.7151 50.5049 37.9653 51.109 38.4107 51.5544C38.8561 51.9998 39.4602 52.25 40.0901 52.25H40.6601C41.29 52.25 41.8941 51.9998 42.3395 51.5544C42.7849 51.109 43.0351 50.5049 43.0351 49.875C43.0351 49.2452 42.7849 48.6411 42.3395 48.1957C41.8941 47.7503 41.29 47.5 40.6601 47.5ZM52.0126 4.75004C51.4247 4.80912 50.88 5.08519 50.4848 5.52435C50.0895 5.96351 49.8722 6.53422 49.8751 7.12504C49.8807 7.47087 49.9618 7.8113 50.1126 8.12254C50.3313 8.59172 50.6974 8.97659 51.155 9.21858C51.6126 9.46056 52.1367 9.54641 52.6476 9.46305C53.1585 9.37969 53.6282 9.13169 53.9852 8.7568C54.3422 8.38191 54.5669 7.90066 54.6251 7.38629V7.12504C54.5711 6.47204 54.2714 5.86383 53.7866 5.42307C53.3017 4.98231 52.6678 4.7418 52.0126 4.75004ZM52.2501 25.8875C51.6202 25.8875 51.0161 26.1378 50.5707 26.5832C50.1253 27.0286 49.8751 27.6327 49.8751 28.2625V28.785C49.8751 29.4149 50.1253 30.019 50.5707 30.4644C51.0161 30.9098 51.6202 31.16 52.2501 31.16C52.88 31.16 53.4841 30.9098 53.9295 30.4644C54.3749 30.019 54.6251 29.4149 54.6251 28.785V28.2625C54.6251 27.6327 54.3749 27.0286 53.9295 26.5832C53.4841 26.1378 52.88 25.8875 52.2501 25.8875ZM42.9639 4.75004H42.5126C41.8827 4.75004 41.2786 5.00026 40.8332 5.44566C40.3878 5.89106 40.1376 6.49515 40.1376 7.12504C40.1376 7.75493 40.3878 8.35902 40.8332 8.80442C41.2786 9.24982 41.8827 9.50004 42.5126 9.50004H42.9639C43.5938 9.50004 44.1978 9.24982 44.6432 8.80442C45.0886 8.35902 45.3389 7.75493 45.3389 7.12504C45.3389 6.49515 45.0886 5.89106 44.6432 5.44566C44.1978 5.00026 43.5938 4.75004 42.9639 4.75004ZM52.2501 47.5C51.8856 47.4996 51.5266 47.5893 51.2051 47.7613C50.809 47.9554 50.4748 48.2559 50.2399 48.6292C50.005 49.0026 49.8787 49.434 49.8751 49.875C49.8751 50.5049 50.1253 51.109 50.5707 51.5544C51.0161 51.9998 51.6202 52.25 52.2501 52.25C52.9031 52.196 53.5113 51.8963 53.9521 51.4115C54.3929 50.9267 54.6334 50.2927 54.6251 49.6375C54.566 49.0497 54.29 48.5049 53.8508 48.1097C53.4117 47.7144 52.8409 47.4971 52.2501 47.5ZM52.2501 36.67C51.6202 36.67 51.0161 36.9203 50.5707 37.3657C50.1253 37.8111 49.8751 38.4152 49.8751 39.045V39.5675C49.8751 40.1974 50.1253 40.8015 50.5707 41.2469C51.0161 41.6923 51.6202 41.9425 52.2501 41.9425C52.88 41.9425 53.4841 41.6923 53.9295 41.2469C54.3749 40.8015 54.6251 40.1974 54.6251 39.5675V38.95C54.6251 38.3202 54.3749 37.7161 53.9295 37.2707C53.4841 36.8253 52.88 36.575 52.2501 36.575V36.67Z" fill="#FF004D"/>
</svg>
