<svg width="54" height="57" viewBox="0 0 54 57" fill="none" xmlns="http://www.w3.org/2000/svg">
<path d="M34.7235 0.0206892C36.1248 0.0406426 36.881 1.75606 36.2998 3.03463C35.9939 3.70766 35.3397 4.19406 34.6021 4.18402C33.1999 4.16494 31.6062 4.16458 29.7692 4.16458H24.2308C20.3192 4.16458 17.5105 4.1662 15.3058 4.34679C13.1253 4.5254 11.7193 4.86864 10.58 5.45066C8.36543 6.58193 6.56497 8.38705 5.43662 10.6073C4.85609 11.7496 4.51374 13.1592 4.33559 15.3453C4.15546 17.5557 4.15385 20.3717 4.15385 24.2934V36.0329C4.15385 40.6662 7.90018 44.4222 12.5215 44.4222H14.1879C17.8148 44.4222 20.2948 48.0947 18.9478 51.4708C18.587 52.3751 19.6258 53.1927 20.4163 52.6266L27.646 47.4491L27.8037 47.3366C30.4597 45.4602 33.6246 44.4433 36.8737 44.4225L37.1087 44.4222C37.9996 44.4222 38.3684 44.4215 38.6335 44.409C44.6959 44.1212 49.546 39.2586 49.833 33.1805C49.8456 32.9141 49.8462 32.5866 49.8462 31.7864V24.2934C49.8462 22.4517 49.8458 20.8538 49.8268 19.448C49.8167 18.7085 50.3019 18.0526 50.9732 17.7459C52.2485 17.1632 53.9595 17.9214 53.9794 19.3263C54 20.7838 54 22.4001 54 24.2001V31.854C54 32.566 54 32.9996 53.9822 33.3775C53.5939 41.6008 47.0321 48.1796 38.8299 48.5689C38.453 48.5868 37.9769 48.5868 37.1875 48.5867H37.1087L36.9003 48.587C34.4988 48.6024 32.1595 49.354 30.1964 50.7409L30.0604 50.838L22.8307 56.0154C18.6643 58.9991 13.1895 54.6902 15.091 49.9241C15.3466 49.2836 14.8761 48.5867 14.1879 48.5867H12.5215C5.60607 48.5867 1.5154e-07 42.9662 1.5154e-07 36.0329V24.2C-1.02575e-05 20.3917 -1.85247e-05 17.4059 0.195541 15.0062C0.394679 12.5626 0.806893 10.5438 1.73551 8.71661C3.26211 5.71275 5.69803 3.27054 8.69415 1.74C10.5167 0.808979 12.5302 0.395697 14.9675 0.196046C17.3611 -2.24302e-05 20.3392 -1.23374e-05 24.1378 2.00038e-07H29.8622C31.6576 -5.61779e-06 33.2697 -1.06041e-05 34.7235 0.0206892Z" fill="#FF004D"/>
<path fill-rule="evenodd" clip-rule="evenodd" d="M38.7692 7.63506C38.7692 3.41833 42.1788 2.00038e-07 46.3846 2.00038e-07C50.5905 2.00038e-07 54 3.41833 54 7.63506C54 11.8518 50.5905 15.2701 46.3846 15.2701C42.1788 15.2701 38.7692 11.8518 38.7692 7.63506ZM46.3846 4.16458C44.4729 4.16458 42.9231 5.71836 42.9231 7.63506C42.9231 9.55175 44.4729 11.1055 46.3846 11.1055C48.2964 11.1055 49.8462 9.55175 49.8462 7.63506C49.8462 5.71836 48.2964 4.16458 46.3846 4.16458Z" fill="#FF004D"/>
<path d="M15.9231 27.0698C17.4525 27.0698 18.6923 25.8267 18.6923 24.2934C18.6923 22.76 17.4525 21.517 15.9231 21.517C14.3937 21.517 13.1538 22.76 13.1538 24.2934C13.1538 25.8267 14.3937 27.0698 15.9231 27.0698Z" fill="#FF004D"/>
<path d="M27 27.0698C28.5294 27.0698 29.7692 25.8267 29.7692 24.2934C29.7692 22.76 28.5294 21.517 27 21.517C25.4706 21.517 24.2308 22.76 24.2308 24.2934C24.2308 25.8267 25.4706 27.0698 27 27.0698Z" fill="#FF004D"/>
<path d="M40.8462 24.2934C40.8462 25.8267 39.6063 27.0698 38.0769 27.0698C36.5475 27.0698 35.3077 25.8267 35.3077 24.2934C35.3077 22.76 36.5475 21.517 38.0769 21.517C39.6063 21.517 40.8462 22.76 40.8462 24.2934Z" fill="#FF004D"/>
</svg>
