<svg width="57" height="57" viewBox="0 0 57 57" fill="none" xmlns="http://www.w3.org/2000/svg">
<path d="M49.875 42.75H45.125V35.625C45.125 34.9951 44.8748 34.391 44.4294 33.9456C43.984 33.5002 43.3799 33.25 42.75 33.25H30.875V26.8137L33.5588 28.215C33.9501 28.4197 34.3909 28.5113 34.8314 28.4793C35.2719 28.4474 35.6948 28.2932 36.0526 28.0342C36.4103 27.7751 36.6888 27.4214 36.8566 27.0128C37.0244 26.6042 37.0749 26.157 37.0025 25.7212L36.0525 20.0925L40.1375 16.0787C40.4469 15.7766 40.6679 15.3957 40.7768 14.9772C40.8856 14.5586 40.8781 14.1183 40.755 13.7037C40.6173 13.2816 40.3641 12.9066 40.0241 12.6211C39.6841 12.3357 39.2708 12.1512 38.8312 12.0887L33.25 11.21L30.6375 6.08C30.443 5.67845 30.1394 5.33981 29.7613 5.10286C29.3833 4.86591 28.9462 4.74023 28.5 4.74023C28.0538 4.74023 27.6167 4.86591 27.2387 5.10286C26.8606 5.33981 26.557 5.67845 26.3625 6.08L23.75 11.21L18.0738 12.0412C17.6342 12.1037 17.2209 12.2882 16.8809 12.5736C16.5409 12.8591 16.2877 13.2341 16.15 13.6562C16.0269 14.0708 16.0194 14.5111 16.1282 14.9297C16.2371 15.3482 16.4581 15.7291 16.7675 16.0312L20.9475 20.0925L19.9975 25.7212C19.9251 26.157 19.9756 26.6042 20.1434 27.0128C20.3112 27.4214 20.5897 27.7751 20.9474 28.0342C21.3052 28.2932 21.7281 28.4474 22.1686 28.4793C22.6091 28.5113 23.0499 28.4197 23.4412 28.215L26.125 26.8137V33.25H14.25C13.6201 33.25 13.016 33.5002 12.5706 33.9456C12.1252 34.391 11.875 34.9951 11.875 35.625V42.75H7.125C6.49511 42.75 5.89102 43.0002 5.44562 43.4456C5.00022 43.891 4.75 44.4951 4.75 45.125V49.875C4.75 50.5049 5.00022 51.109 5.44562 51.5544C5.89102 51.9998 6.49511 52.25 7.125 52.25C7.75489 52.25 8.35898 51.9998 8.80438 51.5544C9.24978 51.109 9.5 50.5049 9.5 49.875V47.5H19V49.875C19 50.5049 19.2502 51.109 19.6956 51.5544C20.141 51.9998 20.7451 52.25 21.375 52.25C22.0049 52.25 22.609 51.9998 23.0544 51.5544C23.4998 51.109 23.75 50.5049 23.75 49.875V45.125C23.75 44.4951 23.4998 43.891 23.0544 43.4456C22.609 43.0002 22.0049 42.75 21.375 42.75H16.625V38H40.375V42.75H35.625C34.9951 42.75 34.391 43.0002 33.9456 43.4456C33.5002 43.891 33.25 44.4951 33.25 45.125V49.875C33.25 50.5049 33.5002 51.109 33.9456 51.5544C34.391 51.9998 34.9951 52.25 35.625 52.25C36.2549 52.25 36.859 51.9998 37.3044 51.5544C37.7498 51.109 38 50.5049 38 49.875V47.5H47.5V49.875C47.5 50.5049 47.7502 51.109 48.1956 51.5544C48.641 51.9998 49.2451 52.25 49.875 52.25C50.5049 52.25 51.109 51.9998 51.5544 51.5544C51.9998 51.109 52.25 50.5049 52.25 49.875V45.125C52.25 44.4951 51.9998 43.891 51.5544 43.4456C51.109 43.0002 50.5049 42.75 49.875 42.75ZM28.5 20.4962C28.1102 20.4982 27.7268 20.5961 27.3837 20.7812L25.4837 21.7787L25.84 19.6412C25.9023 19.2632 25.8722 18.8756 25.7523 18.5117C25.6324 18.1477 25.4261 17.8182 25.1513 17.5512L23.6075 16.0312L25.745 15.7225C26.1274 15.6714 26.4916 15.5279 26.8061 15.3045C27.1206 15.081 27.3759 14.7843 27.55 14.44L28.5 12.4925L29.45 14.44C29.6241 14.7843 29.8794 15.081 30.1939 15.3045C30.5084 15.5279 30.8726 15.6714 31.255 15.7225L33.3925 16.0312L31.8487 17.5512C31.5739 17.8182 31.3676 18.1477 31.2477 18.5117C31.1278 18.8756 31.0977 19.2632 31.16 19.6412L31.5163 21.7787L29.6163 20.7812C29.2732 20.5961 28.8898 20.4982 28.5 20.4962Z" fill="#FF004D"/>
</svg>
