<svg width="84" height="135" viewBox="0 0 84 135" fill="none" xmlns="http://www.w3.org/2000/svg">
<path fill-rule="evenodd" clip-rule="evenodd" d="M13.2221 0H70.682C77.9725 0 83.9043 5.93156 83.9041 13.2221V121.778C83.9041 129.068 77.9725 135 70.682 135H13.2221C5.93156 135 0 129.068 0 121.778V13.2221C0 5.93156 5.93156 0 13.2221 0ZM70.682 129.622C75.007 129.622 78.5257 126.103 78.5257 121.778V113.585L5.37838 113.506V121.778C5.37838 126.103 8.89708 129.622 13.2221 129.622H70.682ZM5.37838 108.006V13.2221C5.37838 8.89708 8.89708 5.37838 13.2221 5.37838H70.682C75.007 5.37838 78.5257 8.89708 78.5257 13.2221V107.839V108.085L42.0045 108.045L14.2407 108.015L5.37838 108.006ZM46 14C46 16.2091 44.2091 18 42 18C39.7909 18 38 16.2091 38 14C38 11.7909 39.7909 10 42 10C44.2091 10 46 11.7909 46 14ZM41.5 44C39.485 44 37.8571 45.6313 37.8571 47.6429V54.9286C37.8571 56.9435 39.485 58.5714 41.5 58.5714H48.7857C50.8007 58.5714 52.4286 56.9435 52.4286 54.9286V47.6429C52.4286 45.6313 50.8007 44 48.7857 44H41.5ZM36.696 61.6109C35.5917 59.8692 33.4629 59.2658 31.7212 60.1766L25.4111 63.8194C23.6694 64.9237 23.0717 67.1549 24.078 68.8967L27.623 75.2033C28.7272 76.9451 30.9585 77.537 32.7002 76.5353L39.0069 72.8924C40.7487 71.7882 41.3406 69.6594 40.3388 67.9176L36.696 61.6109ZM59.7143 65.8571C59.7143 63.8422 58.0864 62.2143 56.0714 62.2143H48.7857C46.7708 62.2143 45.1429 63.8422 45.1429 65.8571V73.1429C45.1429 75.1578 46.7708 76.7857 48.7857 76.7857H56.0714C58.0864 76.7857 59.7143 75.1578 59.7143 73.1429V65.8571ZM67 84.0714C67 82.0565 65.3721 80.4286 63.3571 80.4286H56.0714C54.0565 80.4286 52.4286 82.0565 52.4286 84.0714V91.3571C52.4286 93.3721 54.0565 95 56.0714 95H63.3571C65.3721 95 67 93.3721 67 91.3571V84.0714ZM37.8571 80.4286C35.8422 80.4286 34.2143 82.0565 34.2143 84.0714V91.3571C34.2143 93.3721 35.8422 95 37.8571 95H45.1429C47.1578 95 48.7857 93.3721 48.7857 91.3571V84.0714C48.7857 82.0565 47.1578 80.4286 45.1429 80.4286H37.8571ZM30.5714 84.0714C30.5714 82.0565 28.9435 80.4286 26.9286 80.4286H19.6429C17.6313 80.4286 16 82.0565 16 84.0714V91.3571C16 93.3721 17.6313 95 19.6429 95H26.9286C28.9435 95 30.5714 93.3721 30.5714 91.3571V84.0714Z" fill="#FF0040"/>
</svg>
