<svg width="54" height="57" viewBox="0 0 54 57" fill="none" xmlns="http://www.w3.org/2000/svg">
<path fill-rule="evenodd" clip-rule="evenodd" d="M39.9911 13.7005C37.9308 11.6027 35.5818 10.9204 33.3676 11.0823C31.2575 11.2365 29.4048 12.1422 28.1038 12.9661C27.4735 13.3653 26.5264 13.3653 25.8962 12.9661C24.5952 12.1422 22.7425 11.2365 20.6323 11.0823C18.4182 10.9205 16.0692 11.6027 14.0089 13.7005C11.5868 16.1666 10.8413 19.2163 11.1394 22.2246C11.4312 25.1693 12.7139 28.1001 14.3683 30.6433C16.0313 33.1997 18.1552 35.4969 20.3012 37.1751C22.3569 38.7827 24.7752 40.0903 27 40.0903C29.2249 40.0903 31.6431 38.7827 33.6988 37.1751C35.8449 35.4969 37.9688 33.1997 39.6317 30.6433C41.2861 28.1001 42.5688 25.1693 42.8606 22.2246C43.1587 19.2163 42.4132 16.1666 39.9911 13.7005ZM30.3288 16.4682C31.3452 15.8245 32.5225 15.3024 33.6709 15.2185C34.7154 15.1421 35.8536 15.4113 37.0253 16.6042C38.4392 18.0439 38.9262 19.8052 38.7269 21.8163C38.5213 23.891 37.5768 26.188 36.1481 28.3844C34.7279 30.5676 32.9127 32.5219 31.1375 33.9101C29.2719 35.369 27.7868 35.943 27 35.943C26.2132 35.943 24.7281 35.369 22.8626 33.9101C21.0874 32.5219 19.2721 30.5676 17.8519 28.3844C16.4232 26.188 15.4787 23.891 15.2731 21.8163C15.0738 19.8052 15.5608 18.0439 16.9747 16.6042C18.1463 15.4113 19.2846 15.1422 20.3291 15.2185C21.4775 15.3024 22.6547 15.8245 23.6711 16.4683C25.6597 17.7277 28.3403 17.7277 30.3288 16.4682Z" fill="#FF004D"/>
<path fill-rule="evenodd" clip-rule="evenodd" d="M39.0915 0.219104C36.5565 -2.53171e-05 33.3959 -1.41061e-05 29.3645 2.31328e-07H24.6355C20.6041 -1.41061e-05 17.4435 -2.53171e-05 14.9085 0.219104C12.3263 0.442313 10.1996 0.904621 8.29196 1.94465C5.61282 3.40525 3.41065 5.60394 1.94773 8.27884C0.906054 10.1835 0.443014 12.3068 0.219451 14.8849C-2.53572e-05 17.4159 -1.41284e-05 20.5715 2.31694e-07 24.5965V33.3178C2.31694e-07 33.4796 2.31711e-07 33.578 0.000928028 33.664C0.0943864 42.3099 7.09159 49.296 15.7512 49.3893C15.8376 49.3903 15.9367 49.3903 16.0999 49.3903L16.13 49.3903L16.1333 49.3903C16.3189 49.3913 16.4963 49.4666 16.6257 49.5994L16.6279 49.6017L17.6249 50.6359C19.4126 52.4905 20.9006 54.0341 22.2441 55.0945C23.6603 56.2123 25.1654 57 27 57C28.8346 57 30.3397 56.2123 31.756 55.0945C33.0994 54.0341 34.5873 52.4906 36.375 50.6361L37.372 49.6018L37.3743 49.5994C37.5037 49.4666 37.6811 49.3913 37.8667 49.3903L37.8701 49.3903L37.9001 49.3903C38.0633 49.3903 38.1624 49.3903 38.2488 49.3893C46.9084 49.296 53.9056 42.3099 53.9991 33.664C54 33.5777 54 33.4788 54 33.3159V24.5967C54 20.5716 54 17.4159 53.7805 14.8849C53.557 12.3068 53.0939 10.1835 52.0523 8.27884C50.5894 5.60394 48.3872 3.40525 45.708 1.94465C43.8004 0.904621 41.6737 0.442313 39.0915 0.219104ZM10.2827 5.58462C11.4767 4.93365 12.9584 4.55046 15.2668 4.35092C17.6017 4.14909 20.5828 4.14728 24.7343 4.14728H29.2657C33.4172 4.14728 36.3983 4.14909 38.7332 4.35092C41.0416 4.55046 42.5233 4.93365 43.7173 5.58462C45.6975 6.6642 47.3252 8.28932 48.4065 10.2664C49.0585 11.4586 49.4423 12.9379 49.6422 15.2426C49.8443 17.5738 49.8462 20.5502 49.8462 24.6951V33.3024C49.8462 33.3365 49.8461 33.3668 49.8461 33.394C49.8461 33.5116 49.846 33.57 49.8455 33.6192C49.7764 40.0097 44.6045 45.1733 38.2039 45.2423C38.1432 45.243 38.0687 45.243 37.8867 45.243L37.8437 45.2431C36.5449 45.2502 35.3034 45.7776 34.3975 46.7069L34.3677 46.7378L33.4844 47.654C31.568 49.6419 30.2748 50.9768 29.1799 51.8411C28.1322 52.668 27.5217 52.8527 27 52.8527C26.4783 52.8527 25.8678 52.668 24.8201 51.8411C23.7252 50.9768 22.432 49.6419 20.5156 47.654L19.6323 46.7378L19.6025 46.7069C18.6966 45.7776 17.4551 45.2502 16.1563 45.2431L16.1133 45.243C15.9313 45.243 15.8568 45.243 15.7961 45.2423C9.39546 45.1733 4.22361 40.0097 4.15453 33.6192C4.15388 33.5586 4.15385 33.4842 4.15385 33.3024V24.6951C4.15385 20.5502 4.15566 17.5738 4.35782 15.2426C4.55767 12.9379 4.94147 11.4586 5.59347 10.2664C6.67476 8.28932 8.30245 6.6642 10.2827 5.58462Z" fill="#FF004D"/>
</svg>
