<svg width="21" height="35" viewBox="0 0 21 35" fill="none" xmlns="http://www.w3.org/2000/svg">
<path d="M19.5392 31.3358C20.3203 32.1168 20.3203 33.3832 19.5392 34.1642C18.7582 34.9453 17.4918 34.9453 16.7108 34.1642L19.5392 31.3358ZM2.875 17.5L1.46079 18.9142L0.0465729 17.5L1.46079 16.0858L2.875 17.5ZM16.7108 0.835787C17.4918 0.0547371 18.7582 0.0547371 19.5392 0.835787C20.3203 1.61683 20.3203 2.88317 19.5392 3.66421L16.7108 0.835787ZM16.7108 34.1642L1.46079 18.9142L4.28921 16.0858L19.5392 31.3358L16.7108 34.1642ZM1.46079 16.0858L16.7108 0.835787L19.5392 3.66421L4.28921 18.9142L1.46079 16.0858Z" fill="#FF005C"/>
</svg>
