<svg width="57" height="57" viewBox="0 0 57 57" fill="none" xmlns="http://www.w3.org/2000/svg">
<path d="M16.625 30.125C16.625 28.2394 16.625 27.2966 17.2108 26.7108C17.7966 26.125 18.7394 26.125 20.625 26.125H36.375C38.2606 26.125 39.2034 26.125 39.7892 26.7108C40.375 27.2966 40.375 28.2394 40.375 30.125V41.875C40.375 45.6462 40.375 47.5319 39.2034 48.7034C38.0319 49.875 36.1462 49.875 32.375 49.875H24.625C20.8538 49.875 18.9681 49.875 17.7966 48.7034C16.625 47.5319 16.625 45.6462 16.625 41.875V30.125Z" stroke="#FF004D" stroke-width="3"/>
<path d="M21.375 18.25C21.375 16.3644 21.375 15.4216 21.9608 14.8358C22.5466 14.25 23.4894 14.25 25.375 14.25H31.625C33.5106 14.25 34.4534 14.25 35.0392 14.8358C35.625 15.4216 35.625 16.3644 35.625 18.25V26.125H21.375V18.25Z" stroke="#FF004D" stroke-width="3"/>
<path d="M28.5 26.125V35.625" stroke="#FF004D" stroke-width="3"/>
<path d="M35.625 7.125L30.875 14.25" stroke="#FF004D" stroke-width="3"/>
<path d="M21.375 7.125L26.125 14.25" stroke="#FF004D" stroke-width="3"/>
<path d="M16.625 38H4.75" stroke="#FF004D" stroke-width="3"/>
<path d="M52.25 38H40.375" stroke="#FF004D" stroke-width="3"/>
<path d="M47.5 21.375V24.875C47.5 27.7034 47.5 29.1176 46.6213 29.9963C45.7426 30.875 44.3284 30.875 41.5 30.875H40.375" stroke="#FF004D" stroke-width="3"/>
<path d="M47.5 52.25V51.125C47.5 48.2966 47.5 46.8824 46.6213 46.0037C45.7426 45.125 44.3284 45.125 41.5 45.125H40.375" stroke="#FF004D" stroke-width="3"/>
<path d="M9.5 21.375V24.875C9.5 27.7034 9.5 29.1176 10.3787 29.9963C11.2574 30.875 12.6716 30.875 15.5 30.875H16.625" stroke="#FF004D" stroke-width="3"/>
<path d="M9.5 52.25V51.125C9.5 48.2966 9.5 46.8824 10.3787 46.0037C11.2574 45.125 12.6716 45.125 15.5 45.125H16.625" stroke="#FF004D" stroke-width="3"/>
</svg>
