<svg width="57" height="57" viewBox="0 0 57 57" fill="none" xmlns="http://www.w3.org/2000/svg">
<mask id="mask0_109_1418" style="mask-type:alpha" maskUnits="userSpaceOnUse" x="7" y="7" width="43" height="43">
<path d="M7.125 15.125C7.125 11.3538 7.125 9.46815 8.29657 8.29657C9.46815 7.125 11.3538 7.125 15.125 7.125H41.875C45.6462 7.125 47.5319 7.125 48.7034 8.29657C49.875 9.46815 49.875 11.3538 49.875 15.125V41.875C49.875 45.6462 49.875 47.5319 48.7034 48.7034C47.5319 49.875 45.6462 49.875 41.875 49.875H15.125C11.3538 49.875 9.46815 49.875 8.29657 48.7034C7.125 47.5319 7.125 45.6462 7.125 41.875V15.125Z" fill="#273B4A"/>
</mask>
<g mask="url(#mask0_109_1418)">
<path d="M17.1973 25.5527L9.64435 33.1057C8.40366 34.3463 7.78331 34.9667 7.47862 35.7607C7.17393 36.5547 7.22004 37.4308 7.31226 39.183L8.3125 58.1875H49.875V42.7504C49.875 40.9958 49.875 40.1185 49.529 39.3416C49.183 38.5647 48.5309 37.9778 47.2267 36.804L40.8208 31.0387C39.4852 29.8367 38.8174 29.2357 38.0199 29.2566C37.2224 29.2776 36.5871 29.9129 35.3165 31.1835L30.5888 35.9112C29.6424 36.8576 29.1692 37.3308 28.6482 37.2304C28.1272 37.1301 27.8636 36.515 27.3363 35.2848L23.7023 26.8054C22.6479 24.345 22.1206 23.1148 21.0786 22.9141C20.0365 22.7135 19.0901 23.6599 17.1973 25.5527Z" stroke="#FF004D" stroke-width="3"/>
</g>
<path d="M7.125 15.125C7.125 11.3538 7.125 9.46815 8.29657 8.29657C9.46815 7.125 11.3538 7.125 15.125 7.125H41.875C45.6462 7.125 47.5319 7.125 48.7034 8.29657C49.875 9.46815 49.875 11.3538 49.875 15.125V41.875C49.875 45.6462 49.875 47.5319 48.7034 48.7034C47.5319 49.875 45.6462 49.875 41.875 49.875H15.125C11.3538 49.875 9.46815 49.875 8.29657 48.7034C7.125 47.5319 7.125 45.6462 7.125 41.875V15.125Z" stroke="#FF004D" stroke-width="3"/>
<circle cx="39.1875" cy="17.8125" r="3.5625" fill="#FF004D"/>
</svg>
