<svg width="57" height="57" viewBox="0 0 57 57" fill="none" xmlns="http://www.w3.org/2000/svg">
<path d="M28.2625 32.5755C26.3093 32.5755 24.4 31.9963 22.7761 30.9112C21.1521 29.8261 19.8864 28.2838 19.1389 26.4793C18.3915 24.6748 18.1959 22.6893 18.577 20.7736C18.958 18.858 19.8985 17.0984 21.2796 15.7173C22.6607 14.3363 24.4203 13.3957 26.3359 13.0147C28.2515 12.6337 30.2371 12.8292 32.0416 13.5767C33.846 14.3241 35.3883 15.5898 36.4734 17.2138C37.5585 18.8378 38.1377 20.7471 38.1377 22.7002C38.1308 25.3172 37.0882 27.825 35.2377 29.6754C33.3872 31.5259 30.8794 32.5686 28.2625 32.5755V32.5755ZM28.2625 18.05C27.3427 18.05 26.4437 18.3227 25.6789 18.8337C24.9142 19.3446 24.3182 20.0709 23.9662 20.9206C23.6142 21.7704 23.5221 22.7054 23.7016 23.6074C23.881 24.5095 24.3239 25.3381 24.9742 25.9884C25.6246 26.6388 26.4532 27.0817 27.3552 27.2611C28.2573 27.4405 29.1923 27.3484 30.042 26.9965C30.8918 26.6445 31.618 26.0485 32.129 25.2837C32.64 24.519 32.9127 23.6199 32.9127 22.7002C32.9127 21.4669 32.4228 20.2841 31.5507 19.412C30.6786 18.5399 29.4958 18.05 28.2625 18.05V18.05Z" fill="#FF004D"/>
<path d="M41.3249 44.1751C40.632 44.1751 39.9675 43.8998 39.4776 43.4099C38.9876 42.92 38.7124 42.2555 38.7124 41.5626C38.7124 40.3824 38.4799 39.2138 38.0283 38.1234C37.5767 37.0331 36.9147 36.0423 36.0802 35.2078C35.2456 34.3733 34.2549 33.7113 33.1646 33.2597C32.0742 32.808 30.9056 32.5756 29.7254 32.5756H26.7994C24.4159 32.5756 22.13 33.5224 20.4446 35.2078C18.7592 36.8932 17.8124 39.1791 17.8124 41.5626C17.8124 42.2555 17.5372 42.92 17.0472 43.4099C16.5573 43.8998 15.8928 44.1751 15.1999 44.1751C14.507 44.1751 13.8425 43.8998 13.3526 43.4099C12.8626 42.92 12.5874 42.2555 12.5874 41.5626C12.5943 37.7955 14.0939 34.1846 16.7576 31.5208C19.4214 28.857 23.0323 27.3575 26.7994 27.3506H29.7254C33.4925 27.3575 37.1034 28.857 39.7672 31.5208C42.4309 34.1846 43.9305 37.7955 43.9374 41.5626C43.9374 42.2555 43.6622 42.92 43.1722 43.4099C42.6823 43.8998 42.0178 44.1751 41.3249 44.1751Z" fill="#FF004D"/>
<path d="M42.8925 52.0125H13.6325C11.2788 52.0057 9.02354 51.0676 7.35924 49.4033C5.69494 47.739 4.75689 45.4837 4.75 43.13V13.87C4.75689 11.5164 5.69494 9.26109 7.35924 7.59679C9.02354 5.93249 11.2788 4.99444 13.6325 4.98755H42.8925C45.2462 4.99444 47.5015 5.93249 49.1658 7.59679C50.8301 9.26109 51.7681 11.5164 51.775 13.87V43.13C51.7681 45.4837 50.8301 47.739 49.1658 49.4033C47.5015 51.0676 45.2462 52.0057 42.8925 52.0125V52.0125ZM13.6325 10.2125C12.6625 10.2125 11.7322 10.5979 11.0463 11.2838C10.3603 11.9697 9.975 12.9 9.975 13.87V43.13C9.975 44.1001 10.3603 45.0304 11.0463 45.7163C11.7322 46.4022 12.6625 46.7875 13.6325 46.7875H42.8925C43.8625 46.7875 44.7928 46.4022 45.4787 45.7163C46.1646 45.0304 46.55 44.1001 46.55 43.13V13.87C46.55 12.9 46.1646 11.9697 45.4787 11.2838C44.7928 10.5979 43.8625 10.2125 42.8925 10.2125H13.6325Z" fill="#FF004D"/>
<path d="M54.3873 25.3129H49.1623C48.4694 25.3129 47.8049 25.0376 47.315 24.5477C46.825 24.0578 46.5498 23.3933 46.5498 22.7004C46.5498 22.0075 46.825 21.343 47.315 20.8531C47.8049 20.3631 48.4694 20.0879 49.1623 20.0879H54.3873C55.0802 20.0879 55.7447 20.3631 56.2346 20.8531C56.7246 21.343 56.9998 22.0075 56.9998 22.7004C56.9998 23.3933 56.7246 24.0578 56.2346 24.5477C55.7447 25.0376 55.0802 25.3129 54.3873 25.3129Z" fill="#FF004D"/>
<path d="M54.3873 38.9501H49.1623C48.4694 38.9501 47.8049 38.6749 47.315 38.1849C46.825 37.695 46.5498 37.0305 46.5498 36.3376C46.5498 35.6447 46.825 34.9802 47.315 34.4903C47.8049 34.0003 48.4694 33.7251 49.1623 33.7251H54.3873C55.0802 33.7251 55.7447 34.0003 56.2346 34.4903C56.7246 34.9802 56.9998 35.6447 56.9998 36.3376C56.9998 37.0305 56.7246 37.695 56.2346 38.1849C55.7447 38.6749 55.0802 38.9501 54.3873 38.9501Z" fill="#FF004D"/>
</svg>
