<svg width="57" height="57" viewBox="0 0 57 57" fill="none" xmlns="http://www.w3.org/2000/svg">
<path d="M28.5 7.125L29.1708 5.78336L28.5 5.44795L27.8292 5.78336L28.5 7.125ZM49.875 17.8125H51.375V16.8854L50.5458 16.4709L49.875 17.8125ZM49.875 39.1875L50.5458 40.5291L51.375 40.1146V39.1875H49.875ZM28.5 49.875L27.8292 51.2166L28.5 51.5521L29.1708 51.2166L28.5 49.875ZM7.125 39.1875H5.625V40.1146L6.45418 40.5291L7.125 39.1875ZM7.125 17.8125L6.45418 16.4709L5.625 16.8854V17.8125H7.125ZM38.875 30.875C38.875 31.7034 39.5466 32.375 40.375 32.375C41.2034 32.375 41.875 31.7034 41.875 30.875H38.875ZM40.375 22.5625H41.875V21.6354L41.0458 21.2209L40.375 22.5625ZM19.6708 10.5334C18.9299 10.1629 18.0288 10.4632 17.6584 11.2042C17.2879 11.9451 17.5882 12.8462 18.3292 13.2166L19.6708 10.5334ZM27 48.6875C27 49.5159 27.6716 50.1875 28.5 50.1875C29.3284 50.1875 30 49.5159 30 48.6875H27ZM27.8292 8.46664L49.2042 19.1541L50.5458 16.4709L29.1708 5.78336L27.8292 8.46664ZM48.375 17.8125V39.1875H51.375V17.8125H48.375ZM49.2042 37.8459L27.8292 48.5334L29.1708 51.2166L50.5458 40.5291L49.2042 37.8459ZM29.1708 48.5334L7.79582 37.8459L6.45418 40.5291L27.8292 51.2166L29.1708 48.5334ZM8.625 39.1875V17.8125H5.625V39.1875H8.625ZM7.79582 19.1541L29.1708 8.46664L27.8292 5.78336L6.45418 16.4709L7.79582 19.1541ZM49.2042 16.4709L27.8292 27.1584L29.1708 29.8416L50.5458 19.1541L49.2042 16.4709ZM29.1708 27.1584L7.79582 16.4709L6.45418 19.1541L27.8292 29.8416L29.1708 27.1584ZM41.875 30.875V22.5625H38.875V30.875H41.875ZM41.0458 21.2209L19.6708 10.5334L18.3292 13.2166L39.7042 23.9041L41.0458 21.2209ZM30 48.6875V28.5H27V48.6875H30Z" fill="#FF004D"/>
</svg>
