<svg width="57" height="57" viewBox="0 0 57 57" fill="none" xmlns="http://www.w3.org/2000/svg">
<path d="M43.9375 23.75L45.0483 22.742C44.764 22.4287 44.3606 22.25 43.9375 22.25V23.75ZM52.25 32.9107H53.75C53.75 32.538 53.6113 32.1787 53.3608 31.9027L52.25 32.9107ZM52.25 42.75L52.2502 44.25C53.0786 44.2499 53.75 43.5783 53.75 42.75H52.25ZM47.2975 42.7507L45.8832 43.2503V43.2503L47.2975 42.7507ZM40.5775 42.7507L41.9918 43.2503V43.2503L40.5775 42.7507ZM35.625 23.75V22.25C34.7966 22.25 34.125 22.9216 34.125 23.75H35.625ZM2.375 12.75C1.54657 12.75 0.875 13.4216 0.875 14.25C0.875 15.0784 1.54657 15.75 2.375 15.75V12.75ZM35.625 14.25H37.125C37.125 13.4216 36.4534 12.75 35.625 12.75V14.25ZM9.5004 41.25C8.67198 41.2498 8.00022 41.9212 8 42.7496C7.99978 43.578 8.67117 44.2498 9.4996 44.25L9.5004 41.25ZM10.6875 30C11.5159 30 12.1875 29.3284 12.1875 28.5C12.1875 27.6716 11.5159 27 10.6875 27V30ZM7.125 27C6.29657 27 5.625 27.6716 5.625 28.5C5.625 29.3284 6.29657 30 7.125 30V27ZM10.6875 37.125C11.5159 37.125 12.1875 36.4534 12.1875 35.625C12.1875 34.7966 11.5159 34.125 10.6875 34.125V37.125ZM9.5 34.125C8.67157 34.125 8 34.7966 8 35.625C8 36.4534 8.67157 37.125 9.5 37.125V34.125ZM10.6875 22.875C11.5159 22.875 12.1875 22.2034 12.1875 21.375C12.1875 20.5466 11.5159 19.875 10.6875 19.875V22.875ZM4.75 19.875C3.92157 19.875 3.25 20.5466 3.25 21.375C3.25 22.2034 3.92157 22.875 4.75 22.875V19.875ZM42.8267 24.758L51.1392 33.9187L53.3608 31.9027L45.0483 22.742L42.8267 24.758ZM50.75 32.9107V42.75H53.75V32.9107H50.75ZM52.2498 41.25L47.2973 41.2507L47.2977 44.2507L52.2502 44.25L52.2498 41.25ZM48.7119 42.2511C48.0179 40.2864 46.1445 38.875 43.9375 38.875V41.875C44.8333 41.875 45.5994 42.447 45.8832 43.2503L48.7119 42.2511ZM43.9375 38.875C41.7305 38.875 39.8571 40.2864 39.1631 42.2511L41.9918 43.2503C42.2756 42.447 43.0417 41.875 43.9375 41.875V38.875ZM40.5777 41.2507L35.6252 41.25L35.6248 44.25L40.5773 44.2507L40.5777 41.2507ZM37.125 42.75V23.75H34.125V42.75H37.125ZM35.625 25.25H43.9375V22.25H35.625V25.25ZM2.375 15.75H35.625V12.75H2.375V15.75ZM34.125 14.25V42.75H37.125V14.25H34.125ZM35.6249 41.25L18.7975 41.2507L18.7976 44.2507L35.6251 44.25L35.6249 41.25ZM20.2119 42.2511C19.5179 40.2864 17.6445 38.875 15.4375 38.875V41.875C16.3333 41.875 17.0994 42.447 17.3832 43.2503L20.2119 42.2511ZM15.4375 38.875C13.2305 38.875 11.3571 40.2864 10.6631 42.2511L13.4918 43.2503C13.7756 42.447 14.5417 41.875 15.4375 41.875V38.875ZM12.0779 41.2507L9.5004 41.25L9.4996 44.25L12.0771 44.2507L12.0779 41.2507ZM43.9375 41.875C45.0766 41.875 46 42.7984 46 43.9375H49C49 41.1416 46.7334 38.875 43.9375 38.875V41.875ZM46 43.9375C46 45.0766 45.0766 46 43.9375 46V49C46.7334 49 49 46.7334 49 43.9375H46ZM43.9375 46C42.7984 46 41.875 45.0766 41.875 43.9375H38.875C38.875 46.7334 41.1416 49 43.9375 49V46ZM41.875 43.9375C41.875 42.7984 42.7984 41.875 43.9375 41.875V38.875C41.1416 38.875 38.875 41.1416 38.875 43.9375H41.875ZM15.4375 41.875C16.5766 41.875 17.5 42.7984 17.5 43.9375H20.5C20.5 41.1416 18.2334 38.875 15.4375 38.875V41.875ZM17.5 43.9375C17.5 45.0766 16.5766 46 15.4375 46V49C18.2334 49 20.5 46.7334 20.5 43.9375H17.5ZM15.4375 46C14.2984 46 13.375 45.0766 13.375 43.9375H10.375C10.375 46.7334 12.6416 49 15.4375 49V46ZM13.375 43.9375C13.375 42.7984 14.2984 41.875 15.4375 41.875V38.875C12.6416 38.875 10.375 41.1416 10.375 43.9375H13.375ZM10.6875 27H7.125V30H10.6875V27ZM10.6875 34.125H9.5V37.125H10.6875V34.125ZM10.6875 19.875H4.75V22.875H10.6875V19.875ZM39.1631 42.2511C38.9761 42.7806 38.875 43.3489 38.875 43.9375H41.875C41.875 43.6939 41.9166 43.4633 41.9918 43.2503L39.1631 42.2511ZM49 43.9375C49 43.3489 48.8989 42.7806 48.7119 42.2511L45.8832 43.2503C45.9584 43.4633 46 43.6939 46 43.9375H49ZM10.6631 42.2511C10.4761 42.7806 10.375 43.3489 10.375 43.9375H13.375C13.375 43.6939 13.4166 43.4633 13.4918 43.2503L10.6631 42.2511ZM20.5 43.9375C20.5 43.3489 20.3989 42.7806 20.2119 42.2511L17.3832 43.2503C17.4584 43.4633 17.5 43.6939 17.5 43.9375H20.5Z" fill="#FF004D"/>
</svg>
