<svg width="57" height="57" viewBox="0 0 57 57" fill="none" xmlns="http://www.w3.org/2000/svg">
<path d="M14.25 47.5H7.55C6.0036 47.5 4.75 46.2464 4.75 44.7V38V33.25M14.25 9.5H7.55C6.0036 9.5 4.75 10.7536 4.75 12.3V19V23.75" stroke="#FF004D" stroke-width="3" stroke-linecap="round"/>
<path d="M42.75 9.5H49.45C50.9964 9.5 52.25 10.7536 52.25 12.3V44.7C52.25 46.2464 50.9964 47.5 49.45 47.5H42.75" stroke="#FF004D" stroke-width="3" stroke-linecap="round"/>
<path d="M26.125 33.25L30.7944 23.6269" stroke="#FF004D" stroke-width="3" stroke-linecap="round"/>
<path d="M38 35.625L44.4179 29.2071C44.8084 28.8166 44.8084 28.1834 44.4179 27.7929L38 21.375" stroke="#FF004D" stroke-width="3" stroke-linecap="round" stroke-dasharray="0.2 0.2"/>
<path d="M19 35.625L12.5821 29.2071C12.1916 28.8166 12.1916 28.1834 12.5821 27.7929L19 21.375" stroke="#FF004D" stroke-width="3" stroke-linecap="round" stroke-dasharray="0.2 0.2"/>
</svg>
