<svg width="57" height="57" viewBox="0 0 57 57" fill="none" xmlns="http://www.w3.org/2000/svg">
<path d="M47.5 16.625C46.4912 16.6283 45.5096 16.9527 44.6975 17.5513L40.5412 15.6513L45.125 13.5613C45.842 13.9965 46.6614 14.2341 47.5 14.25C48.4395 14.25 49.3578 13.9714 50.139 13.4495C50.9201 12.9275 51.5289 12.1857 51.8884 11.3177C52.2479 10.4498 52.342 9.49473 52.1587 8.57332C51.9755 7.65191 51.5231 6.80554 50.8588 6.14124C50.1945 5.47695 49.3481 5.02455 48.4267 4.84127C47.5053 4.65799 46.5502 4.75206 45.6823 5.11157C44.8143 5.47109 44.0725 6.07991 43.5505 6.86104C43.0286 7.64218 42.75 8.56054 42.75 9.5L38.2613 11.5663C37.6479 11.1306 36.9399 10.8469 36.1955 10.7385C35.4511 10.63 34.6916 10.7 33.9795 10.9425C33.2674 11.185 32.623 11.5932 32.0995 12.1334C31.576 12.6736 31.1883 13.3305 30.9684 14.0499C30.7484 14.7693 30.7024 15.5306 30.8342 16.2713C30.9661 17.0119 31.2719 17.7106 31.7266 18.3099C32.1813 18.9092 32.7718 19.392 33.4496 19.7184C34.1274 20.0448 34.8729 20.2056 35.625 20.1875C36.3901 20.1879 37.1425 19.9916 37.81 19.6175L42.7975 21.9925C42.9162 22.8982 43.2936 23.7504 43.8843 24.447C44.4751 25.1437 45.2542 25.6553 46.1283 25.9204C47.0023 26.1856 47.9343 26.1931 48.8126 25.9421C49.6908 25.6911 50.4781 25.1922 51.08 24.5051C51.6819 23.8181 52.0729 22.9721 52.2063 22.0685C52.3396 21.1648 52.2096 20.2419 51.8318 19.4103C51.454 18.5787 50.8444 17.8736 50.0761 17.3796C49.3078 16.8856 48.4134 16.6236 47.5 16.625ZM45.125 30.875C44.4951 30.875 43.891 31.1252 43.4456 31.5706C43.0002 32.016 42.75 32.6201 42.75 33.25V34.1763L39.235 30.6613C38.6236 30.0459 37.8964 29.5575 37.0955 29.2242C36.2946 28.8909 35.4356 28.7193 34.5681 28.7193C33.7006 28.7193 32.8417 28.8909 32.0407 29.2242C31.2398 29.5575 30.5127 30.0459 29.9013 30.6613L28.2388 32.3238L22.3487 26.41C21.1076 25.1787 19.4302 24.4877 17.6819 24.4877C15.9336 24.4877 14.2561 25.1787 13.015 26.41L9.5 29.925V16.625C9.5 15.9951 9.75022 15.391 10.1956 14.9456C10.641 14.5002 11.2451 14.25 11.875 14.25H23.75C24.3799 14.25 24.984 13.9998 25.4294 13.5544C25.8748 13.109 26.125 12.5049 26.125 11.875C26.125 11.2451 25.8748 10.641 25.4294 10.1956C24.984 9.75023 24.3799 9.5 23.75 9.5H11.875C9.98533 9.5 8.17306 10.2507 6.83686 11.5869C5.50067 12.9231 4.75 14.7353 4.75 16.625V45.125C4.75 47.0147 5.50067 48.8269 6.83686 50.1631C8.17306 51.4993 9.98533 52.25 11.875 52.25H40.375C42.2647 52.25 44.0769 51.4993 45.4131 50.1631C46.7493 48.8269 47.5 47.0147 47.5 45.125V33.25C47.5 32.6201 47.2498 32.016 46.8044 31.5706C46.359 31.1252 45.7549 30.875 45.125 30.875ZM11.875 47.5C11.2451 47.5 10.641 47.2498 10.1956 46.8044C9.75022 46.359 9.5 45.7549 9.5 45.125V36.6463L16.3875 29.7588C16.7364 29.4263 17.1999 29.2408 17.6819 29.2408C18.1638 29.2408 18.6273 29.4263 18.9762 29.7588L26.505 37.2875L36.6937 47.5H11.875ZM42.75 45.125C42.7466 45.5796 42.5967 46.0211 42.3225 46.3838L31.6113 35.625L33.2738 33.9625C33.6209 33.6173 34.0905 33.4236 34.58 33.4236C35.0695 33.4236 35.5391 33.6173 35.8862 33.9625L42.75 40.8975V45.125Z" fill="#FF004D"/>
</svg>
