<svg width="57" height="57" viewBox="0 0 57 57" fill="none" xmlns="http://www.w3.org/2000/svg">
<path d="M12.9775 34.9045C12.8042 35.2104 12.7231 35.5424 12.6742 35.7428C12.6693 35.7628 12.6647 35.7814 12.6604 35.7986L10.6219 43.9527C10.6191 43.964 10.616 43.9762 10.6127 43.9893C10.5773 44.1294 10.5167 44.3696 10.4952 44.5892C10.4699 44.8478 10.453 45.4907 10.9812 46.0188L10.9812 46.0189C11.5093 46.547 12.1522 46.5301 12.4108 46.5048C12.6304 46.4833 12.8706 46.4227 13.0107 46.3873C13.0238 46.384 13.036 46.3809 13.0473 46.3781L21.2014 44.3396C21.2186 44.3353 21.2372 44.3307 21.2572 44.3258C21.4576 44.2769 21.7896 44.1958 22.0955 44.0225C22.4014 43.8493 22.6418 43.6064 22.7869 43.4597C22.8013 43.4451 22.8148 43.4315 22.8274 43.4189L42.3964 23.8499C42.4126 23.8337 42.4289 23.8175 42.4452 23.8012C42.7354 23.5112 43.0492 23.1977 43.2783 22.8973C43.5468 22.5454 43.8358 22.0419 43.8358 21.375C43.8358 20.7081 43.5468 20.2046 43.2783 19.8527C43.0491 19.5523 42.7353 19.2388 42.4451 18.9488C42.4288 18.9325 42.4126 18.9163 42.3964 18.9001L38.0999 14.6036C38.0837 14.5874 38.0675 14.5712 38.0512 14.5548C37.7612 14.2646 37.4477 13.9509 37.1473 13.7217C36.7954 13.4532 36.2919 13.1642 35.625 13.1642C34.9581 13.1642 34.4546 13.4532 34.1027 13.7217C33.8023 13.9509 33.4888 14.2646 33.1988 14.5548C33.1825 14.5712 33.1663 14.5874 33.1501 14.6036L13.5971 34.1565L14.6413 35.2329L13.5811 34.1726L13.581 34.1726C13.5685 34.1852 13.5549 34.1987 13.5403 34.2131C13.3936 34.3582 13.1507 34.5985 12.9775 34.9045ZM12.9775 34.9045L14.2828 35.6436L12.9775 34.9045C12.9775 34.9045 12.9775 34.9045 12.9775 34.9045Z" stroke="#FF004D" stroke-width="3"/>
<path d="M29.6875 17.8125L39.1875 27.3125" stroke="#FF004D" stroke-width="3"/>
</svg>
