<svg width="822" height="143" viewBox="0 0 822 143" fill="none" xmlns="http://www.w3.org/2000/svg">
<path d="M182.607 2.59217L194.426 27.6006L204.532 2.59217H222.517L201.02 48.1984C198.622 53.1658 195.539 57.1912 191.771 60.2744C188.002 63.3291 183.634 64.8565 178.667 64.8565C177.268 64.8565 175.898 64.7423 174.556 64.5139C173.243 64.2855 172.272 64.0571 171.644 63.8287L170.745 63.5718V49.0977C172.201 49.6686 173.956 49.9541 176.012 49.9541C178.353 49.9541 180.309 49.3974 181.879 48.284C183.477 47.1706 184.591 45.9716 185.219 44.6869L186.118 42.9312L164.621 2.59217H182.607ZM281.723 2.59217V64H265.065V40.319H242.711V64H226.053V2.59217H242.711V25.4167H265.065V2.59217H281.723ZM293.137 2.59217H309.795V36.8075L336.089 2.59217H350.563V64H333.905V29.7846L307.526 64H293.137V2.59217ZM391.397 64H362.02V2.59217H389.641C395.95 2.59217 401.032 4.20514 404.886 7.43114C408.74 10.6571 410.667 14.454 410.667 18.822C410.667 20.5063 410.396 22.1193 409.853 23.6609C409.311 25.174 408.654 26.3873 407.884 27.3009C407.113 28.2144 406.342 29.0138 405.571 29.6989C404.829 30.3556 404.172 30.8266 403.601 31.1121L402.788 31.5403C403.073 31.6545 403.459 31.8258 403.944 32.0542C404.458 32.254 405.343 32.7536 406.599 33.553C407.855 34.3238 408.968 35.2088 409.939 36.208C410.91 37.2072 411.781 38.5775 412.551 40.319C413.351 42.0605 413.75 43.9589 413.75 46.0144C413.75 50.8106 411.652 55.0072 407.455 58.6043C403.287 62.2014 397.934 64 391.397 64ZM378.678 50.8534H390.069C392.011 50.8534 393.595 50.2682 394.823 49.0977C396.05 47.9272 396.664 46.4712 396.664 44.7297C396.664 42.9597 396.05 41.4895 394.823 40.319C393.595 39.1485 392.011 38.5633 390.069 38.5633H378.678V50.8534ZM387.885 15.7815H378.678V26.2731H387.885C389.627 26.2731 391.011 25.8021 392.039 24.86C393.067 23.8893 393.581 22.6189 393.581 21.0487C393.581 19.45 393.067 18.1796 392.039 17.2375C391.011 16.2669 389.627 15.7815 387.885 15.7815ZM438.312 49.9541H469.872V64H421.654V2.59217H469.016V16.638H438.312V26.2731H461.993V39.4625H438.312V49.9541ZM477.776 2.59217H505.396C512.134 2.59217 517.615 4.63334 521.84 8.71584C526.065 12.7697 528.178 17.8941 528.178 24.0892C528.178 30.2842 526.051 35.4229 521.797 39.5054C517.572 43.5593 512.105 45.5862 505.396 45.5862H494.434V64H477.776V2.59217ZM504.497 17.5373H494.434V30.6839H504.497C506.438 30.6839 508.094 30.0273 509.464 28.714C510.835 27.4008 511.52 25.8734 511.52 24.132C511.52 22.362 510.835 20.8204 509.464 19.5071C508.094 18.1939 506.438 17.5373 504.497 17.5373ZM554.281 20.7918C550.941 24.1034 549.271 28.2715 549.271 33.2961C549.271 38.3206 550.941 42.503 554.281 45.8431C557.621 49.1833 561.804 50.8534 566.828 50.8534C569.94 50.8534 572.88 50.1968 575.65 48.8836C578.419 47.5703 580.417 46.2428 581.645 44.901L583.486 42.9312L593.121 53.4656C592.893 53.8082 592.55 54.265 592.094 54.8359C591.665 55.3783 590.638 56.3633 589.01 57.7907C587.412 59.1896 585.67 60.4314 583.786 61.5163C581.93 62.6011 579.461 63.5718 576.378 64.4282C573.323 65.3132 570.14 65.7557 566.828 65.7557C557.293 65.7557 549.199 62.5726 542.548 56.2063C535.924 49.8114 532.613 42.1747 532.613 33.2961C532.613 24.4175 535.924 16.795 542.548 10.4287C549.199 4.03384 557.293 0.836426 566.828 0.836426C570.111 0.836426 573.237 1.26466 576.206 2.12111C579.175 2.97757 581.616 4.00534 583.529 5.20434C585.47 6.40344 587.155 7.60244 588.582 8.80144C590.038 10.0005 591.08 11.0282 591.708 11.8847L592.693 13.1265L582.587 23.6609C582.416 23.4325 582.187 23.1471 581.902 22.8045C581.616 22.4333 580.96 21.8053 579.932 20.9203C578.904 20.0067 577.834 19.2074 576.72 18.5222C575.607 17.8085 574.137 17.1804 572.309 16.638C570.511 16.067 568.684 15.7815 566.828 15.7815C561.804 15.7815 557.621 17.4516 554.281 20.7918ZM599.269 2.59217H615.927V36.8075L642.22 2.59217H656.694V64H640.036V29.7846L613.657 64H599.269V2.59217ZM662.885 2.59217H713.758V17.5373H696.629V64H679.971V17.5373H662.885V2.59217ZM736.564 49.9541H768.124V64H719.906V2.59217H767.268V16.638H736.564V26.2731H760.245V39.4625H736.564V49.9541ZM770.76 2.59217H821.634V17.5373H804.505V64H787.847V17.5373H770.76V2.59217ZM189.801 97.792C186.461 101.103 184.791 105.272 184.791 110.296C184.791 115.321 186.461 119.503 189.801 122.843C193.141 126.183 197.323 127.853 202.348 127.853C205.46 127.853 208.4 127.197 211.169 125.884C213.939 124.57 215.937 123.243 217.165 121.901L219.006 119.931L228.641 130.466C228.413 130.808 228.07 131.265 227.613 131.836C227.185 132.378 226.157 133.363 224.53 134.791C222.931 136.19 221.19 137.431 219.306 138.516C217.45 139.601 214.981 140.572 211.897 141.428C208.843 142.313 205.66 142.756 202.348 142.756C192.813 142.756 184.719 139.573 178.067 133.206C171.444 126.811 168.133 119.175 168.133 110.296C168.133 101.417 171.444 93.795 178.067 87.4287C184.719 81.0338 192.813 77.8364 202.348 77.8364C205.631 77.8364 208.757 78.2646 211.726 79.1211C214.695 79.9775 217.136 81.0053 219.049 82.2043C220.99 83.4034 222.675 84.6024 224.102 85.8014C225.558 87.0005 226.6 88.0282 227.228 88.8847L228.213 90.1265L218.107 100.661C217.935 100.433 217.707 100.147 217.422 99.804C217.136 99.433 216.479 98.805 215.452 97.92C214.424 97.007 213.353 96.207 212.24 95.522C211.127 94.808 209.656 94.18 207.829 93.638C206.031 93.067 204.204 92.7815 202.348 92.7815C197.323 92.7815 193.141 94.452 189.801 97.792ZM234.789 79.5921H251.447V113.808L277.74 79.5921H292.214V141H275.556V106.785L249.177 141H234.789V79.5921ZM359.341 79.5921V141H342.683V117.319H320.33V141H303.672V79.5921H320.33V102.417H342.683V79.5921H359.341ZM387.414 126.954H418.975V141H370.756V79.5921H418.118V93.638H387.414V103.273H411.095V116.463H387.414V126.954ZM426.878 79.5921H454.499C461.236 79.5921 466.718 81.6333 470.943 85.7158C475.168 89.7697 477.281 94.894 477.281 101.089C477.281 107.284 475.154 112.423 470.9 116.505C466.675 120.559 461.208 122.586 454.499 122.586H443.536V141H426.878V79.5921ZM453.6 94.537H443.536V107.684H453.6C455.541 107.684 457.197 107.027 458.567 105.714C459.937 104.401 460.622 102.873 460.622 101.132C460.622 99.362 459.937 97.82 458.567 96.507C457.197 95.194 455.541 94.537 453.6 94.537ZM485.227 141V79.5921H529.077V94.537H501.885V141H485.227ZM534.326 79.5921H550.984V113.808L577.277 79.5921H591.751V141H575.093V106.785L548.714 141H534.326V79.5921ZM652.326 79.5921V141H635.668V121.687H626.89L616.355 141H598.798L611.516 118.647C611.231 118.532 610.845 118.347 610.36 118.09C609.903 117.804 609.075 117.148 607.876 116.12C606.677 115.064 605.607 113.922 604.665 112.694C603.751 111.438 602.909 109.739 602.138 107.598C601.396 105.429 601.025 103.116 601.025 100.661C601.025 94.694 603.123 89.6983 607.32 85.673C611.545 81.6191 616.898 79.5921 623.378 79.5921H652.326ZM619.481 96.293C618.282 97.435 617.683 98.891 617.683 100.661C617.683 102.402 618.297 103.858 619.524 105.029C620.752 106.199 622.322 106.785 624.235 106.785H635.668V94.537H624.235C622.293 94.537 620.709 95.123 619.481 96.293Z" fill="black"/>
<path d="M82.7071 85.5306L68.9415 71.764L82.7071 57.9975V30.4644L41.4102 71.764L82.7071 113.064V85.5306Z" fill="#FF0040"/>
<path d="M0 2.85645V140.673H137.846V2.85645H0ZM118.143 120.969H19.7031V22.5229H118.143V120.969Z" fill="#FF0040"/>
</svg>
