<svg width="57" height="57" viewBox="0 0 57 57" fill="none" xmlns="http://www.w3.org/2000/svg">
<path d="M28.5 42.75C28.0303 42.75 27.5711 42.8893 27.1805 43.1503C26.79 43.4112 26.4855 43.7822 26.3058 44.2161C26.126 44.6501 26.079 45.1276 26.1706 45.5883C26.2623 46.049 26.4885 46.4722 26.8206 46.8044C27.1528 47.1365 27.576 47.3627 28.0367 47.4544C28.4974 47.546 28.9749 47.499 29.4089 47.3192C29.8428 47.1395 30.2138 46.835 30.4747 46.4445C30.7357 46.0539 30.875 45.5947 30.875 45.125C30.875 44.4951 30.6248 43.891 30.1794 43.4456C29.734 43.0002 29.1299 42.75 28.5 42.75ZM42.75 2.375H14.25C13.6201 2.375 13.016 2.62522 12.5706 3.07062C12.1252 3.51602 11.875 4.12011 11.875 4.75V26.125C11.875 28.0147 12.6257 29.8269 13.9619 31.1631C15.2981 32.4993 17.1103 33.25 19 33.25H21.375V38.8787C20.1657 40.2499 19.3778 41.9409 19.1058 43.7488C18.8337 45.5567 19.0891 47.4047 19.8413 49.0711C20.5936 50.7374 21.8106 52.1513 23.3465 53.1431C24.8823 54.1349 26.6717 54.6624 28.5 54.6624C30.3283 54.6624 32.1177 54.1349 33.6535 53.1431C35.1894 52.1513 36.4064 50.7374 37.1587 49.0711C37.9109 47.4047 38.1663 45.5567 37.8942 43.7488C37.6222 41.9409 36.8343 40.2499 35.625 38.8787V33.25H38C39.8897 33.25 41.7019 32.4993 43.0381 31.1631C44.3743 29.8269 45.125 28.0147 45.125 26.125V4.75C45.125 4.12011 44.8748 3.51602 44.4294 3.07062C43.984 2.62522 43.3799 2.375 42.75 2.375ZM28.5 49.875C27.5443 49.8678 26.6131 49.5724 25.8279 49.0275C25.0427 48.4827 24.4402 47.7136 24.099 46.8209C23.7578 45.9282 23.6938 44.9533 23.9155 44.0236C24.1371 43.094 24.634 42.2528 25.3413 41.61C25.5873 41.3879 25.7841 41.1169 25.9191 40.8142C26.0541 40.5115 26.1242 40.1839 26.125 39.8525V33.25H30.875V39.8525C30.8758 40.1839 30.9459 40.5115 31.0809 40.8142C31.2159 41.1169 31.4127 41.3879 31.6587 41.61C32.366 42.2528 32.8629 43.094 33.0845 44.0236C33.3062 44.9533 33.2422 45.9282 32.901 46.8209C32.5598 47.7136 31.9573 48.4827 31.1721 49.0275C30.3869 49.5724 29.4557 49.8678 28.5 49.875ZM40.375 26.125C40.375 26.7549 40.1248 27.359 39.6794 27.8044C39.234 28.2498 38.6299 28.5 38 28.5H19C18.3701 28.5 17.766 28.2498 17.3206 27.8044C16.8752 27.359 16.625 26.7549 16.625 26.125V23.75H40.375V26.125ZM40.375 19H16.625V7.125H40.375V19Z" fill="#FF004D"/>
</svg>
