<svg width="57" height="57" viewBox="0 0 57 57" fill="none" xmlns="http://www.w3.org/2000/svg">
<path d="M51.5612 5.46261C51.1163 5.02026 50.5143 4.77197 49.8869 4.77197C49.2594 4.77197 48.6575 5.02026 48.2125 5.46261L40.185 13.3001L37.2875 10.4501C36.8371 10.0092 36.23 9.76523 35.5998 9.77191C34.9696 9.77859 34.3678 10.0354 33.9269 10.4857C33.486 10.9361 33.242 11.5432 33.2487 12.1734C33.2554 12.8037 33.5121 13.4054 33.9625 13.8464L38.5225 18.3114C38.9665 18.7465 39.5633 18.9903 40.185 18.9903C40.8067 18.9903 41.4035 18.7465 41.8475 18.3114L51.5375 8.81136C51.983 8.36951 52.2356 7.76932 52.24 7.14188C52.2445 6.51443 52.0005 5.91072 51.5612 5.46261ZM45.125 21.3751C44.4951 21.3751 43.891 21.6253 43.4456 22.0707C43.0002 22.5161 42.75 23.1202 42.75 23.7501V34.1764L39.235 30.6614C38.6236 30.046 37.8965 29.5576 37.0955 29.2243C36.2946 28.891 35.4356 28.7194 34.5681 28.7194C33.7006 28.7194 32.8417 28.891 32.0407 29.2243C31.2398 29.5576 30.5127 30.046 29.9013 30.6614L28.2388 32.3239L22.3487 26.4101C21.1076 25.1788 19.4302 24.4878 17.6819 24.4878C15.9336 24.4878 14.2561 25.1788 13.015 26.4101L9.5 29.9251V16.6251C9.5 15.9952 9.75022 15.3911 10.1956 14.9457C10.641 14.5003 11.2451 14.2501 11.875 14.2501H26.125C26.7549 14.2501 27.359 13.9999 27.8044 13.5545C28.2498 13.1091 28.5 12.505 28.5 11.8751C28.5 11.2452 28.2498 10.6411 27.8044 10.1957C27.359 9.75033 26.7549 9.50011 26.125 9.50011H11.875C9.98533 9.50011 8.17306 10.2508 6.83686 11.587C5.50067 12.9232 4.75 14.7354 4.75 16.6251V45.1251C4.75 47.0148 5.50067 48.827 6.83686 50.1632C8.17306 51.4994 9.98533 52.2501 11.875 52.2501H40.375C42.2647 52.2501 44.0769 51.4994 45.4131 50.1632C46.7493 48.827 47.5 47.0148 47.5 45.1251V23.7501C47.5 23.1202 47.2498 22.5161 46.8044 22.0707C46.359 21.6253 45.7549 21.3751 45.125 21.3751ZM11.875 47.5001C11.2451 47.5001 10.641 47.2499 10.1956 46.8045C9.75022 46.3591 9.5 45.755 9.5 45.1251V36.6464L16.3875 29.7589C16.7364 29.4264 17.1999 29.2409 17.6819 29.2409C18.1638 29.2409 18.6273 29.4264 18.9762 29.7589L26.505 37.2876L36.6938 47.5001H11.875ZM42.75 45.1251C42.7466 45.5797 42.5967 46.0212 42.3225 46.3839L31.6113 35.6251L33.2738 33.9626C33.6209 33.6174 34.0905 33.4237 34.58 33.4237C35.0695 33.4237 35.5391 33.6174 35.8862 33.9626L42.75 40.8976V45.1251Z" fill="#FF004D"/>
</svg>
