<svg width="51" height="51" viewBox="0 0 51 51" fill="none" xmlns="http://www.w3.org/2000/svg">
<path d="M50.4375 31.4376C50.4375 30.1778 49.9371 28.9696 49.0463 28.0788C48.1555 27.188 46.9473 26.6876 45.6875 26.6876H31.4375C30.1778 26.6876 28.9696 27.188 28.0788 28.0788C27.188 28.9696 26.6875 30.1778 26.6875 31.4376H19.5625V24.3126H25.0963C27.1602 24.316 29.1579 23.585 30.7322 22.2503C32.3064 20.9156 33.3543 19.0643 33.6885 17.0276C34.0227 14.991 33.6214 12.9019 32.5563 11.1341C31.4911 9.3663 29.8318 8.0351 27.875 7.3788C26.789 5.1141 25.0129 3.25206 22.8019 2.06036C20.591 0.868652 18.0592 0.408642 15.5703 0.746472C13.0815 1.0843 10.7639 2.20255 8.9506 3.94049C7.1374 5.67843 5.92184 7.9465 5.47878 10.4188C3.8704 10.9474 2.50281 12.0315 1.62107 13.4768C0.73933 14.9221 0.40106 16.6342 0.66687 18.3062C0.93268 19.9783 1.7852 21.501 3.07168 22.6016C4.35815 23.7022 5.9945 24.3088 7.6875 24.3126H14.8125V43.3126C14.8125 43.9424 15.0628 44.5465 15.5082 44.9919C15.9536 45.4373 16.5576 45.6876 17.1875 45.6876H26.6875C26.6875 46.9473 27.188 48.1555 28.0788 49.0463C28.9696 49.9371 30.1778 50.4376 31.4375 50.4376H45.6875C46.9473 50.4376 48.1555 49.9371 49.0463 49.0463C49.9371 48.1555 50.4375 46.9473 50.4375 45.6876V40.9376C50.4288 40.1011 50.1994 39.2819 49.7725 38.5626C50.1994 37.8432 50.4288 37.024 50.4375 36.1876V31.4376ZM7.6875 19.5626C7.0576 19.5626 6.45355 19.3123 6.00815 18.8669C5.56275 18.4215 5.31253 17.8174 5.31253 17.1876C5.31253 16.5577 5.56275 15.9536 6.00815 15.5082C6.45355 15.0628 7.0576 14.8126 7.6875 14.8126C8.3174 14.8126 8.9215 14.5623 9.3669 14.1169C9.8123 13.6715 10.0625 13.0674 10.0625 12.4376C10.0434 10.7427 10.6291 9.0964 11.7145 7.7945C12.7999 6.4926 14.3138 5.62029 15.9845 5.33421C17.6552 5.04813 19.3732 5.36703 20.8299 6.23365C22.2866 7.1003 23.3867 8.4578 23.9325 10.0626C24.0719 10.4662 24.3175 10.8249 24.6435 11.1008C24.9695 11.3766 25.3638 11.5595 25.785 11.6301C26.7179 11.7845 27.5635 12.271 28.1659 12.9999C28.7682 13.7289 29.0867 14.651 29.0625 15.5963C29.0625 16.6482 28.6447 17.6571 27.9008 18.4009C27.157 19.1447 26.1482 19.5626 25.0963 19.5626H7.6875ZM26.6875 40.9376H19.5625V36.1876H26.6875C26.6962 37.024 26.9256 37.8432 27.3525 38.5626C26.9256 39.2819 26.6962 40.1011 26.6875 40.9376ZM31.4375 45.6876V40.9376H45.6875V45.6876H31.4375ZM31.4375 36.1876V31.4376H45.6875V36.1876H31.4375Z" fill="#FF004D"/>
</svg>
