<svg width="63" height="57" viewBox="0 0 63 57" fill="none" xmlns="http://www.w3.org/2000/svg">
<path d="M25.0385 11.6923C20.1316 11.6923 16.1538 15.2913 16.1538 19.7308V22.6538C16.1538 23.8646 17.2387 24.8462 18.5769 24.8462C19.9152 24.8462 21 23.8646 21 22.6538V19.7308C21 17.7128 22.8081 16.0769 25.0385 16.0769H29.0769V40.9231H25.0385C23.7002 40.9231 22.6154 41.9046 22.6154 43.1154C22.6154 44.3262 23.7002 45.3077 25.0385 45.3077H37.9615C39.2998 45.3077 40.3846 44.3262 40.3846 43.1154C40.3846 41.9046 39.2998 40.9231 37.9615 40.9231H33.9231V16.0769H37.9615C40.1919 16.0769 42 17.7128 42 19.7308V22.6538C42 23.8646 43.0848 24.8462 44.4231 24.8462C45.7613 24.8462 46.8462 23.8646 46.8462 22.6538V19.7308C46.8462 15.2913 42.8684 11.6923 37.9615 11.6923H25.0385Z" fill="#FF004D"/>
<path fill-rule="evenodd" clip-rule="evenodd" d="M45.9206 0.361667C42.2306 -4.24683e-05 37.5796 -2.34825e-05 31.6462 3.86831e-07H31.3538C25.4204 -2.34825e-05 20.7694 -4.24683e-05 17.0794 0.361667C13.3138 0.730788 10.2627 1.49756 7.65768 3.20998C6.0806 4.24668 4.69369 5.5015 3.54788 6.92838C1.6552 9.28533 0.807713 12.0458 0.399737 15.4528C-4.69387e-05 18.7913 -2.59544e-05 22.9994 4.2755e-07 28.3677V28.6323C-2.59544e-05 34.0006 -4.69387e-05 38.2087 0.399737 41.5472C0.807713 44.9542 1.6552 47.7147 3.54788 50.0716C4.69369 51.4985 6.0806 52.7533 7.65768 53.79C10.2627 55.5024 13.3138 56.2692 17.0794 56.6383C20.7693 57 25.4202 57 31.3535 57H31.6463C37.5795 57 42.2307 57 45.9206 56.6383C49.6862 56.2692 52.7373 55.5024 55.3423 53.79C56.9194 52.7533 58.3063 51.4985 59.4521 50.0716C61.3448 47.7147 62.1923 44.9542 62.6003 41.5472C63 38.2087 63 34.0007 63 28.6326V28.3677C63 22.9995 63 18.7913 62.6003 15.4528C62.1923 12.0458 61.3448 9.28533 59.4521 6.92838C58.3063 5.50149 56.9194 4.24667 55.3423 3.20998C52.7373 1.49756 49.6862 0.730788 45.9206 0.361667ZM10.5062 6.75721C12.1474 5.67834 14.2481 5.04947 17.6014 4.72077C21 4.38763 25.3888 4.38462 31.5 4.38462C37.6112 4.38462 42 4.38763 45.3986 4.72077C48.7519 5.04947 50.8526 5.67834 52.4938 6.75721C53.6595 7.52346 54.6846 8.45094 55.5315 9.50559C56.7239 10.9905 57.419 12.8912 57.7823 15.9251C58.1505 19 58.1538 22.9708 58.1538 28.5C58.1538 34.0292 58.1505 38 57.7823 41.0749C57.419 44.1088 56.7239 46.0095 55.5315 47.4944C54.6846 48.5491 53.6595 49.4765 52.4938 50.2428C50.8526 51.3217 48.7519 51.9505 45.3986 52.2792C42 52.6124 37.6112 52.6154 31.5 52.6154C25.3888 52.6154 21 52.6124 17.6014 52.2792C14.2481 51.9505 12.1474 51.3217 10.5062 50.2428C9.34051 49.4765 8.31541 48.5491 7.4685 47.4944C6.27606 46.0095 5.581 44.1088 5.2177 41.0749C4.84948 38 4.84615 34.0292 4.84615 28.5C4.84615 22.9708 4.84948 19 5.2177 15.9251C5.581 12.8912 6.27607 10.9905 7.4685 9.50559C8.31541 8.45094 9.34051 7.52346 10.5062 6.75721Z" fill="#FF004D"/>
</svg>
