<svg width="58" height="54" viewBox="0 0 58 54" fill="none" xmlns="http://www.w3.org/2000/svg">
<path d="M8.70103 40.0682L9.49772 38.5101L8.70103 40.0682ZM3.33765 34.686L4.89803 33.8937L3.33765 34.686ZM54.6624 34.686L53.102 33.8937L54.6624 34.686ZM49.299 40.0682L48.5023 38.5101L49.299 40.0682ZM49.299 3.34234L48.5023 4.90047L49.299 3.34234ZM54.6624 8.72454L53.102 9.51681L54.6624 8.72454ZM8.70103 3.34234L9.49772 4.90047L8.70103 3.34234ZM3.33765 8.72454L4.89803 9.51681L3.33765 8.72454ZM18.756 49.5658C17.8185 49.8009 17.2492 50.7515 17.4844 51.689C17.7196 52.6264 18.6702 53.1957 19.6077 52.9606L18.756 49.5658ZM23.0469 50.2935L22.621 48.5961L23.0469 50.2935ZM34.9531 50.2935L35.379 48.5961L34.9531 50.2935ZM38.3923 52.9606C39.3298 53.1957 40.2804 52.6264 40.5156 51.689C40.7508 50.7515 40.1815 49.8009 39.244 49.5658L38.3923 52.9606ZM30.75 41.4105C30.75 40.444 29.9665 39.6605 29 39.6605C28.0335 39.6605 27.25 40.444 27.25 41.4105H30.75ZM29 32.2711C28.0335 32.2711 27.25 33.0546 27.25 34.0211C27.25 34.9876 28.0335 35.7711 29 35.7711V32.2711ZM43.7273 35.771C44.6938 35.771 45.4773 34.9875 45.4773 34.021C45.4773 33.0546 44.6938 32.271 43.7273 32.271V35.771ZM29 49.5581V51.3081V49.5581ZM21.6364 3.75H36.3636V0.25H21.6364V3.75ZM36.3636 39.6605H21.6364V43.1605H36.3636V39.6605ZM21.6364 39.6605C18.1707 39.6605 15.6771 39.6592 13.7187 39.4986C11.7809 39.3397 10.522 39.0338 9.49772 38.5101L7.90433 41.6263C9.50533 42.4449 11.2774 42.8102 13.4327 42.9869C15.5673 43.1619 18.2287 43.1605 21.6364 43.1605V39.6605ZM0.25 21.7053C0.25 25.1252 0.248648 27.7951 0.422977 29.9363C0.598955 32.0977 0.962576 33.8737 1.77726 35.4783L4.89803 33.8937C4.37507 32.8637 4.06987 31.5982 3.91143 29.6522C3.75135 27.686 3.75 25.1828 3.75 21.7053H0.25ZM9.49772 38.5101C7.51823 37.4979 5.90772 35.8823 4.89803 33.8937L1.77726 35.4783C3.12083 38.1244 5.2653 40.2769 7.90433 41.6263L9.49772 38.5101ZM54.25 21.7053C54.25 25.1828 54.2486 27.686 54.0886 29.6522C53.9301 31.5982 53.6249 32.8637 53.102 33.8937L56.2227 35.4783C57.0374 33.8737 57.401 32.0977 57.577 29.9363C57.7514 27.7951 57.75 25.1252 57.75 21.7053H54.25ZM36.3636 43.1605C39.7713 43.1605 42.4327 43.1619 44.5673 42.9869C46.7226 42.8102 48.4947 42.4449 50.0957 41.6263L48.5023 38.5101C47.478 39.0338 46.2191 39.3397 44.2813 39.4986C42.3229 39.6592 39.8293 39.6605 36.3636 39.6605V43.1605ZM53.102 33.8937C52.0923 35.8823 50.4818 37.4979 48.5023 38.5101L50.0957 41.6263C52.7347 40.2769 54.8792 38.1244 56.2227 35.4783L53.102 33.8937ZM36.3636 3.75C39.8293 3.75 42.3229 3.75137 44.2813 3.91194C46.2191 4.07082 47.478 4.37675 48.5023 4.90047L50.0957 1.78421C48.4947 0.965595 46.7226 0.600351 44.5673 0.423645C42.4327 0.24863 39.7713 0.25 36.3636 0.25V3.75ZM57.75 21.7053C57.75 18.2853 57.7514 15.6154 57.577 13.4743C57.401 11.3128 57.0374 9.53679 56.2227 7.93226L53.102 9.51681C53.6249 10.5468 53.9301 11.8123 54.0886 13.7583C54.2486 15.7245 54.25 18.2277 54.25 21.7053H57.75ZM48.5023 4.90047C50.4818 5.91261 52.0923 7.52824 53.102 9.51681L56.2227 7.93226C54.8792 5.28611 52.7347 3.13358 50.0957 1.78421L48.5023 4.90047ZM21.6364 0.25C18.2287 0.25 15.5673 0.24863 13.4327 0.423645C11.2774 0.600351 9.50533 0.965595 7.90433 1.78421L9.49772 4.90047C10.522 4.37675 11.7809 4.07082 13.7187 3.91194C15.6771 3.75137 18.1707 3.75 21.6364 3.75V0.25ZM3.75 21.7053C3.75 18.2277 3.75135 15.7245 3.91143 13.7583C4.06987 11.8123 4.37507 10.5468 4.89803 9.51681L1.77726 7.93226C0.962576 9.53679 0.598955 11.3128 0.422977 13.4743C0.248648 15.6154 0.25 18.2853 0.25 21.7053H3.75ZM7.90433 1.78421C5.2653 3.13358 3.12083 5.28611 1.77726 7.93226L4.89803 9.51681C5.90772 7.52824 7.51823 5.91261 9.49772 4.90047L7.90433 1.78421ZM19.6077 52.9606L23.4727 51.9909L22.621 48.5961L18.756 49.5658L19.6077 52.9606ZM34.5273 51.9909L38.3923 52.9606L39.244 49.5658L35.379 48.5961L34.5273 51.9909ZM30.75 48.8V41.4105H27.25V48.8H30.75ZM29 35.7711L43.7273 35.771V32.271L29 32.2711V35.7711ZM23.4727 51.9909C25.2873 51.5357 27.1436 51.3081 29 51.3081V47.8081C26.8575 47.8081 24.7151 48.0708 22.621 48.5961L23.4727 51.9909ZM29 51.3081C30.8564 51.3081 32.7127 51.5357 34.5273 51.9909L35.379 48.5961C33.2849 48.0708 31.1425 47.8081 29 47.8081V51.3081ZM27.25 48.8V49.5581H30.75V48.8H27.25Z" fill="#FF004C"/>
<path d="M19.0526 33.7368C19.0526 35.0449 17.9923 36.1053 16.6842 36.1053C15.3762 36.1053 14.3158 35.0449 14.3158 33.7368C14.3158 32.4288 15.3762 31.3684 16.6842 31.3684C17.9923 31.3684 19.0526 32.4288 19.0526 33.7368Z" fill="#FF004C"/>
</svg>
