<?xml version="1.0"?>
<svg xmlns="http://www.w3.org/2000/svg" width="19" height="19" viewBox="0 0 19 19" fill="none">
<path d="M2.67963 1.58353L3.55605 0.707107C3.94658 0.316583 4.57974 0.316582 4.97026 0.707106L7.76658 3.50342C8.1571 3.89394 8.1571 4.52711 7.76658 4.91763L5.84261 6.8416C5.528 7.15621 5.45 7.63685 5.64898 8.03481C6.79925 10.3353 8.66465 12.2007 10.9652 13.351C11.3632 13.55 11.8438 13.472 12.1584 13.1574L14.0824 11.2334C14.4729 10.8429 15.1061 10.8429 15.4966 11.2334L18.2929 14.0297C18.6834 14.4203 18.6834 15.0534 18.2929 15.4439L17.4165 16.3204C15.3051 18.4317 11.9625 18.6693 9.57382 16.8777L7.94436 15.6556C6.20083 14.348 4.65201 12.7992 3.34436 11.0556L2.12226 9.42618C0.330722 7.03745 0.568273 3.69488 2.67963 1.58353Z" fill="#FF015C"/>
</svg>
