<svg width="99" height="99" viewBox="0 0 99 99" fill="none" xmlns="http://www.w3.org/2000/svg">
<path d="M82.6076 36.3924C82.6076 28.9931 76.6145 23 69.2152 23C61.8159 23 55.8228 28.9931 55.8228 36.3924C55.8228 43.7917 61.8159 49.7848 69.2152 49.7848C76.6145 49.7848 82.6076 43.7917 82.6076 36.3924ZM42.4304 69.8734V73.2215C42.4304 75.063 43.937 76.5696 45.7785 76.5696H92.6519C94.4934 76.5696 96 75.063 96 73.2215V69.8734C96 60.9675 78.1546 56.481 69.2152 56.481C60.2758 56.481 42.4304 60.9675 42.4304 69.8734Z" fill="#FF0040"/>
<path d="M10.6122 49.1768H28.7174L34.4953 55.1082C34.8132 55.4344 35.238 55.6076 35.6703 55.6076C35.8841 55.6076 36.1 55.5652 36.3055 55.4778C36.9263 55.214 37.3308 54.5921 37.3308 53.9025V49.1678C40.8156 48.9812 43.5949 46.0122 43.5949 42.3894V29.7877C43.5949 26.045 40.6286 23 36.9827 23H10.6122C6.96631 23 4 26.045 4 29.7877V42.3889C4 46.1318 6.96631 49.1768 10.6122 49.1768ZM12.1491 40.1016L18.1406 33.9512C18.8821 33.1905 20.0837 33.1905 20.8252 33.9512L23.3981 36.5926L26.293 33.6209C25.5728 33.3442 25.0591 32.6332 25.0591 31.7975C25.0591 30.7213 25.9091 29.8488 26.9574 29.8488H30.8726C31.9209 29.8488 32.7709 30.7213 32.7709 31.7975V35.8166C32.7709 36.8927 31.9209 37.7652 30.8726 37.7652C29.9921 37.7652 29.2536 37.1487 29.0391 36.3139L24.7404 40.7262C23.9989 41.4869 22.7973 41.4869 22.0558 40.7262L19.4829 38.085L14.8338 42.8575C14.4629 43.238 13.9774 43.4282 13.4914 43.4282C13.0055 43.4282 12.5197 43.238 12.1491 42.8575C11.4078 42.0963 11.4078 40.8628 12.1491 40.1016Z" fill="#FF0040"/>
</svg>
