<svg width="57" height="57" viewBox="0 0 57 57" fill="none" xmlns="http://www.w3.org/2000/svg">
<path d="M30.875 38.0002H16.625C15.9951 38.0002 15.391 38.2504 14.9456 38.6958C14.5002 39.1412 14.25 39.7453 14.25 40.3752C14.25 41.005 14.5002 41.6091 14.9456 42.0545C15.391 42.4999 15.9951 42.7502 16.625 42.7502H30.875C31.5049 42.7502 32.109 42.4999 32.5544 42.0545C32.9998 41.6091 33.25 41.005 33.25 40.3752C33.25 39.7453 32.9998 39.1412 32.5544 38.6958C32.109 38.2504 31.5049 38.0002 30.875 38.0002ZM21.375 23.7502H26.125C26.7549 23.7502 27.359 23.4999 27.8044 23.0545C28.2498 22.6091 28.5 22.005 28.5 21.3752C28.5 20.7453 28.2498 20.1412 27.8044 19.6958C27.359 19.2504 26.7549 19.0002 26.125 19.0002H21.375C20.7451 19.0002 20.141 19.2504 19.6956 19.6958C19.2502 20.1412 19 20.7453 19 21.3752C19 22.005 19.2502 22.6091 19.6956 23.0545C20.141 23.4999 20.7451 23.7502 21.375 23.7502V23.7502ZM49.875 28.5002H42.75V7.12516C42.7517 6.70666 42.6427 6.29516 42.4342 5.93231C42.2257 5.56946 41.9249 5.26816 41.5625 5.05891C41.2015 4.85046 40.7919 4.74072 40.375 4.74072C39.9581 4.74072 39.5486 4.85046 39.1875 5.05891L32.0625 9.14391L24.9375 5.05891C24.5765 4.85046 24.1669 4.74072 23.75 4.74072C23.3331 4.74072 22.9236 4.85046 22.5625 5.05891L15.4375 9.14391L8.31252 5.05891C7.95147 4.85046 7.54192 4.74072 7.12502 4.74072C6.70812 4.74072 6.29856 4.85046 5.93752 5.05891C5.57508 5.26816 5.27437 5.56946 5.06584 5.93231C4.85731 6.29516 4.74836 6.70666 4.75002 7.12516V45.1252C4.75002 47.0148 5.50069 48.8271 6.83688 50.1633C8.17308 51.4995 9.98535 52.2502 11.875 52.2502H45.125C47.0147 52.2502 48.827 51.4995 50.1632 50.1633C51.4993 48.8271 52.25 47.0148 52.25 45.1252V30.8752C52.25 30.2453 51.9998 29.6412 51.5544 29.1958C51.109 28.7504 50.5049 28.5002 49.875 28.5002ZM11.875 47.5002C11.2451 47.5002 10.641 47.2499 10.1956 46.8045C9.75024 46.3591 9.50002 45.755 9.50002 45.1252V11.2339L14.25 13.9414C14.6166 14.1329 15.024 14.2329 15.4375 14.2329C15.8511 14.2329 16.2585 14.1329 16.625 13.9414L23.75 9.85641L30.875 13.9414C31.2416 14.1329 31.649 14.2329 32.0625 14.2329C32.4761 14.2329 32.8835 14.1329 33.25 13.9414L38 11.2339V45.1252C38.0064 45.9354 38.151 46.7386 38.4275 47.5002H11.875ZM47.5 45.1252C47.5 45.755 47.2498 46.3591 46.8044 46.8045C46.359 47.2499 45.7549 47.5002 45.125 47.5002C44.4951 47.5002 43.891 47.2499 43.4456 46.8045C43.0002 46.3591 42.75 45.755 42.75 45.1252V33.2502H47.5V45.1252ZM30.875 28.5002H16.625C15.9951 28.5002 15.391 28.7504 14.9456 29.1958C14.5002 29.6412 14.25 30.2453 14.25 30.8752C14.25 31.505 14.5002 32.1091 14.9456 32.5545C15.391 32.9999 15.9951 33.2502 16.625 33.2502H30.875C31.5049 33.2502 32.109 32.9999 32.5544 32.5545C32.9998 32.1091 33.25 31.505 33.25 30.8752C33.25 30.2453 32.9998 29.6412 32.5544 29.1958C32.109 28.7504 31.5049 28.5002 30.875 28.5002Z" fill="#FF004C"/>
</svg>
