<svg width="57" height="57" viewBox="0 0 57 57" fill="none" xmlns="http://www.w3.org/2000/svg">
<path d="M45.125 14.25H38V11.875C38 10.6152 37.4996 9.40704 36.6088 8.51624C35.718 7.62544 34.5098 7.125 33.25 7.125H23.75C22.4902 7.125 21.282 7.62544 20.3912 8.51624C19.5004 9.40704 19 10.6152 19 11.875V14.25H11.875C9.98533 14.25 8.17306 15.0007 6.83686 16.3369C5.50067 17.6731 4.75 19.4853 4.75 21.375V42.75C4.75 44.6397 5.50067 46.4519 6.83686 47.7881C8.17306 49.1243 9.98533 49.875 11.875 49.875H45.125C47.0147 49.875 48.8269 49.1243 50.1631 47.7881C51.4993 46.4519 52.25 44.6397 52.25 42.75V21.375C52.25 19.4853 51.4993 17.6731 50.1631 16.3369C48.8269 15.0007 47.0147 14.25 45.125 14.25ZM23.75 11.875H33.25V14.25H23.75V11.875ZM47.5 42.75C47.5 43.3799 47.2498 43.984 46.8044 44.4294C46.359 44.8748 45.7549 45.125 45.125 45.125H11.875C11.2451 45.125 10.641 44.8748 10.1956 44.4294C9.75022 43.984 9.5 43.3799 9.5 42.75V30.875H19V33.25C19 33.8799 19.2502 34.484 19.6956 34.9294C20.141 35.3748 20.7451 35.625 21.375 35.625C22.0049 35.625 22.609 35.3748 23.0544 34.9294C23.4998 34.484 23.75 33.8799 23.75 33.25V30.875H33.25V33.25C33.25 33.8799 33.5002 34.484 33.9456 34.9294C34.391 35.3748 34.9951 35.625 35.625 35.625C36.2549 35.625 36.859 35.3748 37.3044 34.9294C37.7498 34.484 38 33.8799 38 33.25V30.875H47.5V42.75ZM47.5 26.125H9.5V21.375C9.5 20.7451 9.75022 20.141 10.1956 19.6956C10.641 19.2502 11.2451 19 11.875 19H45.125C45.7549 19 46.359 19.2502 46.8044 19.6956C47.2498 20.141 47.5 20.7451 47.5 21.375V26.125Z" fill="#FF004D"/>
</svg>
