<svg width="93" height="93" viewBox="0 0 93 93" fill="none" xmlns="http://www.w3.org/2000/svg">
<path d="M83.7 0H9.3C4.185 0 0.0465 4.185 0.0465 9.3L0 93L18.6 74.4H83.7C88.815 74.4 93 70.215 93 65.1V9.3C93 4.185 88.815 0 83.7 0ZM27.9 55.8H18.6V46.5H27.9V55.8ZM27.9 41.85H18.6V32.55H27.9V41.85ZM27.9 27.9H18.6V18.6H27.9V27.9ZM55.8 55.8H41.85C39.2925 55.8 37.2 53.7075 37.2 51.15C37.2 48.5925 39.2925 46.5 41.85 46.5H55.8C58.3575 46.5 60.45 48.5925 60.45 51.15C60.45 53.7075 58.3575 55.8 55.8 55.8ZM69.75 41.85H41.85C39.2925 41.85 37.2 39.7575 37.2 37.2C37.2 34.6425 39.2925 32.55 41.85 32.55H69.75C72.3075 32.55 74.4 34.6425 74.4 37.2C74.4 39.7575 72.3075 41.85 69.75 41.85ZM69.75 27.9H41.85C39.2925 27.9 37.2 25.8075 37.2 23.25C37.2 20.6925 39.2925 18.6 41.85 18.6H69.75C72.3075 18.6 74.4 20.6925 74.4 23.25C74.4 25.8075 72.3075 27.9 69.75 27.9Z" fill="#FF0040"/>
</svg>
