<svg width="99" height="99" viewBox="0 0 99 99" fill="none" xmlns="http://www.w3.org/2000/svg">
<path d="M43.7563 36.25C43.7563 28.9294 37.9751 23 30.8375 23C23.6999 23 17.9188 28.9294 17.9188 36.25C17.9188 43.5706 23.6999 49.5 30.8375 49.5C37.9751 49.5 43.7563 43.5706 43.7563 36.25ZM5 69.375V72.6875C5 74.5094 6.45336 76 8.22969 76H53.4453C55.2216 76 56.675 74.5094 56.675 72.6875V69.375C56.675 60.5638 39.4608 56.125 30.8375 56.125C22.2142 56.125 5 60.5638 5 69.375Z" fill="#FF0040"/>
<path d="M69.9704 61.8268H92V65.2279H69.9704C69.5194 65.2279 69.0869 65.0487 68.7679 64.7298C68.449 64.4109 68.2699 63.9784 68.2699 63.5274C68.2699 63.0764 68.449 62.6438 68.7679 62.3249C69.0869 62.006 69.5194 61.8268 69.9704 61.8268Z" fill="#FF0040"/>
<path d="M57.9894 52.5513H92V55.9523H57.9894C57.5384 55.9523 57.1058 55.7732 56.7869 55.4543C56.468 55.1353 56.2889 54.7028 56.2889 54.2518C56.2889 53.8008 56.468 53.3683 56.7869 53.0493C57.1058 52.7304 57.5384 52.5513 57.9894 52.5513Z" fill="#FF0040"/>
<path d="M66.3374 44.9762C66.3374 44.7529 66.3814 44.5318 66.4669 44.3255C66.5524 44.1191 66.6776 43.9317 66.8355 43.7738C66.9934 43.6159 67.1809 43.4906 67.3872 43.4051C67.5935 43.3197 67.8147 43.2757 68.038 43.2757H92V46.6768H68.038C67.8147 46.6768 67.5935 46.6328 67.3872 46.5473C67.1809 46.4619 66.9934 46.3366 66.8355 46.1787C66.6776 46.0208 66.5524 45.8333 66.4669 45.627C66.3814 45.4207 66.3374 45.1995 66.3374 44.9762Z" fill="#FF0040"/>
<path d="M56.057 34H92V37.4011H56.057C55.606 37.4011 55.1734 37.2219 54.8545 36.903C54.5356 36.5841 54.3564 36.1515 54.3564 35.7005C54.3564 35.2495 54.5356 34.817 54.8545 34.4981C55.1734 34.1792 55.606 34 56.057 34Z" fill="#FF0040"/>
</svg>