<svg width="57" height="57" viewBox="0 0 57 57" fill="none" xmlns="http://www.w3.org/2000/svg">
<path d="M22.5625 24.9374H28.5C29.1299 24.9374 29.734 24.6872 30.1794 24.2418C30.6248 23.7964 30.875 23.1923 30.875 22.5624C30.875 21.9325 30.6248 21.3284 30.1794 20.883C29.734 20.4376 29.1299 20.1874 28.5 20.1874H26.125V18.9999C26.125 18.37 25.8748 17.7659 25.4294 17.3205C24.984 16.8751 24.3799 16.6249 23.75 16.6249C23.1201 16.6249 22.516 16.8751 22.0706 17.3205C21.6252 17.7659 21.375 18.37 21.375 18.9999V20.3062C19.932 20.5992 18.6494 21.4179 17.7761 22.6034C16.9028 23.7889 16.5011 25.2566 16.6491 26.7216C16.7971 28.1866 17.4841 29.5444 18.5769 30.5313C19.6696 31.5182 21.0901 32.0639 22.5625 32.0624H24.9375C25.2525 32.0624 25.5545 32.1875 25.7772 32.4102C25.9999 32.6329 26.125 32.935 26.125 33.2499C26.125 33.5649 25.9999 33.8669 25.7772 34.0896C25.5545 34.3123 25.2525 34.4374 24.9375 34.4374H19C18.3701 34.4374 17.766 34.6876 17.3206 35.133C16.8752 35.5784 16.625 36.1825 16.625 36.8124C16.625 37.4423 16.8752 38.0464 17.3206 38.4918C17.766 38.9372 18.3701 39.1874 19 39.1874H21.375V40.3749C21.375 41.0048 21.6252 41.6089 22.0706 42.0543C22.516 42.4997 23.1201 42.7499 23.75 42.7499C24.3799 42.7499 24.984 42.4997 25.4294 42.0543C25.8748 41.6089 26.125 41.0048 26.125 40.3749V39.0687C27.568 38.7757 28.8507 37.9569 29.724 36.7714C30.5973 35.5859 30.9989 34.1182 30.8509 32.6532C30.7029 31.1882 30.0159 29.8305 28.9232 28.8435C27.8304 27.8566 26.41 27.3109 24.9375 27.3124H22.5625C22.2476 27.3124 21.9455 27.1873 21.7228 26.9646C21.5001 26.7419 21.375 26.4399 21.375 26.1249C21.375 25.81 21.5001 25.5079 21.7228 25.2852C21.9455 25.0625 22.2476 24.9374 22.5625 24.9374ZM49.875 28.4999H42.75V7.12492C42.7517 6.70642 42.6427 6.29491 42.4342 5.93206C42.2257 5.56922 41.9249 5.26792 41.5625 5.05867C41.2015 4.85022 40.7919 4.74048 40.375 4.74048C39.9581 4.74048 39.5486 4.85022 39.1875 5.05867L32.0625 9.14367L24.9375 5.05867C24.5765 4.85022 24.1669 4.74048 23.75 4.74048C23.3331 4.74048 22.9236 4.85022 22.5625 5.05867L15.4375 9.14367L8.31252 5.05867C7.95147 4.85022 7.54192 4.74048 7.12502 4.74048C6.70812 4.74048 6.29856 4.85022 5.93752 5.05867C5.57508 5.26792 5.27437 5.56922 5.06584 5.93206C4.85731 6.29491 4.74836 6.70642 4.75002 7.12492V45.1249C4.75002 47.0146 5.50069 48.8269 6.83688 50.1631C8.17308 51.4993 9.98535 52.2499 11.875 52.2499H45.125C47.0147 52.2499 48.827 51.4993 50.1632 50.1631C51.4993 48.8269 52.25 47.0146 52.25 45.1249V30.8749C52.25 30.245 51.9998 29.6409 51.5544 29.1955C51.109 28.7501 50.5049 28.4999 49.875 28.4999ZM11.875 47.4999C11.2451 47.4999 10.641 47.2497 10.1956 46.8043C9.75024 46.3589 9.50002 45.7548 9.50002 45.1249V11.2337L14.25 13.9412C14.6166 14.1326 15.024 14.2326 15.4375 14.2326C15.8511 14.2326 16.2585 14.1326 16.625 13.9412L23.75 9.85617L30.875 13.9412C31.2416 14.1326 31.649 14.2326 32.0625 14.2326C32.4761 14.2326 32.8835 14.1326 33.25 13.9412L38 11.2337V45.1249C38.0064 45.9351 38.151 46.7383 38.4275 47.4999H11.875ZM47.5 45.1249C47.5 45.7548 47.2498 46.3589 46.8044 46.8043C46.359 47.2497 45.7549 47.4999 45.125 47.4999C44.4951 47.4999 43.891 47.2497 43.4456 46.8043C43.0002 46.3589 42.75 45.7548 42.75 45.1249V33.2499H47.5V45.1249Z" fill="#FF004D"/>
</svg>
