<svg width="99" height="99" viewBox="0 0 99 99" fill="none" xmlns="http://www.w3.org/2000/svg">
<path d="M58.1934 6.49687C55.638 -2.16563 43.362 -2.16563 40.8066 6.49687L40.1878 8.60063C39.806 9.89749 39.1387 11.0925 38.235 12.0979C37.3312 13.1033 36.2139 13.8937 34.9649 14.4111C33.7159 14.9285 32.367 15.1598 31.017 15.0879C29.667 15.0161 28.3502 14.6431 27.1631 13.9961L25.245 12.9443C17.3064 8.62537 8.62537 17.3064 12.9504 25.2388L13.9961 27.1631C16.7558 32.2369 14.1384 38.5543 8.60063 40.1878L6.49687 40.8066C-2.16563 43.362 -2.16563 55.638 6.49687 58.1934L8.60063 58.8122C9.89749 59.194 11.0925 59.8613 12.0979 60.765C13.1033 61.6688 13.8937 62.7861 14.4111 64.0351C14.9285 65.2841 15.1598 66.633 15.0879 67.983C15.0161 69.333 14.6431 70.6498 13.9961 71.8369L12.9443 73.755C8.62537 81.6936 17.3064 90.3746 25.2388 86.0496L27.1631 85.0039C28.3502 84.3569 29.667 83.9839 31.017 83.912C32.367 83.8402 33.7159 84.0715 34.9649 84.5889C36.2139 85.1063 37.3312 85.8967 38.235 86.9021C39.1387 87.9075 39.806 89.1025 40.1878 90.3994L40.8066 92.5031C43.362 101.166 55.638 101.166 58.1934 92.5031L58.8122 90.3994C59.194 89.1025 59.8613 87.9075 60.765 86.9021C61.6688 85.8967 62.7861 85.1063 64.0351 84.5889C65.2841 84.0715 66.633 83.8402 67.983 83.912C69.333 83.9839 70.6498 84.3569 71.8369 85.0039L73.755 86.0557C81.6936 90.3746 90.3746 81.6936 86.0496 73.7612L85.0039 71.8369C84.3569 70.6498 83.9839 69.333 83.912 67.983C83.8402 66.633 84.0715 65.2841 84.5889 64.0351C85.1063 62.7861 85.8967 61.6688 86.9021 60.765C87.9075 59.8613 89.1025 59.194 90.3994 58.8122L92.5031 58.1934C101.166 55.638 101.166 43.362 92.5031 40.8066L90.3994 40.1878C89.1025 39.806 87.9075 39.1387 86.9021 38.235C85.8967 37.3312 85.1063 36.2139 84.5889 34.9649C84.0715 33.7159 83.8402 32.367 83.912 31.017C83.9839 29.667 84.3569 28.3502 85.0039 27.1631L86.0557 25.245C90.3746 17.3064 81.6936 8.62537 73.7612 12.9504L71.8369 13.9961C70.6498 14.6431 69.333 15.0161 67.983 15.0879C66.633 15.1598 65.2841 14.9285 64.0351 14.4111C62.7861 13.8937 61.6688 13.1033 60.765 12.0979C59.8613 11.0925 59.194 9.89749 58.8122 8.60063L58.1934 6.49687ZM49.5 67.6294C44.6918 67.6294 40.0805 65.7193 36.6806 62.3194C33.2807 58.9195 31.3706 54.3082 31.3706 49.5C31.3706 44.6918 33.2807 40.0805 36.6806 36.6806C40.0805 33.2807 44.6918 31.3706 49.5 31.3706C54.3066 31.3706 58.9163 33.28 62.315 36.6788C65.7138 40.0775 67.6232 44.6872 67.6232 49.4938C67.6232 54.3004 65.7138 58.9101 62.315 62.3088C58.9163 65.7076 54.3066 67.617 49.5 67.617V67.6294Z" fill="#FF0040"/>
</svg>
