<svg width="51" height="51" viewBox="0 0 51 51" fill="none" xmlns="http://www.w3.org/2000/svg">
<path d="M23.3988 0.115078C18.7669 0.941414 14.8962 4.48596 13.8959 8.81335C13.548 10.2921 13.6132 13.3582 14.0046 14.7064C15.1572 18.6642 18.3755 21.8173 22.2462 22.8393C23.8989 23.2525 26.4649 23.2525 28.1176 22.8393C32.0536 21.7955 35.3589 18.5337 36.4027 14.576C36.7506 13.293 36.7941 10.1833 36.4679 8.81335C35.6416 5.18182 32.358 1.68077 28.77 0.571737C27.1173 0.0498409 24.7905 -0.14587 23.3988 0.115078ZM25.7908 2.98551C25.943 3.13773 26.0517 3.61613 26.0517 4.05105C26.0517 4.68167 26.1605 4.89913 26.4867 5.00786C28.0958 5.52975 29.618 8.26971 28.7482 9.13954C28.1176 9.77016 27.3565 9.37874 27.3565 8.42193C27.3565 7.68258 26.0517 6.42133 25.2472 6.42133C24.4208 6.42133 23.6815 6.96497 23.3118 7.85654C22.7247 9.24827 23.8119 10.7705 25.3994 10.7705C26.3779 10.7705 27.7479 11.5533 28.3785 12.4884C29.705 14.4672 28.9439 17.055 26.7259 18.0335C25.943 18.4032 25.856 18.5337 25.7908 19.3165C25.6603 21.0779 24.3121 20.904 24.3121 19.1208C24.3121 18.4249 24.2251 18.164 23.9859 18.164C23.8119 18.164 23.2683 17.8161 22.7899 17.3812C21.8983 16.5766 21.3764 15.4023 21.5286 14.4672C21.5721 14.0323 21.7244 13.9236 22.2462 13.9236C22.8116 13.9236 22.9204 14.0323 23.1161 14.7717C23.4858 16.0329 24.1816 16.6418 25.2906 16.6418C26.0735 16.6418 26.3344 16.5331 26.7911 15.9677C27.5739 15.0326 27.5522 13.9888 26.7259 13.1407C26.3779 12.7928 25.856 12.5101 25.5733 12.5101C22.9639 12.5101 20.8545 10.0311 21.4851 7.72607C21.7678 6.68228 22.7681 5.48626 23.6597 5.11659C24.2251 4.87738 24.3121 4.72516 24.3121 4.05105C24.3121 3.18122 24.6165 2.72456 25.1819 2.72456C25.3776 2.72456 25.6386 2.83329 25.7908 2.98551Z" fill="#FF004D"/>
<path d="M9.22059 19.0338C7.19824 19.7514 5.50208 20.3821 5.43684 20.4473C5.3716 20.5125 5.41509 20.643 5.52382 20.7517C5.78477 20.9909 24.747 27.5146 25.1819 27.5146C25.4864 27.5146 44.7313 21.0127 44.9488 20.8387C45.2532 20.5995 44.0354 20.0559 40.7953 18.9468C38.7947 18.2727 37.1203 17.7291 37.0551 17.7291C36.9029 17.7291 36.207 19.0556 36.3157 19.1426C36.3592 19.1643 37.5335 19.5775 38.9469 20.0341C40.3387 20.4908 41.4912 20.9257 41.4912 20.9909C41.4912 21.0562 37.8162 22.3392 33.3366 23.8614L25.1819 26.6231L17.0273 23.8614C12.5477 22.3392 8.87266 21.0562 8.87266 20.9909C8.87266 20.9257 10.0252 20.4908 11.4387 20.0341C12.8304 19.5775 14.0046 19.1643 14.0481 19.1426C14.2221 18.9903 13.3958 17.7291 13.1566 17.7508C13.0261 17.7508 11.2429 18.338 9.22059 19.0338Z" fill="#FF004D"/>
<path d="M1.8488 24.5137C0.80501 25.8402 -0.0213262 26.9492 0.000419525 26.971C0.0439109 27.0145 4.26257 28.5802 9.37281 30.4503L18.7017 33.8861L21.1155 31.4506C23.0074 29.5805 23.4858 28.9716 23.2466 28.8411C23.0074 28.6889 5.00193 22.4479 3.97988 22.1652C3.87115 22.1217 2.91434 23.1872 1.8488 24.5137Z" fill="#FF004D"/>
<path d="M36.6202 25.4705C31.2272 27.3189 26.8129 28.8629 26.7694 28.8846C26.7476 28.9281 27.8349 30.0589 29.2049 31.4288L31.6839 33.8861L39.795 30.8852C44.2529 29.2325 48.4716 27.6886 49.1674 27.4276L50.4287 26.9492L48.5151 24.5355C47.4713 23.1872 46.5579 22.0999 46.4927 22.0999C46.4275 22.0999 41.9914 23.6221 36.6202 25.4705Z" fill="#FF004D"/>
<path d="M4.4148 30.5156C4.34957 30.5808 4.30608 33.6469 4.30608 37.3002C4.30608 42.3887 4.37131 44.0414 4.58877 44.1936C4.84972 44.4111 23.7685 51 24.1164 51C24.2251 51 24.3121 46.6074 24.3121 40.8448V30.6678L21.8548 33.125C20.05 34.9299 19.2671 35.5606 18.8757 35.5606C18.5712 35.5606 15.2224 34.3863 11.4387 32.9728C7.63317 31.5594 4.48004 30.4503 4.4148 30.5156Z" fill="#FF004D"/>
<path d="M38.9904 32.9728C35.1632 34.3863 31.7926 35.5606 31.4882 35.5606C31.0968 35.5606 30.3139 34.9299 28.509 33.125L26.0518 30.6678V40.8448C26.0518 46.9988 26.1387 51 26.2475 51C26.5084 51 45.8186 44.3458 45.9708 44.2153C46.0143 44.1501 46.036 41.0187 46.0143 37.2567L45.9491 30.4068L38.9904 32.9728Z" fill="#FF004D"/>
</svg>
