<svg width="58" height="58" viewBox="0 0 58 58" fill="none" xmlns="http://www.w3.org/2000/svg">
<path d="M28.9996 26.5835C28.5216 26.5835 28.0544 26.7252 27.657 26.9908C27.2596 27.2563 26.9498 27.6338 26.7669 28.0753C26.584 28.5169 26.5361 29.0028 26.6294 29.4716C26.7226 29.9404 26.9528 30.371 27.2908 30.709C27.6288 31.047 28.0594 31.2771 28.5282 31.3704C28.9969 31.4636 29.4829 31.4158 29.9244 31.2329C30.366 31.05 30.7435 30.7402 31.009 30.3428C31.2746 29.9454 31.4163 29.4781 31.4163 29.0002C31.4163 28.3592 31.1617 27.7445 30.7085 27.2913C30.2552 26.8381 29.6406 26.5835 28.9996 26.5835ZM47.4146 29.0002L47.6805 28.6618C50.943 24.1668 51.7163 20.0343 49.928 16.9168C48.1396 13.7993 44.128 12.4218 38.6663 12.9777H38.2313C36.0321 7.97516 32.7696 4.8335 28.9996 4.8335C25.2296 4.8335 21.9671 7.97516 19.7921 13.0502L19.333 12.9777C13.8713 12.4218 9.85962 13.7993 8.07129 16.9168C6.28295 20.0343 7.05629 24.1668 10.3188 28.6618L10.5846 29.0002L10.3188 29.3385C7.05629 33.8335 6.28295 37.966 8.07129 41.0835C9.66629 43.7418 12.7355 45.1435 16.9163 45.1435C17.6655 45.1435 18.4388 45.1435 19.333 45.0227H19.768C21.9671 50.0252 25.2296 53.1668 28.9996 53.1668C32.7696 53.1668 36.0321 50.0252 38.2071 44.9502H38.6421C39.4638 44.9502 40.2371 45.071 41.0588 45.071C45.3363 45.071 48.478 43.6693 50.0005 41.011C51.7888 37.8935 51.0155 33.761 47.753 29.266L47.4146 29.0002ZM12.2521 19.3335C12.8563 18.2702 14.6688 17.6902 17.0855 17.6902H18.2696C17.8909 19.1768 17.6084 20.6863 17.4238 22.2093C16.1926 23.1406 15.0222 24.1496 13.9196 25.2302C12.083 22.8135 11.5513 20.5418 12.2521 19.3335ZM12.2521 38.6668C11.5513 37.4585 12.2521 35.1868 13.8713 32.6977C14.9738 33.7782 16.1443 34.7872 17.3755 35.7185C17.5601 37.2494 17.8426 38.767 18.2213 40.2618C15.2246 40.4552 12.953 39.8752 12.2521 38.6668ZM28.9996 9.66683C30.353 9.66683 31.9721 11.2618 33.3496 14.0893C31.8732 14.5178 30.421 15.0261 28.9996 15.6118C27.5782 15.0261 26.1261 14.5178 24.6496 14.0893C26.0271 11.2618 27.6463 9.66683 28.9996 9.66683ZM28.9996 48.3335C27.6463 48.3335 26.0271 46.7385 24.6496 43.911C26.1261 43.4825 27.5782 42.9742 28.9996 42.3885C30.421 42.9742 31.8732 43.4825 33.3496 43.911C31.9721 46.7385 30.353 48.3335 28.9996 48.3335ZM36.0805 33.0843C34.9688 33.8577 33.833 34.5827 32.6246 35.2835C31.4163 35.9843 30.208 36.6127 28.9996 37.1685C27.7913 36.6046 26.583 35.9763 25.3746 35.2835C24.1663 34.5827 22.958 33.8577 21.9188 33.0843C21.7496 31.7793 21.7496 30.426 21.7496 29.0002C21.7496 27.5743 21.7496 26.221 21.9188 24.916C23.0305 24.1427 24.1663 23.4177 25.3746 22.7168C26.583 22.016 27.7913 21.3877 28.9996 20.8318C30.208 21.3957 31.4163 22.0241 32.6246 22.7168C33.833 23.4177 35.0413 24.1427 36.0805 24.916C36.0805 26.221 36.2496 27.5743 36.2496 29.0002C36.2496 30.426 36.2496 31.7793 36.0805 33.0843V33.0843ZM45.7471 38.6668C45.0463 39.8752 42.7746 40.4793 39.778 40.2618C40.1566 38.767 40.4392 37.2494 40.6238 35.7185C41.855 34.7872 43.0254 33.7782 44.128 32.6977C45.9163 35.1868 46.448 37.4585 45.7471 38.6668ZM44.128 25.3027C43.0254 24.2221 41.855 23.2131 40.6238 22.2818C40.4392 20.7588 40.1567 19.2493 39.778 17.7627H40.9621C43.3788 17.7627 45.143 18.3427 45.7955 19.406C46.448 20.4693 45.9163 22.8135 44.128 25.3027V25.3027Z" fill="#FF004C"/>
</svg>
