<svg width="57" height="57" viewBox="0 0 57 57" fill="none" xmlns="http://www.w3.org/2000/svg">
<g clip-path="url(#clip0_729_696)">
<path fill-rule="evenodd" clip-rule="evenodd" d="M20.4075 34.1171C20.3925 34.5202 19.4628 35.0589 19.1584 35.256C17.7573 36.1605 15.7443 36.7607 14.4307 35.4198C13.16 34.1236 13.5177 31.7022 14.8884 30.8448C15.5783 30.418 16.4716 30.2193 17.4093 30.1383C18.1585 30.0742 19.6908 29.9363 20.3925 30.0181L20.4075 34.1171ZM10.9326 21.6152L11.4809 23.8216C12.4051 23.592 12.9607 23.2595 14.3528 22.9787C15.4369 22.7655 16.616 22.6429 17.7765 22.7945C18.9462 22.948 19.5987 23.3949 19.9998 24.2808C20.2033 24.7268 20.3137 25.2541 20.3703 25.8048L20.3567 27.5895C20.2804 27.6308 16.8602 27.8515 16.3699 27.9149C12.9566 28.3618 9.52114 30.255 10.0552 34.633C10.3874 37.3569 11.8259 38.5973 14.5214 38.9299C15.9994 39.1123 16.9761 38.9387 18.1992 38.41C18.7157 38.1867 19.1956 37.9305 19.6312 37.6491C20.2153 37.279 20.7263 36.7453 20.8431 36.6772L21.2046 38.5487H23.974C24.0257 37.9768 23.9844 30.9754 23.9844 30.1975C23.9844 28.8006 23.9844 27.4078 23.9844 26.011C23.9844 24.6587 23.8843 23.592 23.2636 22.5877C21.3875 19.5386 17.3075 19.6829 13.9372 20.5127C13.183 20.6978 11.3936 21.2013 10.9326 21.6152Z" fill="#FF004D"/>
<path fill-rule="evenodd" clip-rule="evenodd" d="M53.4033 34.3502C53.164 34.4882 52.9133 34.7352 52.639 34.9389C51.8578 35.5139 50.8864 36.0457 49.8561 36.1764C46.8007 36.5614 46.0822 33.3465 47.064 31.6883C48.1132 29.9182 51.4401 30.0154 53.4129 30.0073L53.4033 34.3502ZM43.9359 21.6037C43.955 21.948 44.3719 23.5526 44.5096 23.8035C45.0242 23.6971 46.1561 23.2106 47.3949 22.9631C49.1928 22.5993 52.1472 22.2955 53.0121 24.2735C53.3644 25.0824 53.6198 27.3188 53.3707 27.5745C53.2157 27.6907 51.7152 27.7021 51.3708 27.7256C49.3869 27.8531 47.7456 28.0065 46.025 28.9316C44.1992 29.9076 42.6814 31.6218 43.0577 34.6466C43.3997 37.3946 44.8389 38.5947 47.5302 38.9367C49.5078 39.1899 51.0629 38.6679 52.6469 37.652C53.3365 37.2094 53.6277 36.8252 53.8623 36.667L54.2108 38.55L57 38.5534V26.0042C57 24.5895 56.8917 23.6037 56.2609 22.5481C54.444 19.5093 50.2491 19.7124 46.9518 20.4984C46.1793 20.6811 44.4171 21.183 43.9359 21.6037Z" fill="#FF004D"/>
<path fill-rule="evenodd" clip-rule="evenodd" d="M31.339 37.9994L35.6335 38C35.7757 37.964 36.0777 37.2402 36.1607 37.0667C36.3229 36.7181 36.4503 36.4025 36.6026 36.0554C36.8914 35.3985 37.1582 34.6652 37.4095 33.964C38.4463 31.0619 39.2846 27.8948 39.9986 24.8674C40.1739 24.1212 41 20.5214 41 20.0065L37.79 20.004C37.089 19.9952 37.3735 19.9029 37.1852 21.3967C36.9914 22.9463 36.6801 24.4957 36.3229 25.9558C36.06 27.0218 34.2409 33.8001 33.8781 34.2371L32.9613 30.6064C32.617 29.3984 32.3018 28.2354 31.9406 27.0499L30.3561 21.7839C30.1755 21.1911 30.0033 20.5566 29.7942 20.0137L26 20.004C26.0161 20.3542 28.4923 28.4459 28.66 29.0169C29.114 30.5575 29.553 31.9719 30.0002 33.4868C30.4344 34.9792 30.9447 36.5205 31.339 37.9994Z" fill="#FF004D"/>
<path fill-rule="evenodd" clip-rule="evenodd" d="M3.48056 19.8815L3.48279 34.9957C3.48279 37.8059 2.62762 41.009 0 41.9301C0.153254 42.2723 1.28591 43.5176 1.58666 44C2.47735 43.8308 3.78577 42.9558 4.2777 42.4546C5.03095 41.6917 5.49443 41.0978 6.05183 39.8766C7.16478 37.4428 6.98753 34.864 6.98753 31.9446C6.98753 25.9798 7.01655 20.0086 6.98605 14.0437C6.57632 13.9649 4.17076 14.0164 3.48056 14.018V19.8815Z" fill="#FF004D"/>
</g>
<defs>
<clipPath id="clip0_729_696">
<rect width="57" height="30" fill="white" transform="translate(0 14)"/>
</clipPath>
</defs>
</svg>
