<svg width="58" height="58" viewBox="0 0 58 58" fill="none" xmlns="http://www.w3.org/2000/svg">
<path fill-rule="evenodd" clip-rule="evenodd" d="M50.1797 14.7187C50.2011 16.1603 50.0206 17.9677 49.8614 19.2858C49.811 19.7213 49.7317 20.1529 49.6239 20.5778C51.6569 24.3422 52.5547 28.8713 52.5547 33.8185C52.5547 39.68 49.7356 44.5083 45.3442 47.8001C40.9932 51.061 35.1222 52.8185 28.8047 52.8185C22.4872 52.8185 16.6162 51.061 12.2652 47.8001C7.87381 44.5083 5.05469 39.68 5.05469 33.8185C5.05469 28.8713 5.95006 24.3422 7.98781 20.5778C7.88011 20.1529 7.80077 19.7213 7.75031 19.2858C7.58644 17.9677 7.40594 16.1603 7.42969 14.7187C7.45344 13.0966 7.66719 11.4745 7.90231 9.86422C8.01156 9.11847 8.18256 8.41785 8.99244 7.9761C9.81894 7.52485 10.6882 7.6911 11.5456 7.93572C14.4383 8.7551 17.1506 9.90697 19.7013 11.2845C22.3922 10.4793 25.4274 10.0685 28.8047 10.0685C32.1819 10.0685 35.2172 10.4793 37.9057 11.2868C40.4922 9.87278 43.2275 8.74968 46.0614 7.9381C46.9188 7.69347 47.7904 7.52485 48.6146 7.9761C49.4221 8.41785 49.5954 9.11847 49.7071 9.86422C49.9398 11.4745 50.1559 13.0966 50.1797 14.7187ZM47.8047 33.8185C47.8047 29.8118 46.8832 24.3185 41.8672 24.3185C39.6062 24.3185 37.4663 16.6003 35.3288 17.194C33.1937 17.7878 31.0609 19.2858 28.8047 19.2858C26.5484 19.2858 24.4157 17.7878 22.2806 17.194C20.1431 16.6003 18.0056 24.3185 15.7422 24.3185C10.7404 24.3185 9.80469 29.8285 9.80469 33.8185C9.80469 38.008 11.7688 41.4921 15.1152 44.0001C18.4972 46.539 23.3184 48.0685 28.8047 48.0685C34.2909 48.0685 39.1098 46.5366 42.4942 44.0001C45.8406 41.4897 47.8047 38.008 47.8047 33.8185ZM24.0547 35.006C24.0547 38.2835 22.4587 40.9435 20.4922 40.9435C18.5257 40.9435 16.9297 38.2835 16.9297 35.006C16.9297 31.7285 18.5257 29.0685 20.4922 29.0685C22.4587 29.0685 24.0547 31.7285 24.0547 35.006ZM37.1172 40.9435C39.0837 40.9435 40.6797 38.2835 40.6797 35.006C40.6797 31.7285 39.0837 29.0685 37.1172 29.0685C35.1507 29.0685 33.5547 31.7285 33.5547 35.006C33.5547 38.2835 35.1507 40.9435 37.1172 40.9435Z" fill="#FF004C"/>
</svg>
