<svg width="58" height="58" viewBox="0 0 58 58" fill="none" xmlns="http://www.w3.org/2000/svg">
<path d="M43.0547 24.3184H14.5547C13.9248 24.3184 13.3207 24.5686 12.8753 25.014C12.4299 25.4594 12.1797 26.0635 12.1797 26.6934C12.1797 27.3232 12.4299 27.9273 12.8753 28.3727C13.3207 28.8181 13.9248 29.0684 14.5547 29.0684H16.9297V50.4434C16.9297 51.0732 17.1799 51.6773 17.6253 52.1227C18.0707 52.5681 18.6748 52.8184 19.3047 52.8184C19.9346 52.8184 20.5387 52.5681 20.9841 52.1227C21.4295 51.6773 21.6797 51.0732 21.6797 50.4434V48.0684H26.4297V50.4434C26.4297 51.0732 26.6799 51.6773 27.1253 52.1227C27.5707 52.5681 28.1748 52.8184 28.8047 52.8184C29.4346 52.8184 30.0387 52.5681 30.4841 52.1227C30.9295 51.6773 31.1797 51.0732 31.1797 50.4434V48.0684H35.9297V50.4434C35.9297 51.0732 36.1799 51.6773 36.6253 52.1227C37.0707 52.5681 37.6748 52.8184 38.3047 52.8184C38.9346 52.8184 39.5387 52.5681 39.9841 52.1227C40.4295 51.6773 40.6797 51.0732 40.6797 50.4434V29.0684H43.0547C43.6846 29.0684 44.2887 28.8181 44.7341 28.3727C45.1795 27.9273 45.4297 27.3232 45.4297 26.6934C45.4297 26.0635 45.1795 25.4594 44.7341 25.014C44.2887 24.5686 43.6846 24.3184 43.0547 24.3184ZM26.4297 43.3184H21.6797V38.5684H26.4297V43.3184ZM26.4297 33.8184H21.6797V29.0684H26.4297V33.8184ZM35.9297 43.3184H31.1797V38.5684H35.9297V43.3184ZM35.9297 33.8184H31.1797V29.0684H35.9297V33.8184ZM47.8047 5.31836H9.80469C7.91502 5.31836 6.10275 6.06903 4.76655 7.40522C3.43035 8.74142 2.67969 10.5537 2.67969 12.4434V31.4434C2.67969 33.333 3.43035 35.1453 4.76655 36.4815C6.10275 37.8177 7.91502 38.5684 9.80469 38.5684C10.4346 38.5684 11.0387 38.3181 11.4841 37.8727C11.9295 37.4273 12.1797 36.8232 12.1797 36.1934C12.1797 35.5635 11.9295 34.9594 11.4841 34.514C11.0387 34.0686 10.4346 33.8184 9.80469 33.8184C9.1748 33.8184 8.57071 33.5681 8.12531 33.1227C7.67991 32.6773 7.42969 32.0732 7.42969 31.4434V12.4434C7.42969 11.8135 7.67991 11.2094 8.12531 10.764C8.57071 10.3186 9.1748 10.0684 9.80469 10.0684H47.8047C48.4346 10.0684 49.0387 10.3186 49.4841 10.764C49.9295 11.2094 50.1797 11.8135 50.1797 12.4434V31.4434C50.1797 32.0732 49.9295 32.6773 49.4841 33.1227C49.0387 33.5681 48.4346 33.8184 47.8047 33.8184C47.1748 33.8184 46.5707 34.0686 46.1253 34.514C45.6799 34.9594 45.4297 35.5635 45.4297 36.1934C45.4297 36.8232 45.6799 37.4273 46.1253 37.8727C46.5707 38.3181 47.1748 38.5684 47.8047 38.5684C49.6944 38.5684 51.5066 37.8177 52.8428 36.4815C54.179 35.1453 54.9297 33.333 54.9297 31.4434V12.4434C54.9297 10.5537 54.179 8.74142 52.8428 7.40522C51.5066 6.06903 49.6944 5.31836 47.8047 5.31836ZM33.5547 19.5684C34.1846 19.5684 34.7887 19.3181 35.2341 18.8727C35.6795 18.4273 35.9297 17.8232 35.9297 17.1934C35.9297 16.5635 35.6795 15.9594 35.2341 15.514C34.7887 15.0686 34.1846 14.8184 33.5547 14.8184H24.0547C23.4248 14.8184 22.8207 15.0686 22.3753 15.514C21.9299 15.9594 21.6797 16.5635 21.6797 17.1934C21.6797 17.8232 21.9299 18.4273 22.3753 18.8727C22.8207 19.3181 23.4248 19.5684 24.0547 19.5684H33.5547Z" fill="#FF004C"/>
</svg>
