<svg width="58" height="58" viewBox="0 0 58 58" fill="none" xmlns="http://www.w3.org/2000/svg">
<path d="M38.3047 33.8184H19.3047C18.6748 33.8184 18.0707 34.0686 17.6253 34.514C17.1799 34.9594 16.9297 35.5635 16.9297 36.1934C16.9297 36.8232 17.1799 37.4273 17.6253 37.8727C18.0707 38.3181 18.6748 38.5684 19.3047 38.5684H38.3047C38.9346 38.5684 39.5387 38.3181 39.9841 37.8727C40.4295 37.4273 40.6797 36.8232 40.6797 36.1934C40.6797 35.5635 40.4295 34.9594 39.9841 34.514C39.5387 34.0686 38.9346 33.8184 38.3047 33.8184ZM38.3047 24.3184H24.0547C23.4248 24.3184 22.8207 24.5686 22.3753 25.014C21.9299 25.4594 21.6797 26.0635 21.6797 26.6934C21.6797 27.3232 21.9299 27.9273 22.3753 28.3727C22.8207 28.8181 23.4248 29.0684 24.0547 29.0684H38.3047C38.9346 29.0684 39.5387 28.8181 39.9841 28.3727C40.4295 27.9273 40.6797 27.3232 40.6797 26.6934C40.6797 26.0635 40.4295 25.4594 39.9841 25.014C39.5387 24.5686 38.9346 24.3184 38.3047 24.3184ZM47.8047 10.0684H40.6797V7.69336C40.6797 7.06347 40.4295 6.45938 39.9841 6.01398C39.5387 5.56858 38.9346 5.31836 38.3047 5.31836C37.6748 5.31836 37.0707 5.56858 36.6253 6.01398C36.1799 6.45938 35.9297 7.06347 35.9297 7.69336V10.0684H31.1797V7.69336C31.1797 7.06347 30.9295 6.45938 30.4841 6.01398C30.0387 5.56858 29.4346 5.31836 28.8047 5.31836C28.1748 5.31836 27.5707 5.56858 27.1253 6.01398C26.6799 6.45938 26.4297 7.06347 26.4297 7.69336V10.0684H21.6797V7.69336C21.6797 7.06347 21.4295 6.45938 20.9841 6.01398C20.5387 5.56858 19.9346 5.31836 19.3047 5.31836C18.6748 5.31836 18.0707 5.56858 17.6253 6.01398C17.1799 6.45938 16.9297 7.06347 16.9297 7.69336V10.0684H9.80469C9.1748 10.0684 8.57071 10.3186 8.12531 10.764C7.67991 11.2094 7.42969 11.8135 7.42969 12.4434V45.6934C7.42969 47.583 8.18036 49.3953 9.51655 50.7315C10.8527 52.0677 12.665 52.8184 14.5547 52.8184H43.0547C44.9444 52.8184 46.7566 52.0677 48.0928 50.7315C49.429 49.3953 50.1797 47.583 50.1797 45.6934V12.4434C50.1797 11.8135 49.9295 11.2094 49.4841 10.764C49.0387 10.3186 48.4346 10.0684 47.8047 10.0684ZM45.4297 45.6934C45.4297 46.3232 45.1795 46.9273 44.7341 47.3727C44.2887 47.8181 43.6846 48.0684 43.0547 48.0684H14.5547C13.9248 48.0684 13.3207 47.8181 12.8753 47.3727C12.4299 46.9273 12.1797 46.3232 12.1797 45.6934V14.8184H16.9297V17.1934C16.9297 17.8232 17.1799 18.4273 17.6253 18.8727C18.0707 19.3181 18.6748 19.5684 19.3047 19.5684C19.9346 19.5684 20.5387 19.3181 20.9841 18.8727C21.4295 18.4273 21.6797 17.8232 21.6797 17.1934V14.8184H26.4297V17.1934C26.4297 17.8232 26.6799 18.4273 27.1253 18.8727C27.5707 19.3181 28.1748 19.5684 28.8047 19.5684C29.4346 19.5684 30.0387 19.3181 30.4841 18.8727C30.9295 18.4273 31.1797 17.8232 31.1797 17.1934V14.8184H35.9297V17.1934C35.9297 17.8232 36.1799 18.4273 36.6253 18.8727C37.0707 19.3181 37.6748 19.5684 38.3047 19.5684C38.9346 19.5684 39.5387 19.3181 39.9841 18.8727C40.4295 18.4273 40.6797 17.8232 40.6797 17.1934V14.8184H45.4297V45.6934Z" fill="#FF004C"/>
</svg>
