<svg width="58" height="58" viewBox="0 0 58 58" fill="none" xmlns="http://www.w3.org/2000/svg">
<path d="M50.1797 33.8184H47.8047V7.69336C47.8047 7.06347 47.5545 6.45938 47.1091 6.01398C46.6637 5.56858 46.0596 5.31836 45.4297 5.31836H12.1797C11.5498 5.31836 10.9457 5.56858 10.5003 6.01398C10.0549 6.45938 9.80469 7.06347 9.80469 7.69336V33.8184H7.42969C6.7998 33.8184 6.19571 34.0686 5.75031 34.514C5.30491 34.9594 5.05469 35.5635 5.05469 36.1934C5.05469 36.8232 5.30491 37.4273 5.75031 37.8727C6.19571 38.3181 6.7998 38.5684 7.42969 38.5684H26.4297V41.2996L15.6234 48.4246C15.1801 48.699 14.8394 49.1117 14.6539 49.599C14.4684 50.0863 14.4484 50.6211 14.5969 51.1208C14.7455 51.6206 15.0544 52.0576 15.476 52.3644C15.8976 52.6712 16.4084 52.8307 16.9297 52.8184C17.3966 52.8237 17.8535 52.6825 18.2359 52.4146L26.4297 46.9996V50.4434C26.4297 51.0732 26.6799 51.6773 27.1253 52.1227C27.5707 52.5681 28.1748 52.8184 28.8047 52.8184C29.4346 52.8184 30.0387 52.5681 30.4841 52.1227C30.9295 51.6773 31.1797 51.0732 31.1797 50.4434V46.9996L39.3734 52.4146C39.7559 52.6825 40.2128 52.8237 40.6797 52.8184C41.1871 52.8144 41.6799 52.6481 42.0859 52.3437C42.4919 52.0394 42.7898 51.613 42.9358 51.127C43.0819 50.6411 43.0685 50.1211 42.8975 49.6433C42.7266 49.1656 42.4071 48.7551 41.9859 48.4721L31.1797 41.3471V38.5684H50.1797C50.8096 38.5684 51.4137 38.3181 51.8591 37.8727C52.3045 37.4273 52.5547 36.8232 52.5547 36.1934C52.5547 35.5635 52.3045 34.9594 51.8591 34.514C51.4137 34.0686 50.8096 33.8184 50.1797 33.8184ZM43.0547 33.8184H14.5547V10.0684H43.0547V33.8184ZM21.6797 29.0684C22.0709 29.0663 22.4555 28.9677 22.7994 28.7813C23.1433 28.5948 23.4358 28.3263 23.6509 27.9996L26.8097 23.2496L29.4934 25.9571C29.7426 26.2078 30.0446 26.3998 30.3775 26.5189C30.7103 26.6381 31.0655 26.6815 31.4172 26.6459C31.7673 26.6074 32.1046 26.4916 32.4044 26.3068C32.7043 26.1219 32.9593 25.8727 33.1509 25.5771L37.9009 18.4521C38.1807 17.9306 38.2556 17.3235 38.1112 16.7497C37.9667 16.1758 37.6132 15.6766 37.1199 15.3497C36.6266 15.0228 36.0291 14.8918 35.4443 14.9825C34.8595 15.0731 34.3297 15.3788 33.9584 15.8396L30.7997 20.5896L28.1159 17.8821C27.8667 17.6314 27.5647 17.4394 27.2319 17.3203C26.8991 17.2011 26.5439 17.1578 26.1922 17.1934C25.842 17.2318 25.5048 17.3476 25.2049 17.5325C24.9051 17.7173 24.6501 17.9665 24.4584 18.2621L19.7084 25.3871C19.3647 25.9107 19.2417 26.5489 19.3663 27.1627C19.4908 27.7766 19.8528 28.3164 20.3734 28.6646C20.7559 28.9325 21.2128 29.0737 21.6797 29.0684Z" fill="#FF004C"/>
</svg>
