<svg width="54" height="54" viewBox="0 0 54 54" fill="none" xmlns="http://www.w3.org/2000/svg">
<path d="M49.9089 20.1687H43.4926L48.0297 15.6317C49.6245 14.0367 49.6245 11.4413 48.0297 9.84597L44.1541 5.9705C42.5589 4.3757 39.9637 4.3757 38.3685 5.9705L33.8315 10.5077V4.09115C33.8315 1.83537 31.9962 0 29.7404 0H24.2596C22.0037 0 20.1685 1.83537 20.1685 4.09115V10.5075L15.6315 5.97029C14.0363 4.37549 11.4409 4.37549 9.84582 5.97029L5.97027 9.84597C4.37126 11.4451 4.37147 14.0326 5.97027 15.6316L10.5072 20.1686H4.09113C1.83516 20.1684 0 22.0038 0 24.2596V29.7404C0 31.9962 1.83516 33.8316 4.09113 33.8316H10.5074L5.97048 38.3685C4.37147 39.9676 4.37147 42.5551 5.97048 44.1542L9.84593 48.0297C11.4411 49.6247 14.0365 49.6247 15.6316 48.0297L20.1686 43.4925V49.9089C20.1686 52.1646 22.0037 54 24.2597 54H29.7405C31.9963 54 33.8316 52.1646 33.8316 49.9089V43.4925L38.3686 48.0297C39.9638 49.6247 42.5592 49.6243 44.1543 48.0297L48.0297 44.1542C49.6247 42.559 49.6247 39.9636 48.0297 38.3685L43.4926 33.8316H49.9089C52.1646 33.8316 54 31.9962 54 29.7404V24.2596C54 22.004 52.1648 20.1687 49.9089 20.1687ZM51.2726 29.7406C51.2726 30.4926 50.6609 31.1043 49.9089 31.1043H40.2003C38.9902 31.1043 38.3777 32.5737 39.2359 33.4325L46.1009 40.2976C46.6328 40.8292 46.6328 41.6944 46.1009 42.2258L42.2255 46.1013C41.6935 46.633 40.8281 46.633 40.297 46.1013L33.4319 39.2362C32.576 38.3808 31.1038 38.9864 31.1038 40.2006V49.9093C31.1038 50.6613 30.4922 51.273 29.7401 51.273H24.2593C23.5073 51.273 22.8956 50.6614 22.8956 49.9093V40.2006C22.8956 38.9806 21.419 38.3849 20.5677 39.2362L13.7028 46.1013C13.1711 46.6333 12.306 46.6332 11.7742 46.1013L7.89898 42.2258C7.36604 41.6931 7.36604 40.8303 7.89898 40.2976L14.7638 33.4325C15.6193 32.5768 15.0138 31.1043 13.7996 31.1043H4.09113C3.33914 31.1043 2.72742 30.4927 2.72742 29.7406V24.2598C2.72742 23.5078 3.33904 22.8961 4.09113 22.8961H13.7997C15.01 22.8961 15.6226 21.4267 14.7639 20.568L7.89887 13.7029C7.36594 13.1701 7.36594 12.3073 7.89887 11.7746L11.7743 7.8989C12.3062 7.36702 13.1713 7.36723 13.7029 7.8989L20.5678 14.764C21.4267 15.6231 22.8957 15.0089 22.8957 13.7996V4.09115C22.8957 3.33915 23.5073 2.72743 24.2594 2.72743H29.7402C30.4922 2.72743 31.1039 3.33905 31.1039 4.09115V13.7998C31.1039 15.0104 32.5733 15.6224 33.432 14.7642L40.2971 7.89911C40.8285 7.36765 41.6937 7.36723 42.2254 7.89911L46.1008 11.7746C46.6325 12.3065 46.6327 13.1715 46.1008 13.7031L39.2357 20.5682C38.3803 21.4241 38.9859 22.8963 40.2002 22.8963H49.9088C50.6608 22.8963 51.2725 23.5079 51.2725 24.26V29.7406H51.2726Z" fill="#FF004D"/>
<path d="M35.0729 23.8016H31.1252C30.6132 23.8016 30.1983 23.3867 30.1983 22.8747V18.927C30.1983 18.415 29.7833 18 29.2713 18H24.7286C24.2166 18 23.8016 18.415 23.8016 18.927V22.8747C23.8016 23.3867 23.3864 23.8016 22.8747 23.8016H18.927C18.415 23.8016 18 24.2166 18 24.7286V29.2714C18 29.7834 18.4152 30.1984 18.927 30.1984H22.8747C23.3867 30.1984 23.8016 30.6133 23.8016 31.1253V35.073C23.8016 35.585 24.2166 36 24.7286 36H29.2713C29.7833 36.0002 30.1983 35.585 30.1983 35.073V31.1253C30.1983 30.6133 30.6132 30.1984 31.1252 30.1984H35.0729C35.5849 30.1984 36 29.7834 36 29.2714V24.7286C36 24.2166 35.585 23.8016 35.0729 23.8016Z" fill="#FF004D"/>
</svg>
