<svg width="85" height="80" viewBox="0 0 85 80" fill="none" xmlns="http://www.w3.org/2000/svg">
<path d="M47.1759 33.4083H35.4639C35.3078 32.2058 34.9877 31.1205 34.5036 30.1523C34.0195 29.1841 33.3792 28.3565 32.5828 27.6694C31.7864 26.9823 30.8416 26.4591 29.7485 26.1C28.671 25.7252 27.4764 25.5378 26.1646 25.5378C23.8378 25.5378 21.8312 26.1078 20.1446 27.2477C18.4737 28.3877 17.1854 30.0352 16.2797 32.1902C15.3896 34.3452 14.9445 36.9531 14.9445 40.0138C14.9445 43.1995 15.3974 45.8698 16.3031 48.0248C17.2245 50.1642 18.5128 51.7805 20.1681 52.8736C21.839 53.9511 23.8144 54.4899 26.0943 54.4899C27.3749 54.4899 28.5382 54.3259 29.5845 53.998C30.6464 53.67 31.5756 53.1937 32.372 52.5691C33.184 51.9288 33.8477 51.1558 34.363 50.2501C34.894 49.3288 35.2609 48.2903 35.4639 47.1347L47.1759 47.205C46.9729 49.3288 46.3561 51.4213 45.3254 53.4826C44.3104 55.5439 42.9128 57.4257 41.1325 59.1278C39.3523 60.8143 37.1817 62.1573 34.6207 63.1567C32.0753 64.1562 29.1551 64.6559 25.8601 64.6559C21.5189 64.6559 17.6305 63.7033 14.1949 61.7981C10.775 59.8774 8.07347 57.0821 6.09024 53.4124C4.10701 49.7426 3.11539 45.2764 3.11539 40.0138C3.11539 34.7356 4.12262 30.2616 6.13709 26.5919C8.15155 22.9221 10.8765 20.1347 14.3121 18.2295C17.7476 16.3243 21.5969 15.3718 25.8601 15.3718C28.7647 15.3718 31.4506 15.7778 33.918 16.5898C36.3853 17.3862 38.5559 18.5574 40.4298 20.1034C42.3037 21.6338 43.8263 23.5155 44.9975 25.7486C46.1687 27.9817 46.8949 30.5349 47.1759 33.4083Z" fill="#FF0044"/>
<path d="M50.9148 47.9447V32.9635H55.0843V47.9447H50.9148ZM45.5038 42.544V38.3745H60.4849V42.544H45.5038ZM70.9164 47.9447V32.9635H75.0859V47.9447H70.9164ZM65.5054 42.544V38.3745H80.4866V42.544H65.5054Z" fill="#FF0044"/>
</svg>
