<svg width="57" height="57" viewBox="0 0 57 57" fill="none" xmlns="http://www.w3.org/2000/svg">
<path d="M49.1862 38.2364L45.2912 34.3414C44.9502 34.025 44.7166 33.61 44.6229 33.1544C44.5292 32.6988 44.5802 32.2253 44.7687 31.8001C45.5969 30.0214 46.0342 28.0859 46.0512 26.1239C46.0622 26.0451 46.0622 25.9651 46.0512 25.8864C46.0594 23.0444 45.1792 20.271 43.5337 17.9539C40.3537 13.5097 36.1394 9.90673 31.2549 7.45636C28.1565 5.9396 24.6631 5.42424 21.2587 5.98171C17.8543 6.53917 14.7077 8.14185 12.2549 10.5676L10.6637 12.1589C8.21239 14.621 6.59405 17.7891 6.03601 21.2183C5.47797 24.6475 6.00827 28.1653 7.55242 31.2776L7.78992 31.6814C6.52247 32.9962 5.80832 34.7476 5.79492 36.5739C5.80435 37.8341 6.14786 39.0692 6.79042 40.1534C7.43298 41.2375 8.3516 42.1318 9.45256 42.7451C10.5535 43.3583 11.7975 43.6686 13.0575 43.6442C14.3175 43.6199 15.5485 43.2617 16.6249 42.6064C17.0524 42.9389 17.4324 43.2951 17.8599 43.6039C18.7589 44.2289 19.7322 44.7395 20.7574 45.1239H20.9712C21.3987 45.2901 21.8499 45.4326 22.3249 45.5751H22.6812C23.4203 45.765 24.1758 45.8842 24.9374 45.9314H25.6024H25.8874H26.4099C26.9087 45.9314 27.3837 45.9314 27.8824 45.7889H28.2862C29.4539 45.5884 30.5886 45.2288 31.6587 44.7201C32.0851 44.5484 32.5522 44.5041 33.0033 44.5926C33.4543 44.6812 33.87 44.8987 34.1999 45.2189L37.6674 48.6864C39.1719 50.1961 41.2123 51.0498 43.3437 51.0614C45.1315 51.0422 46.8391 50.3165 48.0937 49.0426L48.9962 48.1401C50.3062 46.8363 51.0583 45.0745 51.0937 43.2267C51.1292 41.3788 50.4452 39.5894 49.1862 38.2364ZM12.8487 38.9964C12.3789 38.9964 11.9198 38.8571 11.5292 38.5961C11.1386 38.3351 10.8342 37.9642 10.6545 37.5302C10.4747 37.0963 10.4277 36.6187 10.5193 36.158C10.6109 35.6973 10.8371 35.2741 11.1693 34.942C11.5014 34.6098 11.9246 34.3836 12.3853 34.292C12.846 34.2004 13.3236 34.2474 13.7575 34.4271C14.1915 34.6069 14.5624 34.9113 14.8234 35.3019C15.0844 35.6925 15.2237 36.1516 15.2237 36.6214C15.2237 37.2513 14.9734 37.8553 14.5281 38.3007C14.0827 38.7461 13.4786 38.9964 12.8487 38.9964ZM20.2112 39.3289L19.5937 38.8539C19.841 38.1353 19.9693 37.3813 19.9737 36.6214C19.9737 34.7317 19.223 32.9194 17.8868 31.5832C16.5506 30.247 14.7383 29.4964 12.8487 29.4964C12.5399 29.4964 12.2549 29.4964 11.9462 29.4964L11.7324 29.1164C10.6278 26.8947 10.2468 24.3827 10.6429 21.9334C11.0391 19.4841 12.1925 17.2203 13.9412 15.4601L15.5324 13.8689C17.3152 12.1602 19.5864 11.0498 22.0298 10.6922C24.4732 10.3346 26.9673 10.7477 29.1649 11.8739C33.1545 13.8694 36.6199 16.7735 39.2824 20.3526L20.2112 39.3289ZM45.8137 44.9576L44.9349 45.8601C43.9374 46.8576 42.3937 46.6676 41.1112 45.3851L37.6437 41.9414C36.6225 40.9269 35.3181 40.2454 33.9021 39.9868C32.4861 39.7282 31.025 39.9046 29.7112 40.4926C28.9624 40.8595 28.1612 41.1079 27.3362 41.2289C26.8823 41.3155 26.4207 41.3553 25.9587 41.3476H25.1512H24.9137L41.2299 25.0314C41.3962 26.6586 41.1171 28.3005 40.4224 29.7814C39.8344 31.0952 39.658 32.5563 39.9166 33.9723C40.1753 35.3883 40.8567 36.6927 41.8712 37.7139L45.7662 41.6326C46.2077 42.0703 46.46 42.6637 46.4689 43.2854C46.4778 43.9071 46.2426 44.5075 45.8137 44.9576V44.9576Z" fill="#FF004C"/>
</svg>
