<svg width="58" height="58" viewBox="0 0 58 58" fill="none" xmlns="http://www.w3.org/2000/svg">
<path d="M36.4259 4.8335H21.5986C8.05517 4.8335 4.83301 8.05566 4.83301 21.5739V36.4012C4.83301 49.9445 8.03011 53.1668 21.5734 53.1668H36.4007C49.9442 53.1668 53.1663 49.9697 53.1663 36.4263V21.5991C53.1663 8.05566 49.9692 4.8335 36.4259 4.8335ZM43.852 39.3213H40.3278C38.9937 39.3213 38.5908 38.2388 36.1994 35.8473C34.1099 33.8335 33.2288 33.5817 32.7002 33.5817C31.9702 33.5817 31.7687 33.7831 31.7687 34.79V37.9619C31.7687 38.8179 31.4919 39.3213 29.2515 39.3213C27.0774 39.1752 24.9691 38.5148 23.1003 37.3943C21.2315 36.2739 19.6555 34.7256 18.5023 32.8768C15.7645 29.4691 13.8595 25.4696 12.939 21.1963C12.939 20.6676 13.1403 20.1893 14.1473 20.1893H17.6715C18.5778 20.1893 18.9051 20.5921 19.2575 21.5236C20.9692 26.5583 23.8895 30.9385 25.0726 30.9385C25.5257 30.9385 25.727 30.7371 25.727 29.6043V24.4185C25.576 22.0522 24.3174 21.8508 24.3174 20.995C24.334 20.7692 24.4379 20.5587 24.6071 20.4083C24.7763 20.2579 24.9975 20.1793 25.2236 20.1893H30.7619C31.5171 20.1893 31.7687 20.5669 31.7687 21.4732V28.4715C31.7687 29.2267 32.096 29.4784 32.3226 29.4784C32.7757 29.4784 33.1281 29.2267 33.9588 28.396C35.744 26.219 37.2026 23.7937 38.2887 21.1963C38.3996 20.8838 38.6097 20.6161 38.887 20.4343C39.1643 20.2524 39.4936 20.1664 39.8244 20.1893H43.3486C44.4059 20.1893 44.6325 20.718 44.4059 21.4732C43.1236 24.3449 41.537 27.0709 39.6733 29.6043C39.2957 30.1833 39.1447 30.4854 39.6733 31.165C40.0257 31.6937 41.2593 32.7258 42.09 33.7075C43.2983 34.9128 44.3016 36.3074 45.0604 37.8361C45.3625 38.8179 44.859 39.3213 43.852 39.3213V39.3213Z" fill="#FF004C"/>
</svg>
