<svg width="21" height="35" viewBox="0 0 21 35" fill="none" xmlns="http://www.w3.org/2000/svg">
<path d="M1.46079 3.66421C0.679737 2.88317 0.679737 1.61683 1.46079 0.835786C2.24183 0.0547378 3.50817 0.0547378 4.28921 0.835786L1.46079 3.66421ZM18.125 17.5L19.5392 16.0858L20.9534 17.5L19.5392 18.9142L18.125 17.5ZM4.28921 34.1642C3.50817 34.9453 2.24183 34.9453 1.46079 34.1642C0.679737 33.3832 0.679737 32.1168 1.46079 31.3358L4.28921 34.1642ZM4.28921 0.835786L19.5392 16.0858L16.7108 18.9142L1.46079 3.66421L4.28921 0.835786ZM19.5392 18.9142L4.28921 34.1642L1.46079 31.3358L16.7108 16.0858L19.5392 18.9142Z" fill="#FF005C"/>
</svg>
