<svg width="57" height="57" viewBox="0 0 57 57" fill="none" xmlns="http://www.w3.org/2000/svg">
<path d="M49.3751 43.4149V43.7089L49.6321 43.8519C50.2068 44.1715 50.6995 44.6202 51.0714 45.1626C51.4433 45.705 51.6842 46.3263 51.7753 46.9776C51.8663 47.6289 51.805 48.2924 51.5961 48.916C51.3872 49.5396 51.0364 50.1061 50.5714 50.5712C50.1064 51.0362 49.5398 51.3869 48.9162 51.5958C48.2927 51.8047 47.6291 51.8661 46.9778 51.775C46.3265 51.684 45.7052 51.443 45.1628 51.0711C44.6204 50.6992 44.1718 50.2066 43.8521 49.6319L43.7092 49.3749H43.4151H27.8351H27.5411L27.3982 49.6319C27.0785 50.2066 26.6298 50.6992 26.0875 51.0711C25.5451 51.443 24.9238 51.684 24.2725 51.775C23.6212 51.8661 22.9576 51.8047 22.3341 51.5958C21.7105 51.3869 21.1439 51.0362 20.6789 50.5712C20.2139 50.1061 19.8631 49.5396 19.6542 48.916C19.4453 48.2924 19.384 47.6289 19.475 46.9776C19.5661 46.3263 19.807 45.705 20.1789 45.1626C20.5508 44.6202 21.0435 44.1715 21.6182 43.8519L21.8751 43.7089V43.4149V35.6249V35.1249H21.3751H13.5851H13.2911L13.1482 35.3819C12.8285 35.9566 12.3798 36.4492 11.8375 36.8211C11.2951 37.193 10.6738 37.434 10.0225 37.525C9.37118 37.6161 8.70763 37.5547 8.08406 37.3458C7.46048 37.1369 6.8939 36.7862 6.42888 36.3212C5.96386 35.8561 5.6131 35.2896 5.4042 34.666C5.1953 34.0424 5.13396 33.3789 5.22501 32.7276C5.31606 32.0763 5.55701 31.455 5.9289 30.9126C6.30079 30.3702 6.79348 29.9215 7.36819 29.6019L7.62514 29.4589V29.1649V13.5849V13.2909L7.36819 13.1479C6.79348 12.8283 6.30079 12.3796 5.9289 11.8372C5.55701 11.2948 5.31606 10.6735 5.22501 10.0222C5.13396 9.37093 5.1953 8.70739 5.4042 8.08382C5.6131 7.46024 5.96386 6.89365 6.42888 6.42863C6.8939 5.96362 7.46048 5.61286 8.08406 5.40396C8.70763 5.19506 9.37118 5.13372 10.0225 5.22477C10.6738 5.31581 11.2951 5.55676 11.8375 5.92865C12.3798 6.30055 12.8285 6.79323 13.1482 7.36794L13.2911 7.6249H13.5851H29.1651H29.4592L29.6021 7.36794C29.9218 6.79323 30.3704 6.30055 30.9128 5.92865C31.4552 5.55676 32.0765 5.31581 32.7278 5.22477C33.3791 5.13372 34.0427 5.19506 34.6662 5.40396C35.2898 5.61286 35.8564 5.96362 36.3214 6.42863C36.7864 6.89365 37.1372 7.46024 37.3461 8.08382C37.555 8.70739 37.6163 9.37093 37.5253 10.0222C37.4342 10.6735 37.1933 11.2948 36.8214 11.8372C36.4495 12.3796 35.9568 12.8283 35.3821 13.1479L35.1251 13.2909V13.5849V21.3749V21.8749H35.6251H43.4151H43.7092L43.8521 21.6179C44.1718 21.0432 44.6204 20.5505 45.1628 20.1787C45.7052 19.8068 46.3265 19.5658 46.9778 19.4748C47.6291 19.3837 48.2927 19.4451 48.9162 19.654C49.5398 19.8629 50.1064 20.2136 50.5714 20.6786C51.0364 21.1437 51.3872 21.7102 51.5961 22.3338C51.805 22.9574 51.8663 23.6209 51.7753 24.2722C51.6842 24.9235 51.4433 25.5448 51.0714 26.0872C50.6995 26.6296 50.2068 27.0783 49.6321 27.3979L49.3751 27.5409V27.8349V43.4149ZM21.8751 27.8349V27.5462L21.6251 27.4019C20.9828 27.031 20.4487 26.4986 20.0759 25.8574C19.7038 25.2173 19.5053 24.4912 19.5002 23.7509C19.5105 22.8249 19.8231 21.9275 20.3903 21.1953C20.9584 20.4621 21.7508 19.9349 22.6466 19.6941C23.5423 19.4533 24.4923 19.5122 25.3515 19.8617C26.2106 20.2112 26.9319 20.8323 27.4051 21.63L27.5504 21.8749H27.8351H30.8751H31.3751V21.3749V13.5849V13.2935L31.1217 13.1499C30.4862 12.7897 29.9603 12.2639 29.6001 11.6284L29.4565 11.3749H29.1651H13.5851H13.2938L13.1501 11.6284C12.79 12.2639 12.2641 12.7897 11.6286 13.1499L11.3751 13.2935V13.5849V29.1649V29.4563L11.6286 29.5999C12.2641 29.9601 12.79 30.4859 13.1501 31.1214L13.2938 31.3749H13.5851H21.3751H21.8751V30.8749V27.8349ZM31.3751 26.1249V25.6249H30.8751H27.8351H27.5438L27.4001 25.8784C27.04 26.5139 26.5141 27.0397 25.8786 27.3999L25.6251 27.5435V27.8349V30.8749V31.3749H26.1251H29.1651H29.4565L29.6001 31.1214C29.9603 30.4859 30.4862 29.9601 31.1217 29.5999L31.3751 29.4563V29.1649V26.1249ZM45.3717 43.8499L45.6251 43.7063V43.4149V27.8349V27.5435L45.3717 27.3999C44.7362 27.0397 44.2103 26.5139 43.8501 25.8784L43.7065 25.6249H43.4151H35.6251H35.1251V26.1249V29.1649V29.4589L35.3821 29.6019C35.9568 29.9215 36.4495 30.3702 36.8214 30.9126C37.1933 31.455 37.4342 32.0763 37.5253 32.7276C37.6163 33.3789 37.555 34.0424 37.3461 34.666C37.1372 35.2896 36.7864 35.8561 36.3214 36.3212C35.8564 36.7862 35.2898 37.1369 34.6662 37.3458C34.0427 37.5547 33.3791 37.6161 32.7278 37.525C32.0765 37.434 31.4552 37.193 30.9128 36.8211C30.3704 36.4492 29.9218 35.9566 29.6021 35.3819L29.4592 35.1249H29.1651H26.1251H25.6251V35.6249V43.4149V43.7063L25.8786 43.8499C26.5141 44.2101 27.04 44.7359 27.4001 45.3714L27.5438 45.6249H27.8351H43.4151H43.7065L43.8501 45.3714C44.2103 44.7359 44.7362 44.2101 45.3717 43.8499Z" fill="#FF004D" stroke="white"/>
</svg>
