<svg width="57" height="57" viewBox="0 0 57 57" fill="none" xmlns="http://www.w3.org/2000/svg">
<path d="M11.875 19L23.75 38" stroke="#FF004D" stroke-width="4" stroke-linecap="round"/>
<path d="M44.4658 48.6875C48.0094 42.5497 49.875 35.5873 49.875 28.5C49.875 21.4127 48.0094 14.4503 44.4658 8.3125" stroke="#FF004D" stroke-width="4" stroke-linecap="round"/>
<path d="M34.1817 42.75C36.6831 38.4175 38 33.5028 38 28.5C38 23.4972 36.6831 18.5825 34.1817 14.25" stroke="#FF004D" stroke-width="4" stroke-linecap="round"/>
<path d="M23.5795 38C25.2471 35.1116 26.125 31.8352 26.125 28.5C26.125 25.1648 25.2471 21.8884 23.5795 19" stroke="#FF004D" stroke-width="4" stroke-linecap="round"/>
<path d="M12.0455 38C10.3779 35.1116 9.5 31.8352 9.5 28.5C9.5 25.1648 10.3779 21.8884 12.0455 19" stroke="#FF004D" stroke-width="4" stroke-linecap="round"/>
</svg>
