<svg width="66" height="57" viewBox="0 0 66 57" fill="none" xmlns="http://www.w3.org/2000/svg">
<path d="M32.6911 47.5L11.7332 24.6613C11.3263 24.2179 11.1229 23.9962 11.0696 23.717C11.0163 23.4379 11.1238 23.1568 11.3387 22.5948L15.3623 12.0715C15.8381 10.8271 16.0759 10.205 16.5881 9.85249C17.1003 9.5 17.7663 9.5 19.0985 9.5H46.2837C47.6158 9.5 48.2819 9.5 48.7941 9.85249C49.3062 10.205 49.5441 10.8271 50.0199 12.0715L54.0435 22.5948C54.2584 23.1568 54.3659 23.4379 54.3126 23.717C54.2593 23.9962 54.0558 24.2179 53.649 24.6613L32.6911 47.5ZM32.6911 47.5L42.226 21.375M32.6911 47.5L23.1562 21.375M53.1231 23.75L42.226 21.375M42.226 21.375L38.1396 11.875M42.226 21.375H23.1562M27.2426 11.875L23.1562 21.375M23.1562 21.375L12.2591 23.75" stroke="#FF004D" stroke-width="3" stroke-linecap="round"/>
</svg>
