<svg width="57" height="57" viewBox="0 0 57 57" fill="none" xmlns="http://www.w3.org/2000/svg">
<path d="M30.625 16.625V16.875H30.875H40.375C42.1984 16.875 43.947 17.5993 45.2364 18.8886C46.5257 20.178 47.25 21.9266 47.25 23.75V45.125C47.25 46.9484 46.5257 48.697 45.2364 49.9864C43.947 51.2757 42.1984 52 40.375 52H16.625C14.8016 52 13.053 51.2757 11.7636 49.9864C10.4743 48.697 9.75 46.9484 9.75 45.125V23.75C9.75 21.9266 10.4743 20.178 11.7636 18.8886C13.053 17.5993 14.8016 16.875 16.625 16.875H26.125H26.375V16.625V13.585V13.4407L26.25 13.3685C25.5699 12.9758 25.0044 12.412 24.6096 11.7331C24.215 11.0544 24.0049 10.2842 24 9.49914C24.0002 8.30597 24.4743 7.16173 25.318 6.31802C26.1619 5.47411 27.3065 5 28.5 5C29.6935 5 30.8381 5.47411 31.682 6.31802C32.5257 7.16173 32.9998 8.30597 33 9.49913C32.9951 10.2842 32.785 11.0544 32.3904 11.7331C31.9956 12.412 31.4301 12.9758 30.75 13.3685L30.625 13.4407V13.585V16.625ZM32.8275 21.4356L32.9052 21.125H32.585H24.415H24.0948L24.1725 21.4356L25.36 26.1856L25.4073 26.375H25.6025H31.3975H31.5927L31.64 26.1856L32.8275 21.4356ZM19.7656 21.3165L19.7195 21.125H19.5225H16.625C15.9288 21.125 15.2611 21.4016 14.7688 21.8938C14.2766 22.3861 14 23.0538 14 23.75V45.125C14 45.8212 14.2766 46.4889 14.7688 46.9812C15.2611 47.4734 15.9288 47.75 16.625 47.75H40.375C41.0712 47.75 41.7389 47.4734 42.2312 46.9812C42.7234 46.4889 43 45.8212 43 45.125V23.75C43 23.0538 42.7234 22.3861 42.2312 21.8938C41.7389 21.4016 41.0712 21.125 40.375 21.125H37.4775H37.2805L37.2344 21.3165L35.3823 29.0101C35.3822 29.0105 35.3821 29.0109 35.382 29.0113C35.2655 29.4823 34.9913 29.8993 34.605 30.1929C34.2183 30.4867 33.7427 30.6392 33.2573 30.6251L33.2573 30.625H33.25H23.75V30.6249L23.7427 30.6251C23.2573 30.6392 22.7817 30.4867 22.395 30.1929C22.0085 29.8991 21.7343 29.4819 21.6178 29.0106C21.6178 29.0105 21.6178 29.0103 21.6177 29.0101L19.7656 21.3165ZM20.1944 36.2331C20.5439 35.9996 20.9547 35.875 21.375 35.875C21.9386 35.875 22.4791 36.0989 22.8776 36.4974C23.2761 36.8959 23.5 37.4364 23.5 38C23.5 38.4203 23.3754 38.8311 23.1419 39.1806C22.9084 39.53 22.5765 39.8024 22.1882 39.9632C21.7999 40.1241 21.3726 40.1662 20.9604 40.0842C20.5482 40.0022 20.1696 39.7998 19.8724 39.5026C19.5752 39.2054 19.3728 38.8268 19.2908 38.4146C19.2088 38.0024 19.2509 37.5751 19.4118 37.1868C19.5726 36.7985 19.845 36.4666 20.1944 36.2331ZM3.2474 34.1224C3.64591 33.7239 4.18642 33.5 4.75 33.5C5.31359 33.5 5.85409 33.7239 6.2526 34.1224C6.65112 34.5209 6.875 35.0614 6.875 35.625V40.375C6.875 40.9386 6.65112 41.4791 6.2526 41.8776C5.85409 42.2761 5.31359 42.5 4.75 42.5C4.18641 42.5 3.64591 42.2761 3.2474 41.8776C2.84888 41.4791 2.625 40.9386 2.625 40.375V35.625C2.625 35.0614 2.84888 34.5209 3.2474 34.1224ZM50.7474 34.1224C51.1459 33.7239 51.6864 33.5 52.25 33.5C52.8136 33.5 53.3541 33.7239 53.7526 34.1224C54.1511 34.5209 54.375 35.0614 54.375 35.625V40.375C54.375 40.9386 54.1511 41.4791 53.7526 41.8776C53.3541 42.2761 52.8136 42.5 52.25 42.5C51.6864 42.5 51.1459 42.2761 50.7474 41.8776C50.3489 41.4791 50.125 40.9386 50.125 40.375V35.625C50.125 35.0614 50.3489 34.5209 50.7474 34.1224ZM34.4444 36.2331C34.7939 35.9996 35.2047 35.875 35.625 35.875C36.1886 35.875 36.7291 36.0989 37.1276 36.4974C37.5261 36.8959 37.75 37.4364 37.75 38C37.75 38.4203 37.6254 38.8311 37.3919 39.1806C37.1584 39.53 36.8265 39.8024 36.4382 39.9632C36.0499 40.1241 35.6226 40.1662 35.2104 40.0842C34.7982 40.0022 34.4196 39.7998 34.1224 39.5026C33.8252 39.2054 33.6228 38.8268 33.5408 38.4146C33.4588 38.0024 33.5009 37.5751 33.6618 37.1868C33.8226 36.7985 34.095 36.4666 34.4444 36.2331Z" fill="#FF004D" stroke="white" stroke-width="0.5"/>
</svg>
