<svg width="57" height="57" viewBox="0 0 57 57" fill="none" xmlns="http://www.w3.org/2000/svg">
<path d="M51.5613 11.2099L45.7901 5.43868C45.3451 4.99633 44.7432 4.74805 44.1157 4.74805C43.4883 4.74805 42.8863 4.99633 42.4413 5.43868L29.1888 18.6912C28.9687 18.9131 28.7946 19.1763 28.6764 19.4657C28.5582 19.755 28.4983 20.0649 28.5001 20.3774V26.1249C28.5001 26.7548 28.7503 27.3589 29.1957 27.8043C29.6411 28.2497 30.2452 28.4999 30.8751 28.4999H36.6226C36.9352 28.5017 37.245 28.4418 37.5344 28.3236C37.8237 28.2054 38.0869 28.0313 38.3088 27.8112L51.5613 14.5587C52.0037 14.1137 52.252 13.5117 52.252 12.8843C52.252 12.2569 52.0037 11.6549 51.5613 11.2099ZM35.6251 23.7499H33.2501V21.3749L44.1276 10.4974L46.5026 12.8724L35.6251 23.7499ZM45.1251 28.4999C44.4952 28.4999 43.8911 28.7502 43.4457 29.1956C43.0003 29.6409 42.7501 30.245 42.7501 30.8749C42.7501 35.2842 40.9985 39.5128 37.8807 42.6306C34.7629 45.7484 30.5343 47.4999 26.1251 47.4999H12.8488L14.3688 46.0037C14.5914 45.7829 14.7681 45.5202 14.8887 45.2308C15.0093 44.9414 15.0714 44.631 15.0714 44.3174C15.0714 44.0039 15.0093 43.6935 14.8887 43.4041C14.7681 43.1146 14.5914 42.852 14.3688 42.6312C12.0435 40.3061 10.46 37.3437 9.8184 34.1186C9.17682 30.8935 9.50605 27.5506 10.7645 24.5127C12.0229 21.4747 14.1539 18.8781 16.8881 17.0514C19.6223 15.2246 22.8368 14.2497 26.1251 14.2499C26.755 14.2499 27.3591 13.9997 27.8045 13.5543C28.2499 13.1089 28.5001 12.5048 28.5001 11.8749C28.5001 11.245 28.2499 10.641 27.8045 10.1956C27.3591 9.75015 26.755 9.49993 26.1251 9.49993C22.1053 9.51314 18.1707 10.6596 14.773 12.8077C11.3753 14.9558 8.65219 18.0184 6.91625 21.6441C5.18031 25.2697 4.50192 29.3114 4.95896 33.3051C5.41599 37.2988 6.98993 41.0827 9.50009 44.2224L5.43884 48.1887C5.10929 48.5227 4.88605 48.9468 4.79728 49.4075C4.70852 49.8682 4.75821 50.3449 4.94009 50.7774C5.11826 51.2112 5.42083 51.5824 5.80967 51.8445C6.1985 52.1065 6.6562 52.2476 7.12509 52.2499H26.1251C28.9321 52.2499 31.7116 51.6971 34.3049 50.6229C36.8983 49.5487 39.2546 47.9742 41.2395 45.9893C43.2243 44.0045 44.7988 41.6481 45.873 39.0548C46.9472 36.4615 47.5001 33.6819 47.5001 30.8749C47.5001 30.245 47.2499 29.6409 46.8045 29.1956C46.3591 28.7502 45.755 28.4999 45.1251 28.4999Z" fill="#FF004D"/>
</svg>
