<svg width="57" height="57" viewBox="0 0 57 57" fill="none" xmlns="http://www.w3.org/2000/svg">
<path d="M45.125 27.2648C44.4951 27.2648 43.891 27.515 43.4456 27.9604C43.0002 28.4058 42.75 29.0099 42.75 29.6398V35.316L39.1875 31.801C37.9358 30.5992 36.2678 29.9281 34.5325 29.9281C32.7972 29.9281 31.1292 30.5992 29.8775 31.801L28.215 33.4635L22.3013 27.5498C21.0642 26.3199 19.3907 25.6296 17.6462 25.6296C15.9018 25.6296 14.2283 26.3199 12.9912 27.5498L9.5 31.0885V17.7648C9.5 17.1349 9.75022 16.5308 10.1956 16.0854C10.641 15.64 11.2451 15.3898 11.875 15.3898H26.125C26.7549 15.3898 27.359 15.1396 27.8044 14.6942C28.2498 14.2488 28.5 13.6447 28.5 13.0148C28.5 12.3849 28.2498 11.7808 27.8044 11.3354C27.359 10.89 26.7549 10.6398 26.125 10.6398H11.875C9.98533 10.6398 8.17306 11.3905 6.83686 12.7267C5.50067 14.0629 4.75 15.8751 4.75 17.7648V46.2648C4.75 48.1545 5.50067 49.9667 6.83686 51.3029C8.17306 52.6391 9.98533 53.3898 11.875 53.3898H40.375C42.2647 53.3898 44.0769 52.6391 45.4131 51.3029C46.7493 49.9667 47.5 48.1545 47.5 46.2648V29.6398C47.5 29.0099 47.2498 28.4058 46.8044 27.9604C46.359 27.515 45.7549 27.2648 45.125 27.2648ZM11.875 48.6398C11.2451 48.6398 10.641 48.3896 10.1956 47.9442C9.75022 47.4988 9.5 46.8947 9.5 46.2648V37.8098L16.34 30.8748C16.5127 30.6967 16.7194 30.5551 16.9479 30.4584C17.1763 30.3616 17.4219 30.3118 17.67 30.3118C17.9181 30.3118 18.1637 30.3616 18.3921 30.4584C18.6206 30.5551 18.8273 30.6967 19 30.8748L26.5287 38.4035L36.6463 48.521L11.875 48.6398ZM42.75 46.2648C42.7418 46.7223 42.6016 47.1676 42.3462 47.5473L31.5637 36.8123L33.2262 35.1735C33.5734 34.8284 34.043 34.6346 34.5325 34.6346C35.022 34.6346 35.4916 34.8284 35.8388 35.1735L42.75 42.0373V46.2648ZM51.585 10.046L45.8375 4.29854C45.3925 3.8562 44.7906 3.60791 44.1631 3.60791C43.5357 3.60791 42.9337 3.8562 42.4887 4.29854L31.6113 15.176C31.3825 15.394 31.1996 15.6554 31.0732 15.945C30.9468 16.2345 30.8794 16.5464 30.875 16.8623V22.6098C30.875 23.2397 31.1252 23.8438 31.5706 24.2892C32.016 24.7346 32.6201 24.9848 33.25 24.9848H38.9975C39.6206 24.9822 40.2176 24.7348 40.66 24.296L51.5375 13.4185C51.7632 13.2009 51.9437 12.9407 52.0683 12.653C52.193 12.3653 52.2595 12.0557 52.2639 11.7422C52.2683 11.4287 52.2106 11.1173 52.0941 10.8262C51.9775 10.5351 51.8045 10.2699 51.585 10.046ZM38 20.2348H35.625V17.8598L44.175 9.33354L46.55 11.7085L38 20.2348Z" fill="#FF004D"/>
</svg>
