<svg width="57" height="57" viewBox="0 0 57 57" fill="none" xmlns="http://www.w3.org/2000/svg">
<rect x="31" y="33" width="5" height="5.00001" rx="1" fill="#FF004D"/>
<rect x="17" y="26" width="3" height="14" rx="1" fill="#FF004D"/>
<rect x="26" y="32" width="3" height="14" rx="1" transform="rotate(90 26 32)" fill="#FF004D"/>
<rect x="38" y="28.5" width="4.75" height="4.75" rx="1" fill="#FF004D"/>
<path d="M33.25 19V17.3731C33.25 15.8732 33.25 15.1233 32.8264 14.5807C32.4028 14.0382 31.6753 13.8563 30.2201 13.4925L26.7799 12.6325C25.3247 12.2687 24.5972 12.0868 24.1736 11.5443C23.75 11.0017 23.75 10.2518 23.75 8.75189V4.75" stroke="#FF004D" stroke-width="3" stroke-linecap="round"/>
<path d="M7.125 33.25C7.125 27.1728 7.125 24.1342 8.59736 22.041C8.97641 21.5021 9.41858 21.0197 9.91257 20.6062C11.8314 19 14.6168 19 20.1875 19H36.8125C42.3832 19 45.1686 19 47.0874 20.6062C47.5814 21.0197 48.0236 21.5021 48.4026 22.041C49.875 24.1342 49.875 27.1728 49.875 33.25C49.875 39.3272 49.875 42.3658 48.4026 44.459C48.0236 44.9979 47.5814 45.4803 47.0874 45.8938C45.1686 47.5 42.3832 47.5 36.8125 47.5H20.1875C14.6168 47.5 11.8314 47.5 9.91257 45.8938C9.41858 45.4803 8.97641 44.9979 8.59736 44.459C7.125 42.3658 7.125 39.3272 7.125 33.25Z" stroke="#FF004D" stroke-width="3"/>
</svg>
