<svg width="60" height="60" viewBox="0 0 60 60" fill="none" xmlns="http://www.w3.org/2000/svg">
<path d="M18.8 30L17.05 30L18.8 30ZM41.2 30L42.95 30L41.2 30ZM30 41.2L30 42.95L30 41.2ZM30 24.4L30 26.15L30 24.4ZM35.7943 57.3997L36.1547 59.1122L35.7943 57.3997ZM24.2057 57.3997L23.8453 59.1122L24.2057 57.3997ZM4.06811 19.4193L2.44803 18.7576L2.44803 18.7576L4.06811 19.4193ZM2.60027 35.7943L0.887771 36.1547L0.887771 36.1547L2.60027 35.7943ZM24.2057 2.60027L23.8453 0.887772L24.2057 2.60027ZM35.7943 2.60027L36.1547 0.887774L35.7943 2.60027ZM55.7064 19.5204L56.2143 21.195L55.7064 19.5204ZM4.29031 19.5194L3.78234 21.194L4.29031 19.5194ZM54.3147 20.0882C55.5619 23.1442 56.25 26.4896 56.25 30H59.75C59.75 26.0284 58.9708 22.2344 57.5553 18.7658L54.3147 20.0882ZM56.25 30C56.25 31.8647 56.0558 33.6822 55.6872 35.434L59.1122 36.1547C59.5304 34.1673 59.75 32.1084 59.75 30H56.25ZM55.6872 35.434C53.5546 45.5691 45.5692 53.5546 35.434 55.6872L36.1547 59.1122C47.6476 56.6939 56.6939 47.6476 59.1122 36.1547L55.6872 35.434ZM35.434 55.6872C33.6822 56.0558 31.8647 56.25 30 56.25V59.75C32.1084 59.75 34.1674 59.5304 36.1547 59.1122L35.434 55.6872ZM30 56.25C28.1353 56.25 26.3178 56.0558 24.566 55.6872L23.8453 59.1122C25.8327 59.5304 27.8916 59.75 30 59.75V56.25ZM3.75 30C3.75 26.4868 4.43922 23.139 5.68818 20.081L2.44803 18.7576C1.03042 22.2284 0.250001 26.0253 0.250001 30H3.75ZM24.566 55.6872C14.4309 53.5546 6.44541 45.5691 4.31277 35.434L0.887771 36.1547C3.30612 47.6476 12.3524 56.6939 23.8453 59.1122L24.566 55.6872ZM4.31277 35.434C3.94416 33.6822 3.75 31.8647 3.75 30H0.250001C0.250001 32.1084 0.469597 34.1673 0.887771 36.1547L4.31277 35.434ZM5.68818 20.081C8.93829 12.1236 15.9829 6.11883 24.566 4.31277L23.8453 0.887772C14.1081 2.93668 6.1304 9.74188 2.44803 18.7576L5.68818 20.081ZM24.566 4.31277C26.3178 3.94416 28.1353 3.75 30 3.75V0.25C27.8916 0.25 25.8327 0.469597 23.8453 0.887772L24.566 4.31277ZM30 3.75C31.8647 3.75 33.6822 3.94416 35.434 4.31277L36.1547 0.887774C34.1674 0.469598 32.1084 0.25 30 0.25V3.75ZM35.434 4.31277C44.0197 6.11937 51.0659 12.1272 54.3147 20.0882L57.5553 18.7658C53.8744 9.74598 45.8948 2.9373 36.1547 0.887774L35.434 4.31277ZM34.1272 3.13223C34.9007 5.55657 37.7686 14.8933 38.9451 23.4813L42.4127 23.0062C41.1927 14.101 38.2447 4.52279 37.4615 2.06831L34.1272 3.13223ZM38.9451 23.4813C39.2606 25.7844 39.45 28.0033 39.45 30L42.95 30C42.95 27.7963 42.7421 25.4106 42.4127 23.0062L38.9451 23.4813ZM55.1984 17.8457C52.1199 18.7794 46.3341 20.4205 40.3613 21.5228L40.9965 24.9647C47.1537 23.8283 53.0805 22.1455 56.2143 21.195L55.1984 17.8457ZM40.3613 21.5228C36.7394 22.1913 33.1093 22.65 30 22.65L30 26.15C33.4116 26.15 37.2764 25.6513 40.9965 24.9647L40.3613 21.5228ZM39.45 30C39.45 32.9564 39.0352 36.3856 38.4187 39.8334L41.8641 40.4494C42.4984 36.9016 42.95 33.2465 42.95 30L39.45 30ZM38.4187 39.8334C37.0673 47.3916 34.7983 54.7643 34.1272 56.8678L37.4615 57.9317C38.1474 55.7823 40.4718 48.2364 41.8641 40.4494L38.4187 39.8334ZM56.8678 34.1271C54.7643 34.7983 47.3917 37.0673 39.8334 38.4187L40.4494 41.8641C48.2364 40.4718 55.7823 38.1473 57.9317 37.4615L56.8678 34.1271ZM39.8334 38.4187C36.3856 39.0352 32.9564 39.45 30 39.45L30 42.95C33.2465 42.95 36.9016 42.4984 40.4494 41.8641L39.8334 38.4187ZM30 39.45C27.0436 39.45 23.6144 39.0352 20.1666 38.4187L19.5506 41.8641C23.0984 42.4984 26.7535 42.95 30 42.95L30 39.45ZM20.1666 38.4187C12.6083 37.0673 5.23571 34.7983 3.13223 34.1271L2.06831 37.4615C4.21771 38.1473 11.7636 40.4718 19.5506 41.8641L20.1666 38.4187ZM17.05 30C17.05 33.2465 17.5016 36.9016 18.1359 40.4494L21.5813 39.8334C20.9648 36.3856 20.55 32.9564 20.55 30L17.05 30ZM18.1359 40.4494C19.5282 48.2364 21.8527 55.7823 22.5385 57.9317L25.8729 56.8678C25.2017 54.7643 22.9327 47.3917 21.5813 39.8334L18.1359 40.4494ZM22.5385 2.06831C21.7553 4.52278 18.8073 14.101 17.5873 23.0062L21.0549 23.4813C22.2314 14.8933 25.0993 5.55656 25.8729 3.13223L22.5385 2.06831ZM17.5873 23.0062C17.2579 25.4106 17.05 27.7963 17.05 30L20.55 30C20.55 28.0033 20.7394 25.7844 21.0549 23.4813L17.5873 23.0062ZM30 22.65C26.8907 22.65 23.2606 22.1913 19.6387 21.5228L19.0035 24.9647C22.7236 25.6513 26.5884 26.15 30 26.15L30 22.65ZM19.6387 21.5228C13.6637 20.4201 7.87594 18.7783 4.79828 17.8447L3.78234 21.194C6.91528 22.1443 12.8441 23.8279 19.0035 24.9647L19.6387 21.5228ZM55.1286 17.8739C55.1472 17.8642 55.1717 17.8538 55.1984 17.8457L56.2143 21.195C56.4002 21.1387 56.5752 21.0665 56.7415 20.9801L55.1286 17.8739ZM3.15509 20.9123C3.34812 21.0303 3.55718 21.1257 3.78234 21.194L4.79828 17.8447C4.86605 17.8653 4.9284 17.8942 4.98112 17.9264L3.15509 20.9123Z" fill="#FF004C"/>
</svg>
