<svg width="57" height="57" viewBox="0 0 57 57" fill="none" xmlns="http://www.w3.org/2000/svg">
<path d="M28.5 33.25C25.6816 33.25 22.9265 32.4143 20.5831 30.8484C18.2397 29.2826 16.4133 27.0571 15.3347 24.4532C14.2562 21.8494 13.974 18.9842 14.5238 16.22C15.0737 13.4557 16.4308 10.9166 18.4237 8.92373C20.4166 6.93084 22.9557 5.57366 25.72 5.02382C28.4842 4.47398 31.3494 4.75617 33.9532 5.83472C36.5571 6.91327 38.7826 8.73973 40.3484 11.0831C41.9143 13.4265 42.75 16.1816 42.75 19C42.75 22.7793 41.2487 26.4039 38.5763 29.0763C35.9039 31.7487 32.2793 33.25 28.5 33.25ZM28.5 9.50001C26.6211 9.50001 24.7844 10.0572 23.2221 11.101C21.6598 12.1449 20.4422 13.6286 19.7232 15.3645C19.0041 17.1004 18.816 19.0105 19.1825 20.8534C19.5491 22.6962 20.4539 24.3889 21.7825 25.7175C23.1111 27.0461 24.8038 27.9509 26.6467 28.3175C28.4895 28.684 30.3996 28.4959 32.1355 27.7769C33.8714 27.0578 35.3551 25.8402 36.399 24.2779C37.4428 22.7157 38 20.8789 38 19C38 16.4804 36.9991 14.0641 35.2175 12.2825C33.4359 10.5009 31.0196 9.50001 28.5 9.50001Z" fill="#FF004D"/>
<path d="M49.875 52.25C49.2451 52.25 48.641 51.9998 48.1956 51.5544C47.7502 51.109 47.5 50.5049 47.5 49.875C47.5 45.4658 45.7484 41.2371 42.6306 38.1194C39.5129 35.0016 35.2842 33.25 30.875 33.25H26.125C21.7158 33.25 17.4871 35.0016 14.3693 38.1194C11.2516 41.2371 9.5 45.4658 9.5 49.875C9.5 50.5049 9.24978 51.109 8.80438 51.5544C8.35898 51.9998 7.75489 52.25 7.125 52.25C6.49511 52.25 5.89102 51.9998 5.44562 51.5544C5.00022 51.109 4.75 50.5049 4.75 49.875C4.75 44.206 7.002 38.7692 11.0106 34.7606C15.0192 30.752 20.456 28.5 26.125 28.5H30.875C36.544 28.5 41.9808 30.752 45.9894 34.7606C49.998 38.7692 52.25 44.206 52.25 49.875C52.25 50.5049 51.9998 51.109 51.5544 51.5544C51.109 51.9998 50.5049 52.25 49.875 52.25Z" fill="#FF004D"/>
<path d="M28.5 52.25C28.1874 52.2518 27.8775 52.1919 27.5882 52.0737C27.2988 51.9555 27.0356 51.7813 26.8137 51.5612L24.4387 49.1862C24.1787 48.9245 23.9832 48.6058 23.8678 48.2554C23.7523 47.905 23.7201 47.5325 23.7737 47.1675L26.1487 30.5425C26.1487 29.9126 26.3989 29.3085 26.8443 28.8631C27.2897 28.4177 27.8938 28.1675 28.5237 28.1675C29.1536 28.1675 29.7577 28.4177 30.2031 28.8631C30.6485 29.3085 30.8987 29.9126 30.8987 30.5425L33.2737 47.1675C33.3273 47.5325 33.2951 47.905 33.1796 48.2554C33.0642 48.6058 32.8687 48.9245 32.6087 49.1862L30.2337 51.5612C30.0062 51.7871 29.7353 51.9646 29.4373 52.083C29.1393 52.2013 28.8205 52.2581 28.5 52.25Z" fill="#FF004D"/>
</svg>
