<svg width="95" height="95" viewBox="0 0 95 95" fill="none" xmlns="http://www.w3.org/2000/svg">
<path d="M52.7168 9.66785C61.4168 9.66785 69.5168 13.0678 75.7168 19.1678C81.8168 25.2678 85.2168 33.5678 85.2168 42.0678C85.2168 44.5678 87.2168 46.5678 89.7168 46.5678C92.2168 46.5678 94.2168 44.5678 94.2168 42.0678C94.3168 31.1678 89.9168 20.4678 82.1168 12.6678C74.2168 5.06785 63.8168 0.667847 52.7168 0.667847C50.2168 0.667847 48.2168 2.66785 48.2168 5.16785C48.2168 7.66785 50.2168 9.66785 52.7168 9.66785Z" fill="white"/>
<path d="M52.7168 26.9678C56.8168 26.9678 60.6168 28.5678 63.5168 31.4678C66.4168 34.3678 68.0168 38.1678 68.0168 42.2678C68.0168 44.7678 70.0168 46.7678 72.5168 46.7678C75.0168 46.7678 77.0168 44.7678 77.0168 42.2678C77.0168 35.7678 74.5168 29.6678 69.9168 25.0678C65.3168 20.4678 59.2168 17.9678 52.7168 17.9678C50.2168 17.9678 48.2168 19.9678 48.2168 22.4678C48.2168 24.9678 50.2168 26.9678 52.7168 26.9678Z" fill="white"/>
<path d="M91.4168 68.9678L72.0168 58.9678C69.3168 57.5678 65.9168 58.2678 64.0168 60.6678L56.9168 69.7678C50.0168 66.0678 44.7168 62.4678 38.6168 56.3678C32.1168 49.8678 28.6168 44.4678 25.0168 37.7678L34.0168 30.7678C36.4168 28.8678 37.2168 25.4678 35.7168 22.7678L25.8168 3.46782C24.0168 0.0678174 19.7168 -1.03218 16.6168 1.06782L4.21677 9.26782C1.41677 11.1678 -0.183229 14.4678 0.016771 17.8678C0.216771 21.3678 0.716771 25.7678 1.51677 28.8678C5.11677 42.6678 13.7168 56.9678 25.8168 69.0678C37.9168 81.2678 52.2168 89.8678 66.0168 93.4678C69.1168 94.2678 73.5168 94.6678 77.1168 94.9678C80.6168 95.1678 83.9168 93.4678 85.8168 90.5678L93.8168 78.0678C95.9168 74.8678 94.7168 70.6678 91.4168 68.9678Z" fill="white"/>
</svg>
