<svg width="50" height="50" viewBox="0 0 50 50" fill="none" xmlns="http://www.w3.org/2000/svg">
<path d="M25.0274 49.4388C18.495 49.4388 12.3535 46.895 7.73447 42.2758C3.11541 37.6568 0.571533 31.5154 0.571533 24.9829C0.571533 18.4506 3.11541 12.3091 7.73447 7.69004C12.3536 3.07092 18.495 0.5271 25.0274 0.5271C31.5598 0.5271 37.7012 3.07092 42.3203 7.69004C46.9394 12.3092 49.4832 18.4506 49.4832 24.9829C49.4832 31.5154 46.9394 37.6568 42.3203 42.2758C37.7012 46.895 31.5598 49.4388 25.0274 49.4388ZM25.0274 2.77075C12.7795 2.77075 2.81518 12.7351 2.81518 24.9829C2.81518 37.2308 12.7795 47.1951 25.0274 47.1951C37.2752 47.1951 47.2396 37.2308 47.2396 24.9829C47.2396 12.7351 37.2753 2.77075 25.0274 2.77075Z" fill="#FF005C"/>
<path d="M24.8984 39.4507C23.9071 39.4507 23.1057 38.6471 23.1057 37.6558V21.7258C23.1057 20.7344 23.9071 19.9309 24.8984 19.9309C25.8898 19.9309 26.6912 20.7345 26.6912 21.7258V37.6558C26.6912 38.6471 25.8898 39.4507 24.8984 39.4507Z" fill="#FF005C"/>
<path d="M22.4972 13.2C22.4972 13.8545 22.7572 14.4823 23.2201 14.9451C23.6829 15.4079 24.3106 15.668 24.9652 15.668C25.6198 15.668 26.2475 15.4079 26.7104 14.9451C27.1732 14.4823 27.4332 13.8545 27.4332 13.2C27.4332 12.5454 27.1732 11.9176 26.7104 11.4548C26.2475 10.992 25.6198 10.7319 24.9652 10.7319C24.3106 10.7319 23.6829 10.992 23.2201 11.4548C22.7572 11.9176 22.4972 12.5454 22.4972 13.2Z" fill="#FF005C"/>
</svg>
